<?xml version="1.0" encoding="UTF-8" standalone="no"?>
<!DOCTYPE svg PUBLIC "-//W3C//DTD SVG 1.1//EN" "http://www.w3.org/Graphics/SVG/1.1/DTD/svg11.dtd" >
<svg xmlns="http://www.w3.org/2000/svg">
<metadata>
Generated by SVGconv.
Copyright   : Copyright (c) Mark Simonson, 2005. All rights reserved.
Designer    : Mark Simonson
Foundry     : Mark Simonson Studio LLC
Foundry URL : http://www.marksimonson.com
</metadata>
<defs>
<font id="ProximaNova-Regular" horiz-adv-x="548" >
<font-face units-per-em="1000" ascent="920" descent="210" >
<font-face-src>
<font-face-name/>
</font-face-src>
</font-face>
<missing-glyph horiz-adv-x="507" />
<glyph unicode="&#13;" horiz-adv-x="0" />
<glyph unicode="&#32;" horiz-adv-x="258" />
<glyph unicode="&#160;" horiz-adv-x="258" />
<glyph unicode="&#8201;" horiz-adv-x="125" />
<glyph unicode="&#8202;" horiz-adv-x="56" />
<glyph unicode="&#8193;" horiz-adv-x="1000" />
<glyph unicode="&#8195;" horiz-adv-x="1000" />
<glyph unicode="&#8192;" horiz-adv-x="500" />
<glyph unicode="&#8194;" horiz-adv-x="500" />
<glyph unicode="&#8197;" horiz-adv-x="250" />
<glyph unicode="&#8198;" horiz-adv-x="167" />
<glyph unicode="&#8196;" horiz-adv-x="333" />
<glyph unicode="&#8199;" horiz-adv-x="598" />
<glyph unicode="&#8200;" horiz-adv-x="230" />
<glyph unicode="&#48;" horiz-adv-x="612" d="M306 677q86 0 143.5 -50q57.5 -50 84.5 -128.5q27 -78.5 27 -165.5q0 -87 -27 -165.5q-27 -78.5 -84.5 -129q-57.5 -50.5 -143.5 -50.5q-86 0 -143.5 50.5q-57.5 50.5 -84.5 129q-27 78.5 -27 165.5q0 87 27 165.5q27 78.5 84 128.5q57 50 144 50zt0 0zM306 603q-88 0 -129 -78.5q-41 -78.5 -41 -191.5q0 -114 41 -192.5q41 -78.5 129 -78.5q88 0 129 78.5q41 78.5 41 192.5q0 113 -41 191.5t-129 78.5z" />
<glyph unicode="&#49;" horiz-adv-x="339" d="M178 557l-107 -113l-50 51l167 172h73v-667l-83 0z" />
<glyph unicode="&#50;" horiz-adv-x="588" d="M54 66q138 109 213.5 175.5q75.5 66.5 116 125.5q40.5 59 40.5 114q0 60 -41 91q-41 31 -98 31q-58 0 -104.5 -22.5q-46.5 -22.5 -76.5 -61.5l-51 53q38 50 99.5 77.5q61.5 27.5 132.5 27.5q58 0 109 -22q51 -22 83 -66.5q32 -44.5 32 -107.5q0 -65 -40 -129.5q-40 -64.5 -108 -128.5q-68 -64 -176 -149l327 0v-74l-458 0z" />
<glyph unicode="&#51;" horiz-adv-x="557" d="M78 150q30 -40 79 -64q49 -24 107 -24q73 0 114.5 33.5q41.5 33.5 41.5 91.5q0 60 -44.5 89q-44.5 29 -121.5 29q-59 0 -69 -1l0 76q11 -1 69 -1q68 0 111.5 27.5q43.5 27.5 43.5 82.5q0 53 -42.5 83.5q-42.5 30.5 -106.5 30.5q-53 0 -95.5 -20q-42.5 -20 -80.5 -61l-46 52q39 47 97 75q58 28 131 28q99 0 162.5 -47.5q63.5 -47.5 63.5 -130.5q0 -66 -44 -105.5q-44 -39.5 -100 -49.5q34 -3 69.5 -22.5q35.5 -19.5 60 -55.5q24.5 -36 24.5 -86q0 -56 -28.5 -99.5q-28.5 -43.5 -82 -68q-53.5 -24.5 -125.5 -24.5q-80 0 -142 31q-62 31 -95 79z" />
<glyph unicode="&#52;" horiz-adv-x="558" d="M349 169h-317v69l286 429h114v-425h94v-73h-94v-169h-83zM115 242h234l0 348z" />
<glyph unicode="&#53;" horiz-adv-x="590" d="M117 150q69 -88 184 -88q68 0 111 41q43 41 43 102q0 65 -42.5 104.5q-42.5 39.5 -110.5 39.5q-90 0 -154 -63l-61 21v360h408v-74h-325v-232q26 26 67 43q41 17 89 17q57 0 105.5 -25q48.5 -25 77.5 -73.5q29 -48.5 29 -114.5q0 -66 -31 -116q-31 -50 -85 -77q-54 -27 -121 -27q-81 0 -138.5 27.5q-57.5 27.5 -96.5 79.5z" />
<glyph unicode="&#54;" horiz-adv-x="591" d="M322 677q115 0 185 -80l-42 -62q-28 33 -61 50.5q-33 17.5 -82 17.5q-62 0 -104 -37q-42 -37 -63 -96.5q-21 -59.5 -21 -128.5q0 -17 1 -26q25 40 77.5 72q52.5 32 111.5 32q61 0 110.5 -24q49.5 -24 78.5 -72q29 -48 29 -117q0 -59 -28.5 -108.5q-28.5 -49.5 -81.5 -79.5q-53 -30 -124 -30q-131 0 -194 97.5q-63 97.5 -63 246.5q0 94 29.5 172.5q29.5 78.5 90.5 125.5q61 47 151 47zt0 0zM304 347q-49 0 -94 -27.5q-45 -27.5 -73 -72.5q7 -74 48 -129.5q41 -55.5 120 -55.5q49 0 83.5 21q34.5 21 52 53.5q17.5 32.5 17.5 66.5q0 70 -43 107t-111 37z" />
<glyph unicode="&#55;" horiz-adv-x="515" d="M390 593h-359v74h455v-57l-273 -610l-92 0z" />
<glyph unicode="&#56;" horiz-adv-x="581" d="M211 344q-64 18 -106 58.5q-42 40.5 -42 101.5q0 57 32.5 96q32.5 39 85 58q52.5 19 110.5 19q58 0 110.5 -19q52.5 -19 85.5 -58q33 -39 33 -96q0 -61 -42 -101.5q-42 -40.5 -107 -58.5q68 -20 113.5 -66q45.5 -46 45.5 -109q0 -55 -32 -96q-32 -41 -86.5 -63q-54.5 -22 -120.5 -22q-67 0 -121.5 22q-54.5 22 -86 63q-31.5 41 -31.5 96q0 63 45.5 109q45.5 46 113.5 66zt0 0zM291 603q-63 0 -104 -30q-41 -30 -41 -80q0 -53 47 -79.5q47 -26.5 98 -35.5q51 9 98 35.5q47 26.5 47 79.5q0 50 -41.5 80q-41.5 30 -103.5 30zt0 0zM291 307q-27 -3 -63.5 -18q-36.5 -15 -64.5 -43q-28 -28 -28 -68q0 -52 45.5 -84q45.5 -32 110.5 -32q64 0 109.5 32q45.5 32 45.5 84q0 40 -28 68q-28 28 -64 43t-63 18z" />
<glyph unicode="&#57;" horiz-adv-x="591" d="M126 131q28 -33 61.5 -50.5q33.5 -17.5 81.5 -17.5q64 0 106.5 37.5q42.5 37.5 62 97q19.5 59.5 19.5 126.5q0 18 -1 27q-25 -40 -77 -72q-52 -32 -111 -32q-61 0 -111 24q-50 24 -79 72q-29 48 -29 117q0 58 28.5 108q28.5 50 81.5 80q53 30 123 30q132 0 195 -97.5q63 -97.5 63 -247.5q0 -94 -29.5 -172q-29.5 -78 -90.5 -125q-61 -47 -151 -47q-115 0 -185 80zM286 604q-48 0 -83 -21.5q-35 -21.5 -52.5 -54q-17.5 -32.5 -17.5 -65.5q0 -70 43 -107q43 -37 111 -37q49 0 94.5 27q45.5 27 71.5 72q-6 74 -47 130t-120 56z" />
<glyph unicode="&#65;" horiz-adv-x="658" d="M498 148h-338l-59 -148h-92l268 667h103l269 -667h-92zM184 222h289l-144 371z" />
<glyph unicode="&#66;" horiz-adv-x="629" d="M78 667h297q86 0 136.5 -47q50.5 -47 50.5 -123q0 -60 -34 -101.5q-34 -41.5 -83 -51.5q35 -5 65 -29q30 -24 47.5 -60q17.5 -36 17.5 -75q0 -81 -51.5 -130.5q-51.5 -49.5 -141.5 -49.5h-304zM361 378q55 0 85 30q30 30 30 77q0 47 -30.5 77.5q-30.5 30.5 -84.5 30.5h-200v-215zM365 74q58 0 91 31q33 31 33 84q0 49 -32.5 82q-32.5 33 -91.5 33h-204l0 -230z" />
<glyph unicode="&#67;" horiz-adv-x="676" d="M51 333q0 100 45 179q45 79 123 122.5q78 43.5 172 43.5q86 0 149.5 -35.5q63.5 -35.5 106.5 -96.5l-70 -39q-29 43 -78.5 70q-49.5 27 -107.5 27q-71 0 -129 -34.5q-58 -34.5 -91.5 -96.5q-33.5 -62 -33.5 -140q0 -78 33.5 -139.5q33.5 -61.5 91.5 -96.5q58 -35 129 -35q58 0 107.5 26.5q49.5 26.5 78.5 70.5l71 -39q-97 -132 -257 -132q-94 0 -172 43.5q-78 43.5 -123 122.5t-45 179z" />
<glyph unicode="&#68;" horiz-adv-x="700" d="M78 667h228q101 0 179 -43.5q78 -43.5 120.5 -120q42.5 -76.5 42.5 -170.5q0 -95 -42.5 -170.5q-42.5 -75.5 -120.5 -119q-78 -43.5 -179 -43.5h-228zM306 74q79 0 137 34.5q58 34.5 88.5 93.5q30.5 59 30.5 131q0 73 -30 132q-30 59 -88 93.5q-58 34.5 -138 34.5h-145l0 -519z" />
<glyph unicode="&#69;" horiz-adv-x="569" d="M78 667h437v-74h-354v-215h347v-74h-347v-230h354v-74l-437 0z" />
<glyph unicode="&#70;" horiz-adv-x="550" d="M78 667h437v-74h-354v-215h347v-74h-347v-304l-83 0z" />
<glyph unicode="&#71;" horiz-adv-x="713" d="M394 678q158 0 259 -125l-66 -41q-32 42 -83.5 67q-51.5 25 -109.5 25q-72 0 -131 -34.5q-59 -34.5 -92.5 -96.5q-33.5 -62 -33.5 -140q0 -78 33.5 -140q33.5 -62 92.5 -97q59 -35 131 -35q55 0 102.5 21.5q47.5 21.5 76.5 50.5l0 136h-229v74h312v-241q-48 -54 -115.5 -84.5q-67.5 -30.5 -146.5 -30.5q-95 0 -173.5 43.5q-78.5 43.5 -124 122.5q-45.5 79 -45.5 180q0 101 45.5 179.5q45.5 78.5 124 122t173.5 43.5z" />
<glyph unicode="&#72;" horiz-adv-x="712" d="M551 306h-390v-306h-83v667h83v-287h390v287h83v-667l-83 0z" />
<glyph unicode="&#73;" horiz-adv-x="239" d="M78 667h83v-667l-83 0z" />
<glyph unicode="&#74;" horiz-adv-x="475" d="M54 128q55 -66 126 -66q61 0 97.5 38.5q36.5 38.5 36.5 101.5v465h83v-466q0 -104 -59 -158.5q-59 -54.5 -153 -54.5q-54 0 -97 18.5q-43 18.5 -77 58.5z" />
<glyph unicode="&#75;" horiz-adv-x="601" d="M228 300l-67 -76v-224h-83v667h83v-345l295 345h104l-278 -317l302 -350l-103 0z" />
<glyph unicode="&#76;" horiz-adv-x="510" d="M78 667h83v-593h310v-74l-393 0z" />
<glyph unicode="&#77;" horiz-adv-x="809" d="M648 555l-227 -555h-34l-226 555v-555h-83v667h119l207 -508l208 508h119v-667l-83 0z" />
<glyph unicode="&#78;" horiz-adv-x="708" d="M161 538v-538h-83v667h85l384 -527v527h83v-667l-80 0z" />
<glyph unicode="&#79;" horiz-adv-x="765" d="M382 678q97 0 172 -45q75 -45 117 -123.5q42 -78.5 42 -176.5q0 -98 -42 -176.5q-42 -78.5 -117 -123.5q-75 -45 -172 -45q-97 0 -172.5 45q-75.5 45 -117 123.5q-41.5 78.5 -41.5 176.5q0 98 41.5 176.5q41.5 78.5 117 123.5q75.5 45 172.5 45zt0 0zM382 604q-74 0 -129.5 -35q-55.5 -35 -85.5 -96.5q-30 -61.5 -30 -139.5q0 -77 30 -139q30 -62 86 -97q56 -35 129 -35q73 0 128.5 35q55.5 35 86 97q30.5 62 30.5 139q0 78 -30.5 139.5q-30.5 61.5 -86 96.5t-128.5 35z" />
<glyph unicode="&#80;" horiz-adv-x="587" d="M78 667h268q65 0 112.5 -27q47.5 -27 72 -73q24.5 -46 24.5 -101q0 -55 -25 -101q-25 -46 -72.5 -73q-47.5 -27 -111.5 -27h-185v-265h-83zM336 593h-175v-254h175q59 0 96 35.5q37 35.5 37 91.5q0 56 -37 91.5t-96 35.5z" />
<glyph unicode="&#81;" horiz-adv-x="765" d="M622 87l63 -68l-58 -50l-64 69q-80 -50 -181 -50q-97 0 -172.5 45q-75.5 45 -117 123.5q-41.5 78.5 -41.5 176.5q0 98 41.5 176.5q41.5 78.5 117 123.5q75.5 45 172.5 45q97 0 172 -45q75 -45 117 -123.5q42 -78.5 42 -176.5q0 -73 -23.5 -136q-23.5 -63 -67.5 -110zt0 0zM509 96l-95 103l58 49l94 -101q29 36 45 83.5q16 47.5 16 102.5q0 78 -30.5 139.5q-30.5 61.5 -86 96.5q-55.5 35 -128.5 35q-74 0 -129.5 -35q-55.5 -35 -85.5 -96.5q-30 -61.5 -30 -139.5q0 -77 30 -139q30 -62 86 -97q56 -35 129 -35q71 0 127 34z" />
<glyph unicode="&#82;" horiz-adv-x="608" d="M294 265h-133v-265h-83v667h268q61 0 108.5 -24.5q47.5 -24.5 74 -70.5q26.5 -46 26.5 -106q0 -58 -23.5 -100.5q-23.5 -42.5 -63 -66q-39.5 -23.5 -86.5 -27.5l180 -272h-98zM336 593h-175v-255h175q59 0 96 36q37 36 37 92q0 56 -37 91.5t-96 35.5z" />
<glyph unicode="&#83;" horiz-adv-x="586" d="M87 157q37 -41 91 -68q54 -27 119 -27q81 0 119 34.5q38 34.5 38 80.5q0 37 -22.5 60.5q-22.5 23.5 -55.5 36.5q-33 13 -91 29q-74 19 -118.5 37q-44.5 18 -76 54.5q-31.5 36.5 -31.5 97.5q0 54 30 96q30 42 82 65.5q52 23.5 117 23.5q149 0 237 -93l-50 -61q-36 40 -86 60q-50 20 -107 20q-60 0 -98.5 -29.5q-38.5 -29.5 -38.5 -76.5q0 -31 21.5 -51.5q21.5 -20.5 52.5 -32q31 -11.5 88 -26.5q74 -20 120.5 -39.5q46.5 -19.5 79.5 -59q33 -39.5 33 -104.5q0 -52 -25 -96.5q-25 -44.5 -80.5 -72q-55.5 -27.5 -140.5 -27.5q-83 0 -147.5 28.5q-64.5 28.5 -108.5 77.5z" />
<glyph unicode="&#84;" horiz-adv-x="570" d="M243 593h-211v74h506v-74h-212v-593l-83 0z" />
<glyph unicode="&#85;" horiz-adv-x="700" d="M78 667h83v-406q0 -93 49 -146q49 -53 140 -53q91 0 140 53q49 53 49 146v406h83v-407q0 -127 -69.5 -199.5q-69.5 -72.5 -202.5 -72.5q-133 0 -202.5 72.5q-69.5 72.5 -69.5 198.5z" />
<glyph unicode="&#86;" horiz-adv-x="658" d="M9 667h95l225 -576l225 576h95l-269 -667l-103 0z" />
<glyph unicode="&#87;" horiz-adv-x="883" d="M441 538l-147 -538h-90l-190 667h92l148 -556l153 556h69l153 -556l147 556h92l-190 -667l-90 0z" />
<glyph unicode="&#88;" horiz-adv-x="652" d="M326 284l-213 -284h-101l260 342l-245 325h101l198 -267l197 267h101l-244 -324l259 -343l-100 0z" />
<glyph unicode="&#89;" horiz-adv-x="626" d="M272 282l-263 385h97l207 -310l207 310h97l-262 -385v-282l-83 0z" />
<glyph unicode="&#90;" horiz-adv-x="585" d="M48 69l375 524h-375v74h481v-69l-375 -524h382v-74l-488 0z" />
<glyph unicode="&#97;" horiz-adv-x="527" d="M377 55q-61 -67 -160 -67q-43 0 -81.5 18.5q-38.5 18.5 -63 55q-24.5 36.5 -24.5 86.5q0 51 24.5 87q24.5 36 63 54q38.5 18 81.5 18q103 0 160 -66l0 87q0 48 -34 75q-34 27 -88 27q-44 0 -80 -16.5q-36 -16.5 -68 -50.5l-35 52q39 41 86.5 60.5q47.5 19.5 106.5 19.5q83 0 135 -40q52 -40 52 -123v-332h-75zM377 193q-21 29 -56.5 44.5q-35.5 15.5 -76.5 15.5q-52 0 -85.5 -29.5q-33.5 -29.5 -33.5 -76.5q0 -46 33.5 -75.5q33.5 -29.5 85.5 -29.5q41 0 76.5 15.5q35.5 15.5 56.5 44.5z" />
<glyph unicode="&#98;" horiz-adv-x="575" d="M75 667h75v-257q30 40 72 62.5q42 22.5 91 22.5q63 0 111.5 -31.5q48.5 -31.5 76 -89q27.5 -57.5 27.5 -133.5q0 -77 -27.5 -134.5q-27.5 -57.5 -76 -88q-48.5 -30.5 -111.5 -30.5q-49 0 -92 23q-43 23 -71 61l0 -72h-75zM294 55q72 0 114 52q42 52 42 134q0 82 -42 134.5q-42 52.5 -114 52.5q-43 0 -83.5 -22.5q-40.5 -22.5 -60.5 -55.5l0 -219q20 -32 60.5 -54t83.5 -22z" />
<glyph unicode="&#99;" horiz-adv-x="495" d="M288 495q62 0 104 -22q42 -22 73 -62l-50 -46q-46 63 -123 63q-76 0 -121.5 -52q-45.5 -52 -45.5 -134q0 -82 45.5 -134.5q45.5 -52.5 121.5 -52.5q76 0 123 63l50 -46q-31 -40 -73 -62q-42 -22 -104 -22q-71 0 -125.5 33q-54.5 33 -85 91q-30.5 58 -30.5 130q0 71 30.5 129q30.5 58 85 91t125.5 33z" />
<glyph unicode="&#100;" horiz-adv-x="575" d="M425 72q-28 -38 -71 -61q-43 -23 -92 -23q-63 0 -111.5 30.5q-48.5 30.5 -76 88q-27.5 57.5 -27.5 134.5q0 76 27 133.5q27 57.5 76 89q49 31.5 112 31.5q48 0 90.5 -22.5q42.5 -22.5 72.5 -62.5l0 257h75v-667h-75zM425 350q-21 33 -61.5 55.5q-40.5 22.5 -83.5 22.5q-71 0 -113 -52.5q-42 -52.5 -42 -134.5q0 -82 42 -134q42 -52 113 -52q44 0 84 22q40 22 61 54z" />
<glyph unicode="&#101;" horiz-adv-x="563" d="M285 495q71 0 123.5 -34q52.5 -34 80.5 -93q28 -59 28 -132v-19h-391q5 -71 52 -119q47 -48 122 -48q42 0 81.5 16q39.5 16 67.5 45l36 -49q-74 -74 -192 -74q-71 0 -127 32q-56 32 -87.5 90q-31.5 58 -31.5 132q0 69 31 127q31 58 85 92q54 34 122 34zt0 0zM126 272h317q-1 39 -18.5 76q-17.5 37 -53 61q-35.5 24 -87.5 24q-49 0 -84 -24q-35 -24 -53.5 -61t-20.5 -76z" />
<glyph unicode="&#102;" horiz-adv-x="283" d="M96 417h-80v66h80v37q0 74 38 115.5q38 41.5 102 41.5q46 0 73 -17l-19 -56q-19 11 -43 11q-37 0 -56.5 -24.5q-19.5 -24.5 -19.5 -70.5v-37h98v-66h-98v-417l-75 0z" />
<glyph unicode="&#103;" horiz-adv-x="574" d="M112 -68q29 -35 66.5 -50.5q37.5 -15.5 90.5 -15.5q67 0 111 35.5q44 35.5 44 109.5v69q-27 -38 -70 -62q-43 -24 -92 -24q-63 0 -111.5 30q-48.5 30 -76 86.5q-27.5 56.5 -27.5 133.5q0 76 27 133q27 57 76 87.5q49 30.5 112 30.5q48 0 90 -22.5q42 -22.5 72 -62.5l0 73h75v-469q0 -111 -65 -160.5q-65 -49.5 -165 -49.5q-64 0 -109 15.5q-45 15.5 -86 56.5zM424 350q-20 33 -60 55.5q-40 22.5 -84 22.5q-72 0 -113.5 -51q-41.5 -51 -41.5 -133q0 -81 42 -132.5q42 -51.5 113 -51.5q43 0 83.5 23q40.5 23 60.5 56z" />
<glyph unicode="&#104;" horiz-adv-x="552" d="M402 318q0 60 -28 85q-28 25 -81 25q-41 0 -80.5 -22q-39.5 -22 -62.5 -53l0 -353h-75v667h75v-254q28 33 75 57.5q47 24.5 98 24.5q154 0 154 -154v-341l-75 0z" />
<glyph unicode="&#105;" horiz-adv-x="225" d="M62 615q0 21 15 35.5q15 14.5 35 14.5q21 0 36 -14.5q15 -14.5 15 -35.5q0 -21 -15 -36q-15 -15 -36 -15q-20 0 -35 15q-15 15 -15 36zt0 0zM75 483h75v-483l-75 0z" />
<glyph unicode="&#106;" horiz-adv-x="225" d="M62 615q0 21 15 35.5q15 14.5 35 14.5q21 0 36 -14.5q15 -14.5 15 -35.5q0 -21 -15 -36q-15 -15 -36 -15q-20 0 -35 15q-15 15 -15 36zt0 0zM150 -47q0 -71 -37 -110q-37 -39 -105 -39q-32 0 -54 7l10 63q12 -5 36 -5q75 0 75 84v530l75 0z" />
<glyph unicode="&#107;" horiz-adv-x="514" d="M230 217l-80 -79v-138h-75v667h75v-441l254 257h95l-214 -219l215 -264l-96 0z" />
<glyph unicode="&#108;" horiz-adv-x="225" d="M75 667h75v-667l-75 0z" />
<glyph unicode="&#109;" horiz-adv-x="808" d="M658 328q0 47 -22 73.5q-22 26.5 -67 26.5q-36 0 -72 -22q-36 -22 -56 -52l0 -354h-75v328q0 100 -89 100q-35 0 -70.5 -22q-35.5 -22 -56.5 -53l0 -353h-75v483h75v-70q18 28 63 55q45 27 93 27q53 0 86 -25q33 -25 44 -65q22 36 67 63q45 27 95 27q66 0 100.5 -37q34.5 -37 34.5 -109v-349l-75 0z" />
<glyph unicode="&#110;" horiz-adv-x="551" d="M401 316q0 61 -28 86.5q-28 25.5 -80 25.5q-42 0 -81.5 -22q-39.5 -22 -61.5 -53l0 -353h-75v483h75v-70q28 33 75 57.5q47 24.5 97 24.5q154 0 154 -156v-339l-75 0z" />
<glyph unicode="&#111;" horiz-adv-x="572" d="M47 242q0 70 29.5 128q29.5 58 83.5 91.5q54 33.5 126 33.5q72 0 126 -33.5q54 -33.5 83.5 -91.5q29.5 -58 29.5 -128q0 -70 -29.5 -128q-29.5 -58 -83.5 -92q-54 -34 -126 -34q-72 0 -126 34q-54 34 -83.5 92q-29.5 58 -29.5 128zt0 0zM446 242q0 50 -19 92.5q-19 42.5 -55 68q-36 25.5 -86 25.5q-50 0 -86.5 -25.5q-36.5 -25.5 -55.5 -68q-19 -42.5 -19 -92.5q0 -50 19 -93q19 -43 55.5 -68.5q36.5 -25.5 86.5 -25.5q50 0 86 25.5q36 25.5 55 68.5t19 93z" />
<glyph unicode="&#112;" horiz-adv-x="574" d="M75 -184v667h75v-72q27 38 70 61q43 23 93 23q63 0 112 -30.5q49 -30.5 76 -88q27 -57.5 27 -134.5q0 -77 -27 -134.5q-27 -57.5 -76 -88.5q-49 -31 -112 -31q-49 0 -91.5 22q-42.5 22 -71.5 63l0 -257zM294 428q-43 0 -83.5 -22.5q-40.5 -22.5 -60.5 -54.5l0 -218q20 -33 60.5 -55.5q40.5 -22.5 83.5 -22.5q71 0 113 52.5q42 52.5 42 134.5q0 82 -42 134t-113 52z" />
<glyph unicode="&#113;" horiz-adv-x="574" d="M424 -184v257q-29 -41 -71 -63q-42 -22 -91 -22q-63 0 -112 31q-49 31 -76 88.5q-27 57.5 -27 134.5q0 77 27 134.5q27 57.5 76 88q49 30.5 112 30.5q50 0 92.5 -23q42.5 -23 69.5 -61l0 72h75v-667zM424 351q-20 33 -60 55q-40 22 -84 22q-71 0 -113 -52q-42 -52 -42 -134q0 -82 42 -134.5q42 -52.5 113 -52.5q44 0 84 22.5q40 22.5 60 55.5z" />
<glyph unicode="&#114;" horiz-adv-x="330" d="M75 483h75v-78q31 40 72.5 64q41.5 24 88.5 24l0 -77q-14 3 -30 3q-34 0 -74 -24q-40 -24 -57 -53l0 -342l-75 0z" />
<glyph unicode="&#115;" horiz-adv-x="465" d="M72 118q25 -29 68.5 -49q43.5 -20 90.5 -20q54 0 84 22q30 22 30 58q0 36 -31 53.5q-31 17.5 -93 32.5q-56 13 -90.5 26q-34.5 13 -59.5 41q-25 28 -25 74q0 38 21.5 69.5q21.5 31.5 62 50.5q40.5 19 96.5 19q109 0 179 -70l-35 -52q-23 27 -61 44q-38 17 -83 17q-49 0 -78 -20q-29 -20 -29 -53q0 -32 29.5 -47.5q29.5 -15.5 88.5 -29.5q56 -13 92.5 -27q36.5 -14 62.5 -43.5q26 -29.5 26 -79.5q0 -64 -50 -105q-50 -41 -140 -41q-123 0 -195 76z" />
<glyph unicode="&#116;" horiz-adv-x="294" d="M90 101v316h-80v66h80v132h75v-132h98v-66h-98v-300q0 -28 12.5 -45q12.5 -17 36.5 -17q15 0 29 5.5q14 5.5 22 14.5l22 -56q-33 -31 -90 -31q-53 0 -80 29t-27 84z" />
<glyph unicode="&#117;" horiz-adv-x="551" d="M401 68q-30 -34 -75.5 -57q-45.5 -23 -96.5 -23q-154 0 -154 154v341h75v-318q0 -60 27.5 -85q27.5 -25 80.5 -25q42 0 81.5 21q39.5 21 61.5 52l0 355h75v-483l-75 0z" />
<glyph unicode="&#118;" horiz-adv-x="490" d="M3 483h81l161 -396l160 396h82l-201 -483l-82 0z" />
<glyph unicode="&#119;" horiz-adv-x="734" d="M367 388l-126 -388h-75l-154 483h78l118 -385l127 385h64l127 -385l118 385h78l-154 -483l-75 0z" />
<glyph unicode="&#120;" horiz-adv-x="486" d="M243 198l-145 -198h-86l185 248l-175 235h87l134 -184l134 184h87l-175 -235l186 -248l-87 0z" />
<glyph unicode="&#121;" horiz-adv-x="490" d="M101 -129q26 0 43 11q17 11 29 40l32 73l-202 488h81l161 -396l160 396h82l-242 -581q-21 -51 -56.5 -74q-35.5 -23 -85.5 -24q-30 0 -55 7l12 68q18 -8 41 -8z" />
<glyph unicode="&#122;" horiz-adv-x="472" d="M52 58l266 359h-266v66h364v-57l-268 -361h272v-65l-368 0z" />
<glyph unicode="&#193;" horiz-adv-x="658" d="M498 148h-338l-59 -148h-92l268 667h103l269 -667h-92zM184 222h289l-144 371zM298 723l148 144h78l-169 -144z" />
<glyph unicode="&#258;" horiz-adv-x="658" d="M498 148h-338l-59 -148h-92l268 667h103l269 -667h-92zM184 222h289l-144 371zM153 805l37 32q25 -34 60.5 -53q35.5 -19 78.5 -19q43 0 78.5 19q35.5 19 59.5 53l37 -32q-31 -41 -76.5 -64.5q-45.5 -23.5 -98.5 -23.5q-53 0 -99 23.5t-77 64.5z" />
<glyph unicode="&#194;" horiz-adv-x="658" d="M498 148h-338l-59 -148h-92l268 667h103l269 -667h-92zM184 222h289l-144 371zM329 829l-80 -106h-51l95 144h72l98 -144l-51 0z" />
<glyph unicode="&#196;" horiz-adv-x="658" d="M498 148h-338l-59 -148h-92l268 667h103l269 -667h-92zM184 222h289l-144 371zM180 780q0 19 13.5 32.5q13.5 13.5 32.5 13.5q19 0 32.5 -13.5q13.5 -13.5 13.5 -32.5q0 -20 -13.5 -33.5q-13.5 -13.5 -32.5 -13.5q-19 0 -32.5 14q-13.5 14 -13.5 33zt0 0zM386 780q0 19 14 32.5q14 13.5 33 13.5q19 0 32.5 -13.5q13.5 -13.5 13.5 -32.5q0 -19 -13.5 -33q-13.5 -14 -32.5 -14q-20 0 -33.5 14t-13.5 33z" />
<glyph unicode="&#192;" horiz-adv-x="658" d="M498 148h-338l-59 -148h-92l268 667h103l269 -667h-92zM184 222h289l-144 371zM131 867h78l148 -144l-57 0z" />
<glyph unicode="&#256;" horiz-adv-x="658" d="M498 148h-338l-59 -148h-92l268 667h103l269 -667h-92zM184 222h289l-144 371zM175 787h307v-48l-307 0z" />
<glyph unicode="&#260;" horiz-adv-x="658" d="M540 -94q0 -18 12 -28.5q12 -10.5 30 -10.5q17 0 32 9l20 -45q-27 -17 -68 -17q-40 0 -69 19.5q-29 19.5 -29 55.5q0 32 28.5 61q28.5 29 74.5 50l-14 0l-59 148h-338l-59 -148h-92l268 667h103l269 -667h-15q-44 -19 -69 -43q-25 -24 -25 -51zt0 0zM473 222l-144 371l-145 -371z" />
<glyph unicode="&#197;" horiz-adv-x="658" d="M498 148h-338l-59 -148h-92l268 667h103l269 -667h-92zM184 222h289l-144 371zM329 907q40 0 69 -29q29 -29 29 -70q0 -40 -29 -69q-29 -29 -69 -29q-41 0 -69.5 29q-28.5 29 -28.5 69q0 41 29 70q29 29 69 29zt0 0zM329 867q-24 0 -41 -17q-17 -17 -17 -42q0 -24 17 -41.5q17 -17.5 41 -17.5q24 0 41 17.5q17 17.5 17 41.5q0 25 -16.5 42t-41.5 17z" />
<glyph unicode="&#506;" horiz-adv-x="658" d="M498 148h-338l-59 -148h-92l268 667h103l269 -667h-92zM184 222h289l-144 371zM329 907q40 0 69 -29q29 -29 29 -70q0 -40 -29 -69q-29 -29 -69 -29q-41 0 -69.5 29q-28.5 29 -28.5 69q0 41 29 70q29 29 69 29zt0 0zM329 867q-24 0 -41 -17q-17 -17 -17 -42q0 -24 17 -41.5q17 -17.5 41 -17.5q24 0 41 17.5q17 17.5 17 41.5q0 25 -16.5 42q-16.5 17 -41.5 17zt0 0zM298 935l148 144h78l-169 -144z" />
<glyph unicode="&#195;" horiz-adv-x="658" d="M498 148h-338l-59 -148h-92l268 667h103l269 -667h-92zM184 222h289l-144 371zM266 813q-21 0 -34.5 -21.5q-13.5 -21.5 -13.5 -64.5l-45 0q0 60 25.5 97q25.5 37 71.5 37q26 0 41.5 -13.5q15.5 -13.5 33.5 -39.5q15 -21 24 -30q9 -9 24 -9q21 0 34.5 21.5q13.5 21.5 13.5 64.5l45 0q0 -60 -25.5 -97q-25.5 -37 -71.5 -37q-27 0 -42.5 13.5q-15.5 13.5 -33.5 39.5q-13 20 -22.5 29.5t-24.5 9.5z" />
<glyph unicode="&#7840;" horiz-adv-x="658" d="M498 148h-338l-59 -148h-92l268 667h103l269 -667h-92zM184 222h289l-144 371zM329 -71q19 0 32.5 -14q13.5 -14 13.5 -33q0 -20 -13 -33.5q-13 -13.5 -33 -13.5q-19 0 -33 13.5q-14 13.5 -14 33.5q0 19 14 33t33 14z" />
<glyph unicode="&#7842;" horiz-adv-x="658" d="M498 148h-338l-59 -148h-92l268 667h103l269 -667h-92zM184 222h289l-144 371zM323 883q39 0 65.5 -22.5q26.5 -22.5 26.5 -67.5q0 -19 -5.5 -35q-5.5 -16 -18.5 -34l-51 0q29 32 29 68q0 25 -12.5 37.5q-12.5 12.5 -33.5 12.5q-38 0 -53 -42l-42 13q10 31 35 50.5t60 19.5z" />
<glyph unicode="&#7844;" horiz-adv-x="658" d="M431 780l148 108h78l-169 -108zM329 785l-80 -80h-51l95 108h72l98 -108h-51zM498 148h-338l-59 -148h-92l268 667h103l269 -667h-92zM184 222h289l-144 371z" />
<glyph unicode="&#7852;" horiz-adv-x="658" d="M498 148h-338l-59 -148h-92l268 667h103l269 -667h-92zM184 222h289l-144 371zM329 829l-80 -106h-51l95 144h72l98 -144h-51zM329 -71q19 0 32.5 -14q13.5 -14 13.5 -33q0 -20 -13 -33.5q-13 -13.5 -33 -13.5q-19 0 -33 13.5q-14 13.5 -14 33.5q0 19 14 33t33 14z" />
<glyph unicode="&#7846;" horiz-adv-x="658" d="M5 888h78l148 -108h-57zM329 785l-80 -80h-51l95 108h72l98 -108h-51zM498 148h-338l-59 -148h-92l268 667h103l269 -667h-92zM184 222h289l-144 371z" />
<glyph unicode="&#7848;" horiz-adv-x="658" d="M414 899q39 0 65.5 -17q26.5 -17 26.5 -50q0 -15 -5.5 -27q-5.5 -12 -18.5 -25l-51 0q29 23 29 51q0 18 -12.5 27.5q-12.5 9.5 -33.5 9.5q-38 0 -53 -31l-42 10q10 23 35 37.5q25 14.5 60 14.5zt0 0zM329 785l-80 -80h-51l95 108h72l98 -108h-51zM498 148h-338l-59 -148h-92l268 667h103l269 -667h-92zM184 222h289l-144 371z" />
<glyph unicode="&#7854;" horiz-adv-x="658" d="M298 807l148 108h78l-169 -108zM153 781l37 28q25 -29 60.5 -45.5q35.5 -16.5 78.5 -16.5q43 0 79 16q36 16 59 46l37 -28q-30 -35 -76 -54.5q-46 -19.5 -99 -19.5q-53 0 -99 19.5q-46 19.5 -77 54.5zt0 0zM498 148h-338l-59 -148h-92l268 667h103l269 -667h-92zM184 222h289l-144 371z" />
<glyph unicode="&#7850;" horiz-adv-x="658" d="M266 894q-21 0 -34.5 -16.5q-13.5 -16.5 -13.5 -48.5l-45 0q0 45 25.5 73q25.5 28 71.5 28q26 0 41.5 -10q15.5 -10 33.5 -30q14 -15 23.5 -22q9.5 -7 24.5 -7q22 0 35 16q13 16 13 48l45 0q0 -45 -25.5 -72.5q-25.5 -27.5 -71.5 -27.5q-26 0 -42 10q-16 10 -34 29q-13 16 -22.5 23q-9.5 7 -24.5 7zt0 0zM329 785l-80 -80h-51l95 108h72l98 -108h-51zM498 148h-338l-59 -148h-92l268 667h103l269 -667h-92zM184 222h289l-144 371z" />
<glyph unicode="&#7856;" horiz-adv-x="658" d="M131 915h78l148 -108h-57zM153 781l37 28q25 -29 60.5 -45.5q35.5 -16.5 78.5 -16.5q43 0 79 16q36 16 59 46l37 -28q-30 -35 -76 -54.5q-46 -19.5 -99 -19.5q-53 0 -99 19.5q-46 19.5 -77 54.5zt0 0zM498 148h-338l-59 -148h-92l268 667h103l269 -667h-92zM184 222h289l-144 371z" />
<glyph unicode="&#7858;" horiz-adv-x="658" d="M323 927q39 0 65.5 -17q26.5 -17 26.5 -50q0 -15 -5.5 -27q-5.5 -12 -18.5 -25l-51 0q29 23 29 51q0 18 -12.5 27.5q-12.5 9.5 -33.5 9.5q-38 0 -53 -31l-42 10q10 23 35 37.5q25 14.5 60 14.5zt0 0zM153 781l37 28q25 -29 60.5 -45.5q35.5 -16.5 78.5 -16.5q43 0 79 16q36 16 59 46l37 -28q-30 -35 -76 -54.5q-46 -19.5 -99 -19.5q-53 0 -99 19.5q-46 19.5 -77 54.5zt0 0zM498 148h-338l-59 -148h-92l268 667h103l269 -667h-92zM184 222h289l-144 371z" />
<glyph unicode="&#7860;" horiz-adv-x="658" d="M266 863q-21 0 -34.5 -16.5q-13.5 -16.5 -13.5 -48.5l-45 0q0 45 25.5 73q25.5 28 71.5 28q26 0 41.5 -10q15.5 -10 33.5 -30q14 -15 23.5 -22q9.5 -7 24.5 -7q22 0 35 16q13 16 13 48l45 0q0 -45 -25.5 -72.5q-25.5 -27.5 -71.5 -27.5q-26 0 -42 10q-16 10 -34 29q-13 16 -22.5 23q-9.5 7 -24.5 7zt0 0zM153 767l37 24q25 -25 60.5 -39.5q35.5 -14.5 78.5 -14.5q43 0 79 14q36 14 59 40l37 -24q-30 -31 -76 -48.5q-46 -17.5 -99 -17.5q-53 0 -99 17.5q-46 17.5 -77 48.5zt0 0zM498 148h-338l-59 -148h-92l268 667h103l269 -667h-92zM184 222h289l-144 371z" />
<glyph unicode="&#7862;" horiz-adv-x="658" d="M498 148h-338l-59 -148h-92l268 667h103l269 -667h-92zM184 222h289l-144 371zM153 805l37 32q25 -34 60.5 -53q35.5 -19 78.5 -19q43 0 78.5 19q35.5 19 59.5 53l37 -32q-31 -41 -76.5 -64.5q-45.5 -23.5 -98.5 -23.5q-53 0 -99 23.5q-46 23.5 -77 64.5zt0 0zM329 -71q19 0 32.5 -14q13.5 -14 13.5 -33q0 -20 -13 -33.5q-13 -13.5 -33 -13.5q-19 0 -33 13.5q-14 13.5 -14 33.5q0 19 14 33t33 14z" />
<glyph unicode="&#198;" horiz-adv-x="947" d="M456 148h-266l-91 -148h-92l416 667h470v-74h-354v-215h347v-74h-347v-230h354v-74h-437zM231 222h225l0 371z" />
<glyph unicode="&#508;" horiz-adv-x="947" d="M456 148h-266l-91 -148h-92l416 667h470v-74h-354v-215h347v-74h-347v-230h354v-74h-437zM231 222h225v371zM465 723l148 144h78l-169 -144z" />
<glyph unicode="&#7682;" horiz-adv-x="629" d="M78 667h297q86 0 136.5 -47q50.5 -47 50.5 -123q0 -60 -34 -101.5q-34 -41.5 -83 -51.5q35 -5 65 -29q30 -24 47.5 -60q17.5 -36 17.5 -75q0 -81 -51.5 -130.5q-51.5 -49.5 -141.5 -49.5h-304zM361 378q55 0 85 30q30 30 30 77q0 47 -30.5 77.5q-30.5 30.5 -84.5 30.5h-200v-215zM365 74q58 0 91 31q33 31 33 84q0 49 -32.5 82q-32.5 33 -91.5 33h-204v-230zM311 825q19 0 32.5 -13.5q13.5 -13.5 13.5 -33.5q0 -20 -13.5 -33.5q-13.5 -13.5 -32.5 -13.5q-19 0 -33 14q-14 14 -14 33q0 19 14 33t33 14z" />
<glyph unicode="&#262;" horiz-adv-x="676" d="M51 333q0 100 45 179q45 79 123 122.5q78 43.5 172 43.5q86 0 149.5 -35.5q63.5 -35.5 106.5 -96.5l-70 -39q-29 43 -78.5 70q-49.5 27 -107.5 27q-71 0 -129 -34.5q-58 -34.5 -91.5 -96.5q-33.5 -62 -33.5 -140q0 -78 33.5 -139.5q33.5 -61.5 91.5 -96.5q58 -35 129 -35q58 0 107.5 26.5q49.5 26.5 78.5 70.5l71 -39q-97 -132 -257 -132q-94 0 -172 43.5q-78 43.5 -123 122.5q-45 79 -45 179zt0 0zM360 723l148 144h78l-169 -144z" />
<glyph unicode="&#199;" horiz-adv-x="676" d="M406 -12l-17 -43q16 11 37 11q29 0 47.5 -18q18.5 -18 18.5 -47q0 -37 -30 -59.5q-30 -22.5 -74 -22.5q-31 0 -58 8.5q-27 8.5 -43 21.5l19 38q35 -29 80 -29q26 0 43.5 11.5q17.5 11.5 17.5 32.5q0 15 -9.5 24q-9.5 9 -27.5 9q-10 0 -20.5 -4.5q-10.5 -4.5 -17.5 -12.5l-33 19l23 62q-87 7 -158 52.5q-71 45.5 -112 121q-41 75.5 -41 170.5q0 100 45 179q45 79 123 122.5q78 43.5 172 43.5q86 0 149.5 -35.5q63.5 -35.5 106.5 -96.5l-70 -39q-29 43 -78.5 70q-49.5 27 -107.5 27q-71 0 -129 -34.5q-58 -34.5 -91.5 -96.5q-33.5 -62 -33.5 -140q0 -78 33.5 -139.5q33.5 -61.5 91.5 -96.5q58 -35 129 -35q58 0 107.5 26.5q49.5 26.5 78.5 70.5l71 -39q-93 -125 -242 -132z" />
<glyph unicode="&#264;" horiz-adv-x="676" d="M51 333q0 100 45 179q45 79 123 122.5q78 43.5 172 43.5q86 0 149.5 -35.5q63.5 -35.5 106.5 -96.5l-70 -39q-29 43 -78.5 70q-49.5 27 -107.5 27q-71 0 -129 -34.5q-58 -34.5 -91.5 -96.5q-33.5 -62 -33.5 -140q0 -78 33.5 -139.5q33.5 -61.5 91.5 -96.5q58 -35 129 -35q58 0 107.5 26.5q49.5 26.5 78.5 70.5l71 -39q-97 -132 -257 -132q-94 0 -172 43.5q-78 43.5 -123 122.5q-45 79 -45 179zt0 0zM391 829l-80 -106h-51l95 144h72l98 -144l-51 0z" />
<glyph unicode="&#266;" horiz-adv-x="676" d="M51 333q0 100 45 179q45 79 123 122.5q78 43.5 172 43.5q86 0 149.5 -35.5q63.5 -35.5 106.5 -96.5l-70 -39q-29 43 -78.5 70q-49.5 27 -107.5 27q-71 0 -129 -34.5q-58 -34.5 -91.5 -96.5q-33.5 -62 -33.5 -140q0 -78 33.5 -139.5q33.5 -61.5 91.5 -96.5q58 -35 129 -35q58 0 107.5 26.5q49.5 26.5 78.5 70.5l71 -39q-97 -132 -257 -132q-94 0 -172 43.5q-78 43.5 -123 122.5q-45 79 -45 179zt0 0zM391 825q19 0 32.5 -13.5q13.5 -13.5 13.5 -33.5q0 -20 -13.5 -33.5q-13.5 -13.5 -32.5 -13.5q-19 0 -33 14q-14 14 -14 33q0 19 14 33t33 14z" />
<glyph unicode="&#268;" horiz-adv-x="676" d="M51 333q0 100 45 179q45 79 123 122.5q78 43.5 172 43.5q86 0 149.5 -35.5q63.5 -35.5 106.5 -96.5l-70 -39q-29 43 -78.5 70q-49.5 27 -107.5 27q-71 0 -129 -34.5q-58 -34.5 -91.5 -96.5q-33.5 -62 -33.5 -140q0 -78 33.5 -139.5q33.5 -61.5 91.5 -96.5q58 -35 129 -35q58 0 107.5 26.5q49.5 26.5 78.5 70.5l71 -39q-97 -132 -257 -132q-94 0 -172 43.5q-78 43.5 -123 122.5q-45 79 -45 179zt0 0zM257 867h51l83 -106l80 106h51l-95 -144l-72 0z" />
<glyph unicode="&#270;" horiz-adv-x="700" d="M78 667h228q101 0 179 -43.5q78 -43.5 120.5 -120q42.5 -76.5 42.5 -170.5q0 -95 -42.5 -170.5q-42.5 -75.5 -120.5 -119q-78 -43.5 -179 -43.5h-228zM306 74q79 0 137 34.5q58 34.5 88.5 93.5q30.5 59 30.5 131q0 73 -30 132q-30 59 -88 93.5q-58 34.5 -138 34.5h-145v-519zM218 867h51l83 -106l80 106h51l-95 -144l-72 0z" />
<glyph unicode="&#272;" horiz-adv-x="728" d="M676 333q0 -95 -42.5 -170.5q-42.5 -75.5 -120.5 -119q-78 -43.5 -179 -43.5h-228v298h-96v63h96v306h228q101 0 179 -43.5q78 -43.5 120.5 -120q42.5 -76.5 42.5 -170.5zt0 0zM590 333q0 73 -30 132q-30 59 -88 93.5q-58 34.5 -138 34.5h-145v-232h170v-63h-170v-224h145q79 0 137 34.5q58 34.5 88.5 93.5t30.5 131z" />
<glyph unicode="&#7690;" horiz-adv-x="700" d="M78 667h228q101 0 179 -43.5q78 -43.5 120.5 -120q42.5 -76.5 42.5 -170.5q0 -95 -42.5 -170.5q-42.5 -75.5 -120.5 -119q-78 -43.5 -179 -43.5h-228zM306 74q79 0 137 34.5q58 34.5 88.5 93.5q30.5 59 30.5 131q0 73 -30 132q-30 59 -88 93.5q-58 34.5 -138 34.5h-145v-519zM352 825q19 0 32.5 -13.5q13.5 -13.5 13.5 -33.5q0 -20 -13.5 -33.5q-13.5 -13.5 -32.5 -13.5q-19 0 -33 14q-14 14 -14 33q0 19 14 33t33 14z" />
<glyph unicode="&#201;" horiz-adv-x="569" d="M78 667h437v-74h-354v-215h347v-74h-347v-230h354v-74h-437zM271 723l148 144h78l-169 -144z" />
<glyph unicode="&#276;" horiz-adv-x="569" d="M78 667h437v-74h-354v-215h347v-74h-347v-230h354v-74h-437zM126 805l37 32q25 -34 60.5 -53q35.5 -19 78.5 -19q43 0 78.5 19q35.5 19 59.5 53l37 -32q-31 -41 -76.5 -64.5q-45.5 -23.5 -98.5 -23.5q-53 0 -99 23.5t-77 64.5z" />
<glyph unicode="&#202;" horiz-adv-x="569" d="M78 667h437v-74h-354v-215h347v-74h-347v-230h354v-74h-437zM302 829l-80 -106h-51l95 144h72l98 -144l-51 0z" />
<glyph unicode="&#203;" horiz-adv-x="569" d="M78 667h437v-74h-354v-215h347v-74h-347v-230h354v-74h-437zM153 780q0 19 13.5 32.5q13.5 13.5 32.5 13.5q19 0 32.5 -13.5q13.5 -13.5 13.5 -32.5q0 -20 -13.5 -33.5q-13.5 -13.5 -32.5 -13.5q-19 0 -32.5 14q-13.5 14 -13.5 33zt0 0zM359 780q0 19 14 32.5q14 13.5 33 13.5q19 0 32.5 -13.5q13.5 -13.5 13.5 -32.5q0 -19 -13.5 -33q-13.5 -14 -32.5 -14q-20 0 -33.5 14t-13.5 33z" />
<glyph unicode="&#278;" horiz-adv-x="569" d="M78 667h437v-74h-354v-215h347v-74h-347v-230h354v-74h-437zM302 825q19 0 32.5 -13.5q13.5 -13.5 13.5 -33.5q0 -20 -13.5 -33.5q-13.5 -13.5 -32.5 -13.5q-19 0 -33 14q-14 14 -14 33q0 19 14 33t33 14z" />
<glyph unicode="&#200;" horiz-adv-x="569" d="M78 667h437v-74h-354v-215h347v-74h-347v-230h354v-74h-437zM104 867h78l148 -144l-57 0z" />
<glyph unicode="&#274;" horiz-adv-x="569" d="M78 667h437v-74h-354v-215h347v-74h-347v-230h354v-74h-437zM148 787h307v-48l-307 0z" />
<glyph unicode="&#280;" horiz-adv-x="569" d="M161 593v-215h347v-74h-347v-230h354v-74q-44 -19 -69 -43q-25 -24 -25 -51q0 -18 12 -28.5q12 -10.5 30 -10.5q17 0 32 9l20 -45q-27 -17 -68 -17q-40 0 -69 19.5q-29 19.5 -29 55.5q0 32 28.5 61q28.5 29 74.5 50l-374 0v667h437l0 -74z" />
<glyph unicode="&#282;" horiz-adv-x="569" d="M78 667h437v-74h-354v-215h347v-74h-347v-230h354v-74h-437zM168 867h51l83 -106l80 106h51l-95 -144l-72 0z" />
<glyph unicode="&#7864;" horiz-adv-x="569" d="M78 667h437v-74h-354v-215h347v-74h-347v-230h354v-74h-437zM302 -71q19 0 32.5 -14q13.5 -14 13.5 -33q0 -20 -13 -33.5q-13 -13.5 -33 -13.5q-19 0 -33 13.5q-14 13.5 -14 33.5q0 19 14 33t33 14z" />
<glyph unicode="&#7866;" horiz-adv-x="569" d="M78 667h437v-74h-354v-215h347v-74h-347v-230h354v-74h-437zM296 883q39 0 65.5 -22.5q26.5 -22.5 26.5 -67.5q0 -19 -5.5 -35q-5.5 -16 -18.5 -34l-51 0q29 32 29 68q0 25 -12.5 37.5q-12.5 12.5 -33.5 12.5q-38 0 -53 -42l-42 13q10 31 35 50.5t60 19.5z" />
<glyph unicode="&#7868;" horiz-adv-x="569" d="M78 667h437v-74h-354v-215h347v-74h-347v-230h354v-74h-437zM239 813q-21 0 -34.5 -21.5q-13.5 -21.5 -13.5 -64.5l-45 0q0 60 25.5 97q25.5 37 71.5 37q26 0 41.5 -13.5q15.5 -13.5 33.5 -39.5q15 -21 24 -30q9 -9 24 -9q21 0 34.5 21.5q13.5 21.5 13.5 64.5l45 0q0 -60 -25.5 -97q-25.5 -37 -71.5 -37q-27 0 -42.5 13.5q-15.5 13.5 -33.5 39.5q-13 20 -22.5 29.5t-24.5 9.5z" />
<glyph unicode="&#7870;" horiz-adv-x="569" d="M404 780l148 108h78l-169 -108zM302 785l-80 -80h-51l95 108h72l98 -108h-51zM78 667h437v-74h-354v-215h347v-74h-347v-230h354v-74l-437 0z" />
<glyph unicode="&#7872;" horiz-adv-x="569" d="M-22 888h78l148 -108h-57zM302 785l-80 -80h-51l95 108h72l98 -108h-51zM78 667h437v-74h-354v-215h347v-74h-347v-230h354v-74l-437 0z" />
<glyph unicode="&#7874;" horiz-adv-x="569" d="M387 899q39 0 65.5 -17q26.5 -17 26.5 -50q0 -15 -5.5 -27q-5.5 -12 -18.5 -25l-51 0q29 23 29 51q0 18 -12.5 27.5q-12.5 9.5 -33.5 9.5q-38 0 -53 -31l-42 10q10 23 35 37.5q25 14.5 60 14.5zt0 0zM302 785l-80 -80h-51l95 108h72l98 -108h-51zM78 667h437v-74h-354v-215h347v-74h-347v-230h354v-74l-437 0z" />
<glyph unicode="&#7876;" horiz-adv-x="569" d="M239 894q-21 0 -34.5 -16.5q-13.5 -16.5 -13.5 -48.5l-45 0q0 45 25.5 73q25.5 28 71.5 28q26 0 41.5 -10q15.5 -10 33.5 -30q14 -15 23.5 -22q9.5 -7 24.5 -7q22 0 35 16q13 16 13 48l45 0q0 -45 -25.5 -72.5q-25.5 -27.5 -71.5 -27.5q-26 0 -42 10q-16 10 -34 29q-13 16 -22.5 23q-9.5 7 -24.5 7zt0 0zM302 785l-80 -80h-51l95 108h72l98 -108h-51zM78 667h437v-74h-354v-215h347v-74h-347v-230h354v-74l-437 0z" />
<glyph unicode="&#7878;" horiz-adv-x="569" d="M78 667h437v-74h-354v-215h347v-74h-347v-230h354v-74h-437zM302 829l-80 -106h-51l95 144h72l98 -144h-51zM302 -71q19 0 32.5 -14q13.5 -14 13.5 -33q0 -20 -13 -33.5q-13 -13.5 -33 -13.5q-19 0 -33 13.5q-14 13.5 -14 33.5q0 19 14 33t33 14z" />
<glyph unicode="&#7710;" horiz-adv-x="550" d="M78 667h437v-74h-354v-215h347v-74h-347v-304h-83zM301 825q19 0 32.5 -13.5q13.5 -13.5 13.5 -33.5q0 -20 -13.5 -33.5q-13.5 -13.5 -32.5 -13.5q-19 0 -33 14q-14 14 -14 33q0 19 14 33t33 14z" />
<glyph unicode="&#284;" horiz-adv-x="713" d="M394 678q158 0 259 -125l-66 -41q-32 42 -83.5 67q-51.5 25 -109.5 25q-72 0 -131 -34.5q-59 -34.5 -92.5 -96.5q-33.5 -62 -33.5 -140q0 -78 33.5 -140q33.5 -62 92.5 -97q59 -35 131 -35q55 0 102.5 21.5q47.5 21.5 76.5 50.5l0 136h-229v74h312v-241q-48 -54 -115.5 -84.5q-67.5 -30.5 -146.5 -30.5q-95 0 -173.5 43.5q-78.5 43.5 -124 122.5q-45.5 79 -45.5 180q0 101 45.5 179.5q45.5 78.5 124 122q78.5 43.5 173.5 43.5zt0 0zM393 829l-80 -106h-51l95 144h72l98 -144l-51 0z" />
<glyph unicode="&#286;" horiz-adv-x="713" d="M394 678q158 0 259 -125l-66 -41q-32 42 -83.5 67q-51.5 25 -109.5 25q-72 0 -131 -34.5q-59 -34.5 -92.5 -96.5q-33.5 -62 -33.5 -140q0 -78 33.5 -140q33.5 -62 92.5 -97q59 -35 131 -35q55 0 102.5 21.5q47.5 21.5 76.5 50.5l0 136h-229v74h312v-241q-48 -54 -115.5 -84.5q-67.5 -30.5 -146.5 -30.5q-95 0 -173.5 43.5q-78.5 43.5 -124 122.5q-45.5 79 -45.5 180q0 101 45.5 179.5q45.5 78.5 124 122q78.5 43.5 173.5 43.5zt0 0zM217 805l37 32q25 -34 60.5 -53q35.5 -19 78.5 -19q43 0 78.5 19q35.5 19 59.5 53l37 -32q-31 -41 -76.5 -64.5q-45.5 -23.5 -98.5 -23.5q-53 0 -99 23.5t-77 64.5z" />
<glyph unicode="&#288;" horiz-adv-x="713" d="M394 678q158 0 259 -125l-66 -41q-32 42 -83.5 67q-51.5 25 -109.5 25q-72 0 -131 -34.5q-59 -34.5 -92.5 -96.5q-33.5 -62 -33.5 -140q0 -78 33.5 -140q33.5 -62 92.5 -97q59 -35 131 -35q55 0 102.5 21.5q47.5 21.5 76.5 50.5l0 136h-229v74h312v-241q-48 -54 -115.5 -84.5q-67.5 -30.5 -146.5 -30.5q-95 0 -173.5 43.5q-78.5 43.5 -124 122.5q-45.5 79 -45.5 180q0 101 45.5 179.5q45.5 78.5 124 122q78.5 43.5 173.5 43.5zt0 0zM393 825q19 0 32.5 -13.5q13.5 -13.5 13.5 -33.5q0 -20 -13.5 -33.5q-13.5 -13.5 -32.5 -13.5q-19 0 -33 14q-14 14 -14 33q0 19 14 33t33 14z" />
<glyph unicode="&#290;" horiz-adv-x="713" d="M394 678q158 0 259 -125l-66 -41q-32 42 -83.5 67q-51.5 25 -109.5 25q-72 0 -131 -34.5q-59 -34.5 -92.5 -96.5q-33.5 -62 -33.5 -140q0 -78 33.5 -140q33.5 -62 92.5 -97q59 -35 131 -35q55 0 102.5 21.5q47.5 21.5 76.5 50.5l0 136h-229v74h312v-241q-48 -54 -115.5 -84.5q-67.5 -30.5 -146.5 -30.5q-95 0 -173.5 43.5q-78.5 43.5 -124 122.5q-45.5 79 -45.5 180q0 101 45.5 179.5q45.5 78.5 124 122q78.5 43.5 173.5 43.5zt0 0zM343 -246q23 15 39.5 39.5q16.5 24.5 18.5 46.5q-6 -2 -11 -2q-18 0 -30 12.5q-12 12.5 -12 31.5q0 20 13.5 33.5q13.5 13.5 32.5 13.5q22 0 37.5 -18q15.5 -18 15.5 -49q0 -39 -20 -75q-20 -36 -51 -59z" />
<glyph unicode="&#486;" horiz-adv-x="713" d="M394 678q158 0 259 -125l-66 -41q-32 42 -83.5 67q-51.5 25 -109.5 25q-72 0 -131 -34.5q-59 -34.5 -92.5 -96.5q-33.5 -62 -33.5 -140q0 -78 33.5 -140q33.5 -62 92.5 -97q59 -35 131 -35q55 0 102.5 21.5q47.5 21.5 76.5 50.5l0 136h-229v74h312v-241q-48 -54 -115.5 -84.5q-67.5 -30.5 -146.5 -30.5q-95 0 -173.5 43.5q-78.5 43.5 -124 122.5q-45.5 79 -45.5 180q0 101 45.5 179.5q45.5 78.5 124 122q78.5 43.5 173.5 43.5zt0 0zM259 867h51l83 -106l80 106h51l-95 -144l-72 0z" />
<glyph unicode="&#294;" horiz-adv-x="731" d="M723 498h-79v-498h-83v306h-390v-306h-83v498h-78v48h78v121h83v-121h390v121h83v-121h79zM561 498h-390v-118l390 0z" />
<glyph unicode="&#292;" horiz-adv-x="712" d="M551 306h-390v-306h-83v667h83v-287h390v287h83v-667h-83zM356 829l-80 -106h-51l95 144h72l98 -144l-51 0z" />
<glyph unicode="&#7714;" horiz-adv-x="712" d="M551 306h-390v-306h-83v667h83v-287h390v287h83v-667h-83zM356 825q19 0 32.5 -13.5q13.5 -13.5 13.5 -33.5q0 -20 -13.5 -33.5q-13.5 -13.5 -32.5 -13.5q-19 0 -33 14q-14 14 -14 33q0 19 14 33t33 14z" />
<glyph unicode="&#205;" horiz-adv-x="239" d="M78 667h83v-667h-83zM89 723l148 144h78l-169 -144z" />
<glyph unicode="&#300;" horiz-adv-x="239" d="M78 667h83v-667h-83zM-56 805l37 32q25 -34 60.5 -53q35.5 -19 78.5 -19q43 0 78.5 19q35.5 19 59.5 53l37 -32q-31 -41 -76.5 -64.5q-45.5 -23.5 -98.5 -23.5q-53 0 -99 23.5t-77 64.5z" />
<glyph unicode="&#206;" horiz-adv-x="239" d="M78 667h83v-667h-83zM120 829l-80 -106h-51l95 144h72l98 -144l-51 0z" />
<glyph unicode="&#207;" horiz-adv-x="239" d="M78 667h83v-667h-83zM-29 780q0 19 13.5 32.5q13.5 13.5 32.5 13.5q19 0 32.5 -13.5q13.5 -13.5 13.5 -32.5q0 -20 -13.5 -33.5q-13.5 -13.5 -32.5 -13.5q-19 0 -32.5 14q-13.5 14 -13.5 33zt0 0zM177 780q0 19 14 32.5q14 13.5 33 13.5q19 0 32.5 -13.5q13.5 -13.5 13.5 -32.5q0 -19 -13.5 -33q-13.5 -14 -32.5 -14q-20 0 -33.5 14t-13.5 33z" />
<glyph unicode="&#304;" horiz-adv-x="239" d="M78 667h83v-667h-83zM120 825q19 0 32.5 -13.5q13.5 -13.5 13.5 -33.5q0 -20 -13.5 -33.5q-13.5 -13.5 -32.5 -13.5q-19 0 -33 14q-14 14 -14 33q0 19 14 33t33 14z" />
<glyph unicode="&#204;" horiz-adv-x="239" d="M78 667h83v-667h-83zM-78 867h78l148 -144l-57 0z" />
<glyph unicode="&#298;" horiz-adv-x="239" d="M78 667h83v-667h-83zM-34 787h307v-48l-307 0z" />
<glyph unicode="&#302;" horiz-adv-x="239" d="M67 -94q0 -18 12 -28.5q12 -10.5 30 -10.5q17 0 32 9l20 -45q-27 -17 -68 -17q-40 0 -69 19.5q-29 19.5 -29 55.5q0 32 28.5 61q28.5 29 74.5 50l-20 0v667h83v-667q-44 -19 -69 -43t-25 -51z" />
<glyph unicode="&#296;" horiz-adv-x="239" d="M78 667h83v-667h-83zM57 813q-21 0 -34.5 -21.5q-13.5 -21.5 -13.5 -64.5l-45 0q0 60 25.5 97q25.5 37 71.5 37q26 0 41.5 -13.5q15.5 -13.5 33.5 -39.5q15 -21 24 -30q9 -9 24 -9q21 0 34.5 21.5q13.5 21.5 13.5 64.5l45 0q0 -60 -25.5 -97q-25.5 -37 -71.5 -37q-27 0 -42.5 13.5q-15.5 13.5 -33.5 39.5q-13 20 -22.5 29.5t-24.5 9.5z" />
<glyph unicode="&#7880;" horiz-adv-x="239" d="M78 667h83v-667h-83zM114 883q39 0 65.5 -22.5q26.5 -22.5 26.5 -67.5q0 -19 -5.5 -35q-5.5 -16 -18.5 -34l-51 0q29 32 29 68q0 25 -12.5 37.5q-12.5 12.5 -33.5 12.5q-38 0 -53 -42l-42 13q10 31 35 50.5t60 19.5z" />
<glyph unicode="&#7882;" horiz-adv-x="239" d="M78 667h83v-667h-83zM120 -71q19 0 32.5 -14q13.5 -14 13.5 -33q0 -20 -13 -33.5q-13 -13.5 -33 -13.5q-19 0 -33 13.5q-14 13.5 -14 33.5q0 19 14 33t33 14z" />
<glyph unicode="&#306;" horiz-adv-x="714" d="M78 667h83v-667h-83zM293 128q55 -66 126 -66q61 0 97.5 38.5q36.5 38.5 36.5 101.5v465h83v-466q0 -104 -59 -158.5q-59 -54.5 -153 -54.5q-54 0 -97 18.5q-43 18.5 -77 58.5z" />
<glyph unicode="&#308;" horiz-adv-x="475" d="M54 128q55 -66 126 -66q61 0 97.5 38.5q36.5 38.5 36.5 101.5v465h83v-466q0 -104 -59 -158.5q-59 -54.5 -153 -54.5q-54 0 -97 18.5q-43 18.5 -77 58.5zM357 829l-80 -106h-51l95 144h72l98 -144l-51 0z" />
<glyph unicode="&#310;" horiz-adv-x="601" d="M228 300l-67 -76v-224h-83v667h83v-345l295 345h104l-278 -317l302 -350h-103zM259 -246q23 15 39.5 39.5q16.5 24.5 18.5 46.5q-6 -2 -11 -2q-18 0 -30 12.5q-12 12.5 -12 31.5q0 20 13.5 33.5q13.5 13.5 32.5 13.5q22 0 37.5 -18q15.5 -18 15.5 -49q0 -39 -20 -75q-20 -36 -51 -59z" />
<glyph unicode="&#313;" horiz-adv-x="510" d="M78 667h83v-593h310v-74h-393zM244 723l148 144h78l-169 -144z" />
<glyph unicode="&#317;" horiz-adv-x="510" d="M78 667h83v-593h310v-74h-393zM250 505q23 15 39.5 39.5q16.5 24.5 18.5 46.5q-6 -2 -11 -2q-18 0 -30 12.5q-12 12.5 -12 31.5q0 20 13.5 33.5q13.5 13.5 32.5 13.5q22 0 37.5 -18q15.5 -18 15.5 -49q0 -39 -20 -75q-20 -36 -51 -59z" />
<glyph unicode="&#315;" horiz-adv-x="510" d="M78 667h83v-593h310v-74h-393zM224 -246q23 15 39.5 39.5q16.5 24.5 18.5 46.5q-6 -2 -11 -2q-18 0 -30 12.5q-12 12.5 -12 31.5q0 20 13.5 33.5q13.5 13.5 32.5 13.5q22 0 37.5 -18q15.5 -18 15.5 -49q0 -39 -20 -75q-20 -36 -51 -59z" />
<glyph unicode="&#319;" horiz-adv-x="510" d="M78 667h83v-593h310v-74h-393zM314 341q0 23 16.5 39q16.5 16 38.5 16q23 0 39 -16q16 -16 16 -39q0 -22 -16.5 -38q-16.5 -16 -38.5 -16q-22 0 -38.5 16t-16.5 38z" />
<glyph unicode="&#321;" horiz-adv-x="529" d="M490 74v-74h-393v271l-87 -50v72l87 50v324h83v-276l97 56v-72l-97 -56l0 -245z" />
<glyph unicode="&#323;" horiz-adv-x="708" d="M161 538v-538h-83v667h85l384 -527v527h83v-667h-80zM323 723l148 144h78l-169 -144z" />
<glyph unicode="&#327;" horiz-adv-x="708" d="M161 538v-538h-83v667h85l384 -527v527h83v-667h-80zM220 867h51l83 -106l80 106h51l-95 -144l-72 0z" />
<glyph unicode="&#325;" horiz-adv-x="708" d="M161 538v-538h-83v667h85l384 -527v527h83v-667h-80zM298 -246q23 15 39.5 39.5q16.5 24.5 18.5 46.5q-6 -2 -11 -2q-18 0 -30 12.5q-12 12.5 -12 31.5q0 20 13.5 33.5q13.5 13.5 32.5 13.5q22 0 37.5 -18q15.5 -18 15.5 -49q0 -39 -20 -75q-20 -36 -51 -59z" />
<glyph unicode="&#209;" horiz-adv-x="708" d="M161 538v-538h-83v667h85l384 -527v527h83v-667h-80zM291 813q-21 0 -34.5 -21.5q-13.5 -21.5 -13.5 -64.5l-45 0q0 60 25.5 97q25.5 37 71.5 37q26 0 41.5 -13.5q15.5 -13.5 33.5 -39.5q15 -21 24 -30q9 -9 24 -9q21 0 34.5 21.5q13.5 21.5 13.5 64.5l45 0q0 -60 -25.5 -97q-25.5 -37 -71.5 -37q-27 0 -42.5 13.5q-15.5 13.5 -33.5 39.5q-13 20 -22.5 29.5t-24.5 9.5z" />
<glyph unicode="&#413;" horiz-adv-x="708" d="M630 667v-667h-80l-389 538v-521q0 -104 -59 -158.5q-59 -54.5 -153 -54.5q-32 0 -53 5l6 75q18 -6 42 -6q61 0 97.5 38.5q36.5 38.5 36.5 101.5v649h85l384 -527l0 527z" />
<glyph unicode="&#330;" horiz-adv-x="708" d="M630 667v-652q0 -104 -59 -157.5q-59 -53.5 -153 -53.5q-108 0 -174 77l44 63q53 -66 125 -66q58 0 94 34.5q36 34.5 40 91.5l-386 534v-538h-83v667h85l384 -527l0 527z" />
<glyph unicode="&#211;" horiz-adv-x="765" d="M382 678q97 0 172 -45q75 -45 117 -123.5q42 -78.5 42 -176.5q0 -98 -42 -176.5q-42 -78.5 -117 -123.5q-75 -45 -172 -45q-97 0 -172.5 45q-75.5 45 -117 123.5q-41.5 78.5 -41.5 176.5q0 98 41.5 176.5q41.5 78.5 117 123.5q75.5 45 172.5 45zt0 0zM382 604q-74 0 -129.5 -35q-55.5 -35 -85.5 -96.5q-30 -61.5 -30 -139.5q0 -77 30 -139q30 -62 86 -97q56 -35 129 -35q73 0 128.5 35q55.5 35 86 97q30.5 62 30.5 139q0 78 -30.5 139.5q-30.5 61.5 -86 96.5q-55.5 35 -128.5 35zt0 0zM350 723l148 144h78l-169 -144z" />
<glyph unicode="&#334;" horiz-adv-x="765" d="M382 678q97 0 172 -45q75 -45 117 -123.5q42 -78.5 42 -176.5q0 -98 -42 -176.5q-42 -78.5 -117 -123.5q-75 -45 -172 -45q-97 0 -172.5 45q-75.5 45 -117 123.5q-41.5 78.5 -41.5 176.5q0 98 41.5 176.5q41.5 78.5 117 123.5q75.5 45 172.5 45zt0 0zM382 604q-74 0 -129.5 -35q-55.5 -35 -85.5 -96.5q-30 -61.5 -30 -139.5q0 -77 30 -139q30 -62 86 -97q56 -35 129 -35q73 0 128.5 35q55.5 35 86 97q30.5 62 30.5 139q0 78 -30.5 139.5q-30.5 61.5 -86 96.5q-55.5 35 -128.5 35zt0 0zM205 805l37 32q25 -34 60.5 -53q35.5 -19 78.5 -19q43 0 78.5 19q35.5 19 59.5 53l37 -32q-31 -41 -76.5 -64.5q-45.5 -23.5 -98.5 -23.5q-53 0 -99 23.5t-77 64.5z" />
<glyph unicode="&#212;" horiz-adv-x="765" d="M382 678q97 0 172 -45q75 -45 117 -123.5q42 -78.5 42 -176.5q0 -98 -42 -176.5q-42 -78.5 -117 -123.5q-75 -45 -172 -45q-97 0 -172.5 45q-75.5 45 -117 123.5q-41.5 78.5 -41.5 176.5q0 98 41.5 176.5q41.5 78.5 117 123.5q75.5 45 172.5 45zt0 0zM382 604q-74 0 -129.5 -35q-55.5 -35 -85.5 -96.5q-30 -61.5 -30 -139.5q0 -77 30 -139q30 -62 86 -97q56 -35 129 -35q73 0 128.5 35q55.5 35 86 97q30.5 62 30.5 139q0 78 -30.5 139.5q-30.5 61.5 -86 96.5q-55.5 35 -128.5 35zt0 0zM381 829l-80 -106h-51l95 144h72l98 -144l-51 0z" />
<glyph unicode="&#214;" horiz-adv-x="765" d="M382 678q97 0 172 -45q75 -45 117 -123.5q42 -78.5 42 -176.5q0 -98 -42 -176.5q-42 -78.5 -117 -123.5q-75 -45 -172 -45q-97 0 -172.5 45q-75.5 45 -117 123.5q-41.5 78.5 -41.5 176.5q0 98 41.5 176.5q41.5 78.5 117 123.5q75.5 45 172.5 45zt0 0zM382 604q-74 0 -129.5 -35q-55.5 -35 -85.5 -96.5q-30 -61.5 -30 -139.5q0 -77 30 -139q30 -62 86 -97q56 -35 129 -35q73 0 128.5 35q55.5 35 86 97q30.5 62 30.5 139q0 78 -30.5 139.5q-30.5 61.5 -86 96.5q-55.5 35 -128.5 35zt0 0zM232 780q0 19 13.5 32.5q13.5 13.5 32.5 13.5q19 0 32.5 -13.5q13.5 -13.5 13.5 -32.5q0 -20 -13.5 -33.5q-13.5 -13.5 -32.5 -13.5q-19 0 -32.5 14q-13.5 14 -13.5 33zt0 0zM438 780q0 19 14 32.5q14 13.5 33 13.5q19 0 32.5 -13.5q13.5 -13.5 13.5 -32.5q0 -19 -13.5 -33q-13.5 -14 -32.5 -14q-20 0 -33.5 14t-13.5 33z" />
<glyph unicode="&#210;" horiz-adv-x="765" d="M382 678q97 0 172 -45q75 -45 117 -123.5q42 -78.5 42 -176.5q0 -98 -42 -176.5q-42 -78.5 -117 -123.5q-75 -45 -172 -45q-97 0 -172.5 45q-75.5 45 -117 123.5q-41.5 78.5 -41.5 176.5q0 98 41.5 176.5q41.5 78.5 117 123.5q75.5 45 172.5 45zt0 0zM382 604q-74 0 -129.5 -35q-55.5 -35 -85.5 -96.5q-30 -61.5 -30 -139.5q0 -77 30 -139q30 -62 86 -97q56 -35 129 -35q73 0 128.5 35q55.5 35 86 97q30.5 62 30.5 139q0 78 -30.5 139.5q-30.5 61.5 -86 96.5q-55.5 35 -128.5 35zt0 0zM183 867h78l148 -144l-57 0z" />
<glyph unicode="&#336;" horiz-adv-x="765" d="M382 678q97 0 172 -45q75 -45 117 -123.5q42 -78.5 42 -176.5q0 -98 -42 -176.5q-42 -78.5 -117 -123.5q-75 -45 -172 -45q-97 0 -172.5 45q-75.5 45 -117 123.5q-41.5 78.5 -41.5 176.5q0 98 41.5 176.5q41.5 78.5 117 123.5q75.5 45 172.5 45zt0 0zM382 604q-74 0 -129.5 -35q-55.5 -35 -85.5 -96.5q-30 -61.5 -30 -139.5q0 -77 30 -139q30 -62 86 -97q56 -35 129 -35q73 0 128.5 35q55.5 35 86 97q30.5 62 30.5 139q0 78 -30.5 139.5q-30.5 61.5 -86 96.5q-55.5 35 -128.5 35zt0 0zM282 723l94 144h69l-115 -144zM424 723l94 144h69l-115 -144z" />
<glyph unicode="&#332;" horiz-adv-x="765" d="M382 678q97 0 172 -45q75 -45 117 -123.5q42 -78.5 42 -176.5q0 -98 -42 -176.5q-42 -78.5 -117 -123.5q-75 -45 -172 -45q-97 0 -172.5 45q-75.5 45 -117 123.5q-41.5 78.5 -41.5 176.5q0 98 41.5 176.5q41.5 78.5 117 123.5q75.5 45 172.5 45zt0 0zM382 604q-74 0 -129.5 -35q-55.5 -35 -85.5 -96.5q-30 -61.5 -30 -139.5q0 -77 30 -139q30 -62 86 -97q56 -35 129 -35q73 0 128.5 35q55.5 35 86 97q30.5 62 30.5 139q0 78 -30.5 139.5q-30.5 61.5 -86 96.5q-55.5 35 -128.5 35zt0 0zM227 787h307v-48l-307 0z" />
<glyph unicode="&#216;" horiz-adv-x="765" d="M713 333q0 -98 -42 -176.5q-42 -78.5 -117 -123.5q-75 -45 -172 -45q-97 0 -173 45l-22 -33h-66l44 65q-54 47 -84 116q-30 69 -30 152q0 98 41.5 176.5q41.5 78.5 117 123.5q75.5 45 172.5 45q92 0 167 -42l21 31h66l-42 -62q57 -47 88 -117.5q31 -70.5 31 -154.5zt0 0zM210 132l296 440q-53 32 -124 32q-74 0 -129.5 -35q-55.5 -35 -85.5 -96.5q-30 -61.5 -30 -139.5q0 -61 19 -112.5q19 -51.5 54 -88.5zt0 0zM627 333q0 63 -20 116q-20 53 -58 89l-296 -441q57 -35 129 -35q73 0 128.5 35q55.5 35 86 97t30.5 139z" />
<glyph unicode="&#510;" horiz-adv-x="765" d="M713 333q0 -98 -42 -176.5q-42 -78.5 -117 -123.5q-75 -45 -172 -45q-97 0 -173 45l-22 -33h-66l44 65q-54 47 -84 116q-30 69 -30 152q0 98 41.5 176.5q41.5 78.5 117 123.5q75.5 45 172.5 45q92 0 167 -42l21 31h66l-42 -62q57 -47 88 -117.5q31 -70.5 31 -154.5zt0 0zM210 132l296 440q-53 32 -124 32q-74 0 -129.5 -35q-55.5 -35 -85.5 -96.5q-30 -61.5 -30 -139.5q0 -61 19 -112.5q19 -51.5 54 -88.5zt0 0zM627 333q0 63 -20 116q-20 53 -58 89l-296 -441q57 -35 129 -35q73 0 128.5 35q55.5 35 86 97q30.5 62 30.5 139zt0 0zM350 723l148 144h78l-169 -144z" />
<glyph unicode="&#213;" horiz-adv-x="765" d="M382 678q97 0 172 -45q75 -45 117 -123.5q42 -78.5 42 -176.5q0 -98 -42 -176.5q-42 -78.5 -117 -123.5q-75 -45 -172 -45q-97 0 -172.5 45q-75.5 45 -117 123.5q-41.5 78.5 -41.5 176.5q0 98 41.5 176.5q41.5 78.5 117 123.5q75.5 45 172.5 45zt0 0zM382 604q-74 0 -129.5 -35q-55.5 -35 -85.5 -96.5q-30 -61.5 -30 -139.5q0 -77 30 -139q30 -62 86 -97q56 -35 129 -35q73 0 128.5 35q55.5 35 86 97q30.5 62 30.5 139q0 78 -30.5 139.5q-30.5 61.5 -86 96.5q-55.5 35 -128.5 35zt0 0zM318 813q-21 0 -34.5 -21.5q-13.5 -21.5 -13.5 -64.5l-45 0q0 60 25.5 97q25.5 37 71.5 37q26 0 41.5 -13.5q15.5 -13.5 33.5 -39.5q15 -21 24 -30q9 -9 24 -9q21 0 34.5 21.5q13.5 21.5 13.5 64.5l45 0q0 -60 -25.5 -97q-25.5 -37 -71.5 -37q-27 0 -42.5 13.5q-15.5 13.5 -33.5 39.5q-13 20 -22.5 29.5t-24.5 9.5z" />
<glyph unicode="&#490;" horiz-adv-x="765" d="M374 -94q0 -18 12 -28.5q12 -10.5 30 -10.5q17 0 32 9l20 -45q-27 -17 -68 -17q-40 0 -69 19.5q-29 19.5 -29 55.5q0 28 21 53q21 25 58 46q-97 0 -172 45q-75 45 -116.5 123.5q-41.5 78.5 -41.5 176.5q0 98 41.5 176.5q41.5 78.5 117 123.5q75.5 45 172.5 45q97 0 172 -45q75 -45 117 -123.5q42 -78.5 42 -176.5q0 -84 -31.5 -155q-31.5 -71 -89 -118.5q-57.5 -47.5 -133.5 -63.5q-40 -18 -62.5 -41q-22.5 -23 -22.5 -49zt0 0zM382 62q73 0 128.5 35q55.5 35 86 97q30.5 62 30.5 139q0 78 -30.5 139.5q-30.5 61.5 -86 96.5q-55.5 35 -128.5 35q-74 0 -129.5 -35q-55.5 -35 -85.5 -96.5q-30 -61.5 -30 -139.5q0 -77 30 -139q30 -62 86 -97t129 -35z" />
<glyph unicode="&#7884;" horiz-adv-x="765" d="M382 678q97 0 172 -45q75 -45 117 -123.5q42 -78.5 42 -176.5q0 -98 -42 -176.5q-42 -78.5 -117 -123.5q-75 -45 -172 -45q-97 0 -172.5 45q-75.5 45 -117 123.5q-41.5 78.5 -41.5 176.5q0 98 41.5 176.5q41.5 78.5 117 123.5q75.5 45 172.5 45zt0 0zM382 604q-74 0 -129.5 -35q-55.5 -35 -85.5 -96.5q-30 -61.5 -30 -139.5q0 -77 30 -139q30 -62 86 -97q56 -35 129 -35q73 0 128.5 35q55.5 35 86 97q30.5 62 30.5 139q0 78 -30.5 139.5q-30.5 61.5 -86 96.5q-55.5 35 -128.5 35zt0 0zM381 -71q19 0 32.5 -14q13.5 -14 13.5 -33q0 -20 -13 -33.5q-13 -13.5 -33 -13.5q-19 0 -33 13.5q-14 13.5 -14 33.5q0 19 14 33t33 14z" />
<glyph unicode="&#7886;" horiz-adv-x="765" d="M382 678q97 0 172 -45q75 -45 117 -123.5q42 -78.5 42 -176.5q0 -98 -42 -176.5q-42 -78.5 -117 -123.5q-75 -45 -172 -45q-97 0 -172.5 45q-75.5 45 -117 123.5q-41.5 78.5 -41.5 176.5q0 98 41.5 176.5q41.5 78.5 117 123.5q75.5 45 172.5 45zt0 0zM382 604q-74 0 -129.5 -35q-55.5 -35 -85.5 -96.5q-30 -61.5 -30 -139.5q0 -77 30 -139q30 -62 86 -97q56 -35 129 -35q73 0 128.5 35q55.5 35 86 97q30.5 62 30.5 139q0 78 -30.5 139.5q-30.5 61.5 -86 96.5q-55.5 35 -128.5 35zt0 0zM375 883q39 0 65.5 -22.5q26.5 -22.5 26.5 -67.5q0 -19 -5.5 -35q-5.5 -16 -18.5 -34l-51 0q29 32 29 68q0 25 -12.5 37.5q-12.5 12.5 -33.5 12.5q-38 0 -53 -42l-42 13q10 31 35 50.5t60 19.5z" />
<glyph unicode="&#7888;" horiz-adv-x="765" d="M483 780l148 108h78l-169 -108zM381 785l-80 -80h-51l95 108h72l98 -108h-51zM382 678q97 0 172 -45q75 -45 117 -123.5q42 -78.5 42 -176.5q0 -98 -42 -176.5q-42 -78.5 -117 -123.5q-75 -45 -172 -45q-97 0 -172.5 45q-75.5 45 -117 123.5q-41.5 78.5 -41.5 176.5q0 98 41.5 176.5q41.5 78.5 117 123.5q75.5 45 172.5 45zt0 0zM382 604q-74 0 -129.5 -35q-55.5 -35 -85.5 -96.5q-30 -61.5 -30 -139.5q0 -77 30 -139q30 -62 86 -97q56 -35 129 -35q73 0 128.5 35q55.5 35 86 97q30.5 62 30.5 139q0 78 -30.5 139.5q-30.5 61.5 -86 96.5t-128.5 35z" />
<glyph unicode="&#7890;" horiz-adv-x="765" d="M57 888h78l148 -108h-57zM381 785l-80 -80h-51l95 108h72l98 -108h-51zM382 678q97 0 172 -45q75 -45 117 -123.5q42 -78.5 42 -176.5q0 -98 -42 -176.5q-42 -78.5 -117 -123.5q-75 -45 -172 -45q-97 0 -172.5 45q-75.5 45 -117 123.5q-41.5 78.5 -41.5 176.5q0 98 41.5 176.5q41.5 78.5 117 123.5q75.5 45 172.5 45zt0 0zM382 604q-74 0 -129.5 -35q-55.5 -35 -85.5 -96.5q-30 -61.5 -30 -139.5q0 -77 30 -139q30 -62 86 -97q56 -35 129 -35q73 0 128.5 35q55.5 35 86 97q30.5 62 30.5 139q0 78 -30.5 139.5q-30.5 61.5 -86 96.5t-128.5 35z" />
<glyph unicode="&#7892;" horiz-adv-x="765" d="M466 899q39 0 65.5 -17q26.5 -17 26.5 -50q0 -15 -5.5 -27q-5.5 -12 -18.5 -25l-51 0q29 23 29 51q0 18 -12.5 27.5q-12.5 9.5 -33.5 9.5q-38 0 -53 -31l-42 10q10 23 35 37.5q25 14.5 60 14.5zt0 0zM381 785l-80 -80h-51l95 108h72l98 -108h-51zM382 678q97 0 172 -45q75 -45 117 -123.5q42 -78.5 42 -176.5q0 -98 -42 -176.5q-42 -78.5 -117 -123.5q-75 -45 -172 -45q-97 0 -172.5 45q-75.5 45 -117 123.5q-41.5 78.5 -41.5 176.5q0 98 41.5 176.5q41.5 78.5 117 123.5q75.5 45 172.5 45zt0 0zM382 604q-74 0 -129.5 -35q-55.5 -35 -85.5 -96.5q-30 -61.5 -30 -139.5q0 -77 30 -139q30 -62 86 -97q56 -35 129 -35q73 0 128.5 35q55.5 35 86 97q30.5 62 30.5 139q0 78 -30.5 139.5q-30.5 61.5 -86 96.5t-128.5 35z" />
<glyph unicode="&#7894;" horiz-adv-x="765" d="M318 894q-21 0 -34.5 -16.5q-13.5 -16.5 -13.5 -48.5l-45 0q0 45 25.5 73q25.5 28 71.5 28q26 0 41.5 -10q15.5 -10 33.5 -30q14 -15 23.5 -22q9.5 -7 24.5 -7q22 0 35 16q13 16 13 48l45 0q0 -45 -25.5 -72.5q-25.5 -27.5 -71.5 -27.5q-26 0 -42 10q-16 10 -34 29q-13 16 -22.5 23q-9.5 7 -24.5 7zt0 0zM381 785l-80 -80h-51l95 108h72l98 -108h-51zM382 678q97 0 172 -45q75 -45 117 -123.5q42 -78.5 42 -176.5q0 -98 -42 -176.5q-42 -78.5 -117 -123.5q-75 -45 -172 -45q-97 0 -172.5 45q-75.5 45 -117 123.5q-41.5 78.5 -41.5 176.5q0 98 41.5 176.5q41.5 78.5 117 123.5q75.5 45 172.5 45zt0 0zM382 604q-74 0 -129.5 -35q-55.5 -35 -85.5 -96.5q-30 -61.5 -30 -139.5q0 -77 30 -139q30 -62 86 -97q56 -35 129 -35q73 0 128.5 35q55.5 35 86 97q30.5 62 30.5 139q0 78 -30.5 139.5q-30.5 61.5 -86 96.5t-128.5 35z" />
<glyph unicode="&#7896;" horiz-adv-x="765" d="M382 678q97 0 172 -45q75 -45 117 -123.5q42 -78.5 42 -176.5q0 -98 -42 -176.5q-42 -78.5 -117 -123.5q-75 -45 -172 -45q-97 0 -172.5 45q-75.5 45 -117 123.5q-41.5 78.5 -41.5 176.5q0 98 41.5 176.5q41.5 78.5 117 123.5q75.5 45 172.5 45zt0 0zM382 604q-74 0 -129.5 -35q-55.5 -35 -85.5 -96.5q-30 -61.5 -30 -139.5q0 -77 30 -139q30 -62 86 -97q56 -35 129 -35q73 0 128.5 35q55.5 35 86 97q30.5 62 30.5 139q0 78 -30.5 139.5q-30.5 61.5 -86 96.5q-55.5 35 -128.5 35zt0 0zM381 829l-80 -106h-51l95 144h72l98 -144h-51zM381 -71q19 0 32.5 -14q13.5 -14 13.5 -33q0 -20 -13 -33.5q-13 -13.5 -33 -13.5q-19 0 -33 13.5q-14 13.5 -14 33.5q0 19 14 33t33 14z" />
<glyph unicode="&#416;" horiz-adv-x="765" d="M654 538q59 -87 59 -205q0 -98 -42 -176.5q-42 -78.5 -117 -123.5q-75 -45 -172 -45q-97 0 -172.5 45q-75.5 45 -117 123.5q-41.5 78.5 -41.5 176.5q0 98 41.5 176.5q41.5 78.5 117 123.5q75.5 45 172.5 45q77 0 141 -28.5q64 -28.5 108 -81.5q18 15 31 36q13 21 15 40q-4 -2 -11 -2q-17 0 -28 12q-11 12 -11 29q0 18 12 31q12 13 30 13q21 0 35.5 -17q14.5 -17 14.5 -46q0 -37 -18 -70.5q-18 -33.5 -47 -55.5zt0 0zM627 333q0 78 -30.5 139.5q-30.5 61.5 -86 96.5q-55.5 35 -128.5 35q-74 0 -129.5 -35q-55.5 -35 -85.5 -96.5q-30 -61.5 -30 -139.5q0 -77 30 -139q30 -62 86 -97q56 -35 129 -35q73 0 128.5 35q55.5 35 86 97t30.5 139z" />
<glyph unicode="&#7898;" horiz-adv-x="765" d="M654 538q59 -87 59 -205q0 -98 -42 -176.5q-42 -78.5 -117 -123.5q-75 -45 -172 -45q-97 0 -172.5 45q-75.5 45 -117 123.5q-41.5 78.5 -41.5 176.5q0 98 41.5 176.5q41.5 78.5 117 123.5q75.5 45 172.5 45q77 0 141 -28.5q64 -28.5 108 -81.5q18 15 31 36q13 21 15 40q-4 -2 -11 -2q-17 0 -28 12q-11 12 -11 29q0 18 12 31q12 13 30 13q21 0 35.5 -17q14.5 -17 14.5 -46q0 -37 -18 -70.5q-18 -33.5 -47 -55.5zt0 0zM627 333q0 78 -30.5 139.5q-30.5 61.5 -86 96.5q-55.5 35 -128.5 35q-74 0 -129.5 -35q-55.5 -35 -85.5 -96.5q-30 -61.5 -30 -139.5q0 -77 30 -139q30 -62 86 -97q56 -35 129 -35q73 0 128.5 35q55.5 35 86 97q30.5 62 30.5 139zt0 0zM350 723l148 144h78l-169 -144z" />
<glyph unicode="&#7900;" horiz-adv-x="765" d="M654 538q59 -87 59 -205q0 -98 -42 -176.5q-42 -78.5 -117 -123.5q-75 -45 -172 -45q-97 0 -172.5 45q-75.5 45 -117 123.5q-41.5 78.5 -41.5 176.5q0 98 41.5 176.5q41.5 78.5 117 123.5q75.5 45 172.5 45q77 0 141 -28.5q64 -28.5 108 -81.5q18 15 31 36q13 21 15 40q-4 -2 -11 -2q-17 0 -28 12q-11 12 -11 29q0 18 12 31q12 13 30 13q21 0 35.5 -17q14.5 -17 14.5 -46q0 -37 -18 -70.5q-18 -33.5 -47 -55.5zt0 0zM627 333q0 78 -30.5 139.5q-30.5 61.5 -86 96.5q-55.5 35 -128.5 35q-74 0 -129.5 -35q-55.5 -35 -85.5 -96.5q-30 -61.5 -30 -139.5q0 -77 30 -139q30 -62 86 -97q56 -35 129 -35q73 0 128.5 35q55.5 35 86 97q30.5 62 30.5 139zt0 0zM183 867h78l148 -144l-57 0z" />
<glyph unicode="&#7902;" horiz-adv-x="765" d="M654 538q59 -87 59 -205q0 -98 -42 -176.5q-42 -78.5 -117 -123.5q-75 -45 -172 -45q-97 0 -172.5 45q-75.5 45 -117 123.5q-41.5 78.5 -41.5 176.5q0 98 41.5 176.5q41.5 78.5 117 123.5q75.5 45 172.5 45q77 0 141 -28.5q64 -28.5 108 -81.5q18 15 31 36q13 21 15 40q-4 -2 -11 -2q-17 0 -28 12q-11 12 -11 29q0 18 12 31q12 13 30 13q21 0 35.5 -17q14.5 -17 14.5 -46q0 -37 -18 -70.5q-18 -33.5 -47 -55.5zt0 0zM627 333q0 78 -30.5 139.5q-30.5 61.5 -86 96.5q-55.5 35 -128.5 35q-74 0 -129.5 -35q-55.5 -35 -85.5 -96.5q-30 -61.5 -30 -139.5q0 -77 30 -139q30 -62 86 -97q56 -35 129 -35q73 0 128.5 35q55.5 35 86 97q30.5 62 30.5 139zt0 0zM375 883q39 0 65.5 -22.5q26.5 -22.5 26.5 -67.5q0 -19 -5.5 -35q-5.5 -16 -18.5 -34l-51 0q29 32 29 68q0 25 -12.5 37.5q-12.5 12.5 -33.5 12.5q-38 0 -53 -42l-42 13q10 31 35 50.5t60 19.5z" />
<glyph unicode="&#7904;" horiz-adv-x="765" d="M654 538q59 -87 59 -205q0 -98 -42 -176.5q-42 -78.5 -117 -123.5q-75 -45 -172 -45q-97 0 -172.5 45q-75.5 45 -117 123.5q-41.5 78.5 -41.5 176.5q0 98 41.5 176.5q41.5 78.5 117 123.5q75.5 45 172.5 45q77 0 141 -28.5q64 -28.5 108 -81.5q18 15 31 36q13 21 15 40q-4 -2 -11 -2q-17 0 -28 12q-11 12 -11 29q0 18 12 31q12 13 30 13q21 0 35.5 -17q14.5 -17 14.5 -46q0 -37 -18 -70.5q-18 -33.5 -47 -55.5zt0 0zM627 333q0 78 -30.5 139.5q-30.5 61.5 -86 96.5q-55.5 35 -128.5 35q-74 0 -129.5 -35q-55.5 -35 -85.5 -96.5q-30 -61.5 -30 -139.5q0 -77 30 -139q30 -62 86 -97q56 -35 129 -35q73 0 128.5 35q55.5 35 86 97q30.5 62 30.5 139zt0 0zM318 813q-21 0 -34.5 -21.5q-13.5 -21.5 -13.5 -64.5l-45 0q0 60 25.5 97q25.5 37 71.5 37q26 0 41.5 -13.5q15.5 -13.5 33.5 -39.5q15 -21 24 -30q9 -9 24 -9q21 0 34.5 21.5q13.5 21.5 13.5 64.5l45 0q0 -60 -25.5 -97q-25.5 -37 -71.5 -37q-27 0 -42.5 13.5q-15.5 13.5 -33.5 39.5q-13 20 -22.5 29.5t-24.5 9.5z" />
<glyph unicode="&#7906;" horiz-adv-x="765" d="M654 538q59 -87 59 -205q0 -98 -42 -176.5q-42 -78.5 -117 -123.5q-75 -45 -172 -45q-97 0 -172.5 45q-75.5 45 -117 123.5q-41.5 78.5 -41.5 176.5q0 98 41.5 176.5q41.5 78.5 117 123.5q75.5 45 172.5 45q77 0 141 -28.5q64 -28.5 108 -81.5q18 15 31 36q13 21 15 40q-4 -2 -11 -2q-17 0 -28 12q-11 12 -11 29q0 18 12 31q12 13 30 13q21 0 35.5 -17q14.5 -17 14.5 -46q0 -37 -18 -70.5q-18 -33.5 -47 -55.5zt0 0zM627 333q0 78 -30.5 139.5q-30.5 61.5 -86 96.5q-55.5 35 -128.5 35q-74 0 -129.5 -35q-55.5 -35 -85.5 -96.5q-30 -61.5 -30 -139.5q0 -77 30 -139q30 -62 86 -97q56 -35 129 -35q73 0 128.5 35q55.5 35 86 97q30.5 62 30.5 139zt0 0zM381 -71q19 0 32.5 -14q13.5 -14 13.5 -33q0 -20 -13 -33.5q-13 -13.5 -33 -13.5q-19 0 -33 13.5q-14 13.5 -14 33.5q0 19 14 33t33 14z" />
<glyph unicode="&#338;" horiz-adv-x="1105" d="M613 120q-36 -63 -100.5 -97.5q-64.5 -34.5 -137.5 -34.5q-95 0 -169 45q-74 45 -114.5 123.5q-40.5 78.5 -40.5 176.5q0 98 40.5 176.5q40.5 78.5 114.5 123q74 44.5 169 44.5q73 0 137.5 -34q64.5 -34 100.5 -97l0 121h438v-74h-355v-215h348v-74h-348v-230h355v-74h-438zM384 603q-75 0 -131 -34.5q-56 -34.5 -86 -96q-30 -61.5 -30 -139.5q0 -78 30 -139.5q30 -61.5 86 -96.5q56 -35 131 -35q79 0 139.5 41.5q60.5 41.5 89.5 119.5l0 220q-29 78 -89.5 119t-139.5 41z" />
<glyph unicode="&#7766;" horiz-adv-x="587" d="M78 667h268q65 0 112.5 -27q47.5 -27 72 -73q24.5 -46 24.5 -101q0 -55 -25 -101q-25 -46 -72.5 -73q-47.5 -27 -111.5 -27h-185v-265h-83zM336 593h-175v-254h175q59 0 96 35.5q37 35.5 37 91.5q0 56 -37 91.5q-37 35.5 -96 35.5zt0 0zM306 825q19 0 32.5 -13.5q13.5 -13.5 13.5 -33.5q0 -20 -13.5 -33.5q-13.5 -13.5 -32.5 -13.5q-19 0 -33 14q-14 14 -14 33q0 19 14 33t33 14z" />
<glyph unicode="&#340;" horiz-adv-x="608" d="M294 265h-133v-265h-83v667h268q61 0 108.5 -24.5q47.5 -24.5 74 -70.5q26.5 -46 26.5 -106q0 -58 -23.5 -100.5q-23.5 -42.5 -63 -66q-39.5 -23.5 -86.5 -27.5l180 -272h-98zM336 593h-175v-255h175q59 0 96 36q37 36 37 92q0 56 -37 91.5q-37 35.5 -96 35.5zt0 0zM275 723l148 144h78l-169 -144z" />
<glyph unicode="&#344;" horiz-adv-x="608" d="M294 265h-133v-265h-83v667h268q61 0 108.5 -24.5q47.5 -24.5 74 -70.5q26.5 -46 26.5 -106q0 -58 -23.5 -100.5q-23.5 -42.5 -63 -66q-39.5 -23.5 -86.5 -27.5l180 -272h-98zM336 593h-175v-255h175q59 0 96 36q37 36 37 92q0 56 -37 91.5q-37 35.5 -96 35.5zt0 0zM172 867h51l83 -106l80 106h51l-95 -144l-72 0z" />
<glyph unicode="&#342;" horiz-adv-x="608" d="M294 265h-133v-265h-83v667h268q61 0 108.5 -24.5q47.5 -24.5 74 -70.5q26.5 -46 26.5 -106q0 -58 -23.5 -100.5q-23.5 -42.5 -63 -66q-39.5 -23.5 -86.5 -27.5l180 -272h-98zM336 593h-175v-255h175q59 0 96 36q37 36 37 92q0 56 -37 91.5q-37 35.5 -96 35.5zt0 0zM255 -246q23 15 39.5 39.5q16.5 24.5 18.5 46.5q-6 -2 -11 -2q-18 0 -30 12.5q-12 12.5 -12 31.5q0 20 13.5 33.5q13.5 13.5 32.5 13.5q22 0 37.5 -18q15.5 -18 15.5 -49q0 -39 -20 -75q-20 -36 -51 -59z" />
<glyph unicode="&#346;" horiz-adv-x="586" d="M87 157q37 -41 91 -68q54 -27 119 -27q81 0 119 34.5q38 34.5 38 80.5q0 37 -22.5 60.5q-22.5 23.5 -55.5 36.5q-33 13 -91 29q-74 19 -118.5 37q-44.5 18 -76 54.5q-31.5 36.5 -31.5 97.5q0 54 30 96q30 42 82 65.5q52 23.5 117 23.5q149 0 237 -93l-50 -61q-36 40 -86 60q-50 20 -107 20q-60 0 -98.5 -29.5q-38.5 -29.5 -38.5 -76.5q0 -31 21.5 -51.5q21.5 -20.5 52.5 -32q31 -11.5 88 -26.5q74 -20 120.5 -39.5q46.5 -19.5 79.5 -59q33 -39.5 33 -104.5q0 -52 -25 -96.5q-25 -44.5 -80.5 -72q-55.5 -27.5 -140.5 -27.5q-83 0 -147.5 28.5q-64.5 28.5 -108.5 77.5zM257 723l148 144h78l-169 -144z" />
<glyph unicode="&#352;" horiz-adv-x="586" d="M87 157q37 -41 91 -68q54 -27 119 -27q81 0 119 34.5q38 34.5 38 80.5q0 37 -22.5 60.5q-22.5 23.5 -55.5 36.5q-33 13 -91 29q-74 19 -118.5 37q-44.5 18 -76 54.5q-31.5 36.5 -31.5 97.5q0 54 30 96q30 42 82 65.5q52 23.5 117 23.5q149 0 237 -93l-50 -61q-36 40 -86 60q-50 20 -107 20q-60 0 -98.5 -29.5q-38.5 -29.5 -38.5 -76.5q0 -31 21.5 -51.5q21.5 -20.5 52.5 -32q31 -11.5 88 -26.5q74 -20 120.5 -39.5q46.5 -19.5 79.5 -59q33 -39.5 33 -104.5q0 -52 -25 -96.5q-25 -44.5 -80.5 -72q-55.5 -27.5 -140.5 -27.5q-83 0 -147.5 28.5q-64.5 28.5 -108.5 77.5zM154 867h51l83 -106l80 106h51l-95 -144l-72 0z" />
<glyph unicode="&#348;" horiz-adv-x="586" d="M87 157q37 -41 91 -68q54 -27 119 -27q81 0 119 34.5q38 34.5 38 80.5q0 37 -22.5 60.5q-22.5 23.5 -55.5 36.5q-33 13 -91 29q-74 19 -118.5 37q-44.5 18 -76 54.5q-31.5 36.5 -31.5 97.5q0 54 30 96q30 42 82 65.5q52 23.5 117 23.5q149 0 237 -93l-50 -61q-36 40 -86 60q-50 20 -107 20q-60 0 -98.5 -29.5q-38.5 -29.5 -38.5 -76.5q0 -31 21.5 -51.5q21.5 -20.5 52.5 -32q31 -11.5 88 -26.5q74 -20 120.5 -39.5q46.5 -19.5 79.5 -59q33 -39.5 33 -104.5q0 -52 -25 -96.5q-25 -44.5 -80.5 -72q-55.5 -27.5 -140.5 -27.5q-83 0 -147.5 28.5q-64.5 28.5 -108.5 77.5zM288 829l-80 -106h-51l95 144h72l98 -144l-51 0z" />
<glyph unicode="&#350;" horiz-adv-x="586" d="M309 -12l-17 -43q16 11 37 11q29 0 47.5 -18q18.5 -18 18.5 -47q0 -37 -30 -59.5q-30 -22.5 -74 -22.5q-31 0 -58 8.5q-27 8.5 -43 21.5l19 38q35 -29 80 -29q26 0 43.5 11.5q17.5 11.5 17.5 32.5q0 15 -9.5 24q-9.5 9 -27.5 9q-10 0 -20.5 -4.5q-10.5 -4.5 -17.5 -12.5l-33 19l23 62q-73 5 -130.5 32.5q-57.5 27.5 -96.5 72.5l49 63q37 -41 91 -68q54 -27 119 -27q81 0 119 34.5q38 34.5 38 80.5q0 37 -22.5 60.5q-22.5 23.5 -55.5 36.5q-33 13 -91 29q-74 19 -118.5 37q-44.5 18 -76 54.5q-31.5 36.5 -31.5 97.5q0 54 30 96q30 42 82 65.5q52 23.5 117 23.5q149 0 237 -93l-50 -61q-36 40 -86 60q-50 20 -107 20q-60 0 -98.5 -29.5q-38.5 -29.5 -38.5 -76.5q0 -31 21.5 -51.5q21.5 -20.5 52.5 -32q31 -11.5 88 -26.5q74 -20 120.5 -39.5q46.5 -19.5 79.5 -59q33 -39.5 33 -104.5q0 -50 -23.5 -93.5q-23.5 -43.5 -75.5 -71.5t-132 -31z" />
<glyph unicode="&#536;" horiz-adv-x="586" d="M87 157q37 -41 91 -68q54 -27 119 -27q81 0 119 34.5q38 34.5 38 80.5q0 37 -22.5 60.5q-22.5 23.5 -55.5 36.5q-33 13 -91 29q-74 19 -118.5 37q-44.5 18 -76 54.5q-31.5 36.5 -31.5 97.5q0 54 30 96q30 42 82 65.5q52 23.5 117 23.5q149 0 237 -93l-50 -61q-36 40 -86 60q-50 20 -107 20q-60 0 -98.5 -29.5q-38.5 -29.5 -38.5 -76.5q0 -31 21.5 -51.5q21.5 -20.5 52.5 -32q31 -11.5 88 -26.5q74 -20 120.5 -39.5q46.5 -19.5 79.5 -59q33 -39.5 33 -104.5q0 -52 -25 -96.5q-25 -44.5 -80.5 -72q-55.5 -27.5 -140.5 -27.5q-83 0 -147.5 28.5q-64.5 28.5 -108.5 77.5zM237 -246q23 15 39.5 39.5q16.5 24.5 18.5 46.5q-6 -2 -11 -2q-18 0 -30 12.5q-12 12.5 -12 31.5q0 20 13.5 33.5q13.5 13.5 32.5 13.5q22 0 37.5 -18q15.5 -18 15.5 -49q0 -39 -20 -75q-20 -36 -51 -59z" />
<glyph unicode="&#7776;" horiz-adv-x="586" d="M87 157q37 -41 91 -68q54 -27 119 -27q81 0 119 34.5q38 34.5 38 80.5q0 37 -22.5 60.5q-22.5 23.5 -55.5 36.5q-33 13 -91 29q-74 19 -118.5 37q-44.5 18 -76 54.5q-31.5 36.5 -31.5 97.5q0 54 30 96q30 42 82 65.5q52 23.5 117 23.5q149 0 237 -93l-50 -61q-36 40 -86 60q-50 20 -107 20q-60 0 -98.5 -29.5q-38.5 -29.5 -38.5 -76.5q0 -31 21.5 -51.5q21.5 -20.5 52.5 -32q31 -11.5 88 -26.5q74 -20 120.5 -39.5q46.5 -19.5 79.5 -59q33 -39.5 33 -104.5q0 -52 -25 -96.5q-25 -44.5 -80.5 -72q-55.5 -27.5 -140.5 -27.5q-83 0 -147.5 28.5q-64.5 28.5 -108.5 77.5zM288 825q19 0 32.5 -13.5q13.5 -13.5 13.5 -33.5q0 -20 -13.5 -33.5q-13.5 -13.5 -32.5 -13.5q-19 0 -33 14q-14 14 -14 33q0 19 14 33t33 14z" />
<glyph unicode="&#7838;" horiz-adv-x="672" d="M640 192q0 -59 -29.5 -105.5q-29.5 -46.5 -81 -72.5q-51.5 -26 -116.5 -26q-122 0 -192 74l51 58q28 -28 62 -43q34 -15 79 -15q64 0 102.5 35q38.5 35 38.5 95q0 71 -55.5 101.5q-55.5 30.5 -157.5 30.5h-37v71l163 176q-47 33 -117 33q-91 0 -140 -53q-49 -53 -49 -146v-405h-83v407q0 126 69.5 198.5q69.5 72.5 202.5 72.5q75 0 132.5 -24.5q57.5 -24.5 92.5 -74.5l-172 -187q108 -5 172.5 -54t64.5 -146z" />
<glyph unicode="&#358;" horiz-adv-x="570" d="M326 593v-251h151v-48h-151v-294h-83v294h-150v48h150v251h-211v74h506l0 -74z" />
<glyph unicode="&#356;" horiz-adv-x="570" d="M243 593h-211v74h506v-74h-212v-593h-83zM151 867h51l83 -106l80 106h51l-95 -144l-72 0z" />
<glyph unicode="&#354;" horiz-adv-x="570" d="M243 593h-211v74h506v-74h-212v-593h-83zM234 -246q23 15 39.5 39.5q16.5 24.5 18.5 46.5q-6 -2 -11 -2q-18 0 -30 12.5q-12 12.5 -12 31.5q0 20 13.5 33.5q13.5 13.5 32.5 13.5q22 0 37.5 -18q15.5 -18 15.5 -49q0 -39 -20 -75q-20 -36 -51 -59z" />
<glyph unicode="&#538;" horiz-adv-x="570" d="M243 593h-211v74h506v-74h-212v-593h-83zM234 -246q23 15 39.5 39.5q16.5 24.5 18.5 46.5q-6 -2 -11 -2q-18 0 -30 12.5q-12 12.5 -12 31.5q0 20 13.5 33.5q13.5 13.5 32.5 13.5q22 0 37.5 -18q15.5 -18 15.5 -49q0 -39 -20 -75q-20 -36 -51 -59z" />
<glyph unicode="&#7786;" horiz-adv-x="570" d="M243 593h-211v74h506v-74h-212v-593h-83zM285 825q19 0 32.5 -13.5q13.5 -13.5 13.5 -33.5q0 -20 -13.5 -33.5q-13.5 -13.5 -32.5 -13.5q-19 0 -33 14q-14 14 -14 33q0 19 14 33t33 14z" />
<glyph unicode="&#218;" horiz-adv-x="700" d="M78 667h83v-406q0 -93 49 -146q49 -53 140 -53q91 0 140 53q49 53 49 146v406h83v-407q0 -127 -69.5 -199.5q-69.5 -72.5 -202.5 -72.5q-133 0 -202.5 72.5q-69.5 72.5 -69.5 198.5zM319 723l148 144h78l-169 -144z" />
<glyph unicode="&#364;" horiz-adv-x="700" d="M78 667h83v-406q0 -93 49 -146q49 -53 140 -53q91 0 140 53q49 53 49 146v406h83v-407q0 -127 -69.5 -199.5q-69.5 -72.5 -202.5 -72.5q-133 0 -202.5 72.5q-69.5 72.5 -69.5 198.5zM174 805l37 32q25 -34 60.5 -53q35.5 -19 78.5 -19q43 0 78.5 19q35.5 19 59.5 53l37 -32q-31 -41 -76.5 -64.5q-45.5 -23.5 -98.5 -23.5q-53 0 -99 23.5t-77 64.5z" />
<glyph unicode="&#219;" horiz-adv-x="700" d="M78 667h83v-406q0 -93 49 -146q49 -53 140 -53q91 0 140 53q49 53 49 146v406h83v-407q0 -127 -69.5 -199.5q-69.5 -72.5 -202.5 -72.5q-133 0 -202.5 72.5q-69.5 72.5 -69.5 198.5zM350 829l-80 -106h-51l95 144h72l98 -144l-51 0z" />
<glyph unicode="&#220;" horiz-adv-x="700" d="M78 667h83v-406q0 -93 49 -146q49 -53 140 -53q91 0 140 53q49 53 49 146v406h83v-407q0 -127 -69.5 -199.5q-69.5 -72.5 -202.5 -72.5q-133 0 -202.5 72.5q-69.5 72.5 -69.5 198.5zM201 780q0 19 13.5 32.5q13.5 13.5 32.5 13.5q19 0 32.5 -13.5q13.5 -13.5 13.5 -32.5q0 -20 -13.5 -33.5q-13.5 -13.5 -32.5 -13.5q-19 0 -32.5 14q-13.5 14 -13.5 33zt0 0zM407 780q0 19 14 32.5q14 13.5 33 13.5q19 0 32.5 -13.5q13.5 -13.5 13.5 -32.5q0 -19 -13.5 -33q-13.5 -14 -32.5 -14q-20 0 -33.5 14t-13.5 33z" />
<glyph unicode="&#217;" horiz-adv-x="700" d="M78 667h83v-406q0 -93 49 -146q49 -53 140 -53q91 0 140 53q49 53 49 146v406h83v-407q0 -127 -69.5 -199.5q-69.5 -72.5 -202.5 -72.5q-133 0 -202.5 72.5q-69.5 72.5 -69.5 198.5zM152 867h78l148 -144l-57 0z" />
<glyph unicode="&#368;" horiz-adv-x="700" d="M78 667h83v-406q0 -93 49 -146q49 -53 140 -53q91 0 140 53q49 53 49 146v406h83v-407q0 -127 -69.5 -199.5q-69.5 -72.5 -202.5 -72.5q-133 0 -202.5 72.5q-69.5 72.5 -69.5 198.5zM251 723l94 144h69l-115 -144zM393 723l94 144h69l-115 -144z" />
<glyph unicode="&#362;" horiz-adv-x="700" d="M78 667h83v-406q0 -93 49 -146q49 -53 140 -53q91 0 140 53q49 53 49 146v406h83v-407q0 -127 -69.5 -199.5q-69.5 -72.5 -202.5 -72.5q-133 0 -202.5 72.5q-69.5 72.5 -69.5 198.5zM196 787h307v-48l-307 0z" />
<glyph unicode="&#370;" horiz-adv-x="700" d="M78 667h83v-406q0 -93 49 -146q49 -53 140 -53q91 0 140 53q49 53 49 146v406h83v-407q0 -98 -40 -162.5q-40 -64.5 -118 -92.5q-53 -18 -82.5 -44q-29.5 -26 -29.5 -55q0 -18 12 -28.5q12 -10.5 30 -10.5q17 0 33 9l19 -45q-25 -17 -68 -17q-40 0 -69 19.5q-29 19.5 -29 55.5q0 29 22.5 54.5q22.5 25.5 60.5 44.5l-13 0q-133 0 -202.5 72.5q-69.5 72.5 -69.5 198.5z" />
<glyph unicode="&#366;" horiz-adv-x="700" d="M78 667h83v-406q0 -93 49 -146q49 -53 140 -53q91 0 140 53q49 53 49 146v406h83v-407q0 -127 -69.5 -199.5q-69.5 -72.5 -202.5 -72.5q-133 0 -202.5 72.5q-69.5 72.5 -69.5 198.5zM350 907q40 0 69 -29q29 -29 29 -70q0 -40 -29 -69q-29 -29 -69 -29q-41 0 -69.5 29q-28.5 29 -28.5 69q0 41 29 70q29 29 69 29zt0 0zM350 867q-24 0 -41 -17q-17 -17 -17 -42q0 -24 17 -41.5q17 -17.5 41 -17.5q24 0 41 17.5q17 17.5 17 41.5q0 25 -16.5 42t-41.5 17z" />
<glyph unicode="&#360;" horiz-adv-x="700" d="M78 667h83v-406q0 -93 49 -146q49 -53 140 -53q91 0 140 53q49 53 49 146v406h83v-407q0 -127 -69.5 -199.5q-69.5 -72.5 -202.5 -72.5q-133 0 -202.5 72.5q-69.5 72.5 -69.5 198.5zM287 813q-21 0 -34.5 -21.5q-13.5 -21.5 -13.5 -64.5l-45 0q0 60 25.5 97q25.5 37 71.5 37q26 0 41.5 -13.5q15.5 -13.5 33.5 -39.5q15 -21 24 -30q9 -9 24 -9q21 0 34.5 21.5q13.5 21.5 13.5 64.5l45 0q0 -60 -25.5 -97q-25.5 -37 -71.5 -37q-27 0 -42.5 13.5q-15.5 13.5 -33.5 39.5q-13 20 -22.5 29.5t-24.5 9.5z" />
<glyph unicode="&#7908;" horiz-adv-x="700" d="M78 667h83v-406q0 -93 49 -146q49 -53 140 -53q91 0 140 53q49 53 49 146v406h83v-407q0 -127 -69.5 -199.5q-69.5 -72.5 -202.5 -72.5q-133 0 -202.5 72.5q-69.5 72.5 -69.5 198.5zM350 -71q19 0 32.5 -14q13.5 -14 13.5 -33q0 -20 -13 -33.5q-13 -13.5 -33 -13.5q-19 0 -33 13.5q-14 13.5 -14 33.5q0 19 14 33t33 14z" />
<glyph unicode="&#431;" horiz-adv-x="700" d="M622 575v-315q0 -127 -69.5 -199.5q-69.5 -72.5 -202.5 -72.5q-133 0 -202.5 72.5q-69.5 72.5 -69.5 198.5v408h83v-406q0 -93 49 -146q49 -53 140 -53q91 0 140 53q49 53 49 146v406h83v-53q29 15 50 41q21 26 23 53l-11 -1q-17 0 -28 11.5q-11 11.5 -11 29.5q0 18 12.5 30.5q12.5 12.5 30.5 12.5q21 0 35.5 -17q14.5 -17 14.5 -46q0 -49 -31.5 -90.5t-84.5 -62.5z" />
<glyph unicode="&#7910;" horiz-adv-x="700" d="M78 667h83v-406q0 -93 49 -146q49 -53 140 -53q91 0 140 53q49 53 49 146v406h83v-407q0 -127 -69.5 -199.5q-69.5 -72.5 -202.5 -72.5q-133 0 -202.5 72.5q-69.5 72.5 -69.5 198.5zM344 883q39 0 65.5 -22.5q26.5 -22.5 26.5 -67.5q0 -19 -5.5 -35q-5.5 -16 -18.5 -34l-51 0q29 32 29 68q0 25 -12.5 37.5q-12.5 12.5 -33.5 12.5q-38 0 -53 -42l-42 13q10 31 35 50.5t60 19.5z" />
<glyph unicode="&#7912;" horiz-adv-x="700" d="M622 575v-315q0 -127 -69.5 -199.5q-69.5 -72.5 -202.5 -72.5q-133 0 -202.5 72.5q-69.5 72.5 -69.5 198.5v408h83v-406q0 -93 49 -146q49 -53 140 -53q91 0 140 53q49 53 49 146v406h83v-53q29 15 50 41q21 26 23 53l-11 -1q-17 0 -28 11.5q-11 11.5 -11 29.5q0 18 12.5 30.5q12.5 12.5 30.5 12.5q21 0 35.5 -17q14.5 -17 14.5 -46q0 -49 -31.5 -90.5q-31.5 -41.5 -84.5 -62.5zt0 0zM319 723l148 144h78l-169 -144z" />
<glyph unicode="&#7914;" horiz-adv-x="700" d="M622 575v-315q0 -127 -69.5 -199.5q-69.5 -72.5 -202.5 -72.5q-133 0 -202.5 72.5q-69.5 72.5 -69.5 198.5v408h83v-406q0 -93 49 -146q49 -53 140 -53q91 0 140 53q49 53 49 146v406h83v-53q29 15 50 41q21 26 23 53l-11 -1q-17 0 -28 11.5q-11 11.5 -11 29.5q0 18 12.5 30.5q12.5 12.5 30.5 12.5q21 0 35.5 -17q14.5 -17 14.5 -46q0 -49 -31.5 -90.5q-31.5 -41.5 -84.5 -62.5zt0 0zM152 867h78l148 -144l-57 0z" />
<glyph unicode="&#7916;" horiz-adv-x="700" d="M622 575v-315q0 -127 -69.5 -199.5q-69.5 -72.5 -202.5 -72.5q-133 0 -202.5 72.5q-69.5 72.5 -69.5 198.5v408h83v-406q0 -93 49 -146q49 -53 140 -53q91 0 140 53q49 53 49 146v406h83v-53q29 15 50 41q21 26 23 53l-11 -1q-17 0 -28 11.5q-11 11.5 -11 29.5q0 18 12.5 30.5q12.5 12.5 30.5 12.5q21 0 35.5 -17q14.5 -17 14.5 -46q0 -49 -31.5 -90.5q-31.5 -41.5 -84.5 -62.5zt0 0zM344 883q39 0 65.5 -22.5q26.5 -22.5 26.5 -67.5q0 -19 -5.5 -35q-5.5 -16 -18.5 -34l-51 0q29 32 29 68q0 25 -12.5 37.5q-12.5 12.5 -33.5 12.5q-38 0 -53 -42l-42 13q10 31 35 50.5t60 19.5z" />
<glyph unicode="&#7918;" horiz-adv-x="700" d="M622 575v-315q0 -127 -69.5 -199.5q-69.5 -72.5 -202.5 -72.5q-133 0 -202.5 72.5q-69.5 72.5 -69.5 198.5v408h83v-406q0 -93 49 -146q49 -53 140 -53q91 0 140 53q49 53 49 146v406h83v-53q29 15 50 41q21 26 23 53l-11 -1q-17 0 -28 11.5q-11 11.5 -11 29.5q0 18 12.5 30.5q12.5 12.5 30.5 12.5q21 0 35.5 -17q14.5 -17 14.5 -46q0 -49 -31.5 -90.5q-31.5 -41.5 -84.5 -62.5zt0 0zM287 813q-21 0 -34.5 -21.5q-13.5 -21.5 -13.5 -64.5l-45 0q0 60 25.5 97q25.5 37 71.5 37q26 0 41.5 -13.5q15.5 -13.5 33.5 -39.5q15 -21 24 -30q9 -9 24 -9q21 0 34.5 21.5q13.5 21.5 13.5 64.5l45 0q0 -60 -25.5 -97q-25.5 -37 -71.5 -37q-27 0 -42.5 13.5q-15.5 13.5 -33.5 39.5q-13 20 -22.5 29.5t-24.5 9.5z" />
<glyph unicode="&#7920;" horiz-adv-x="700" d="M622 575v-315q0 -127 -69.5 -199.5q-69.5 -72.5 -202.5 -72.5q-133 0 -202.5 72.5q-69.5 72.5 -69.5 198.5v408h83v-406q0 -93 49 -146q49 -53 140 -53q91 0 140 53q49 53 49 146v406h83v-53q29 15 50 41q21 26 23 53l-11 -1q-17 0 -28 11.5q-11 11.5 -11 29.5q0 18 12.5 30.5q12.5 12.5 30.5 12.5q21 0 35.5 -17q14.5 -17 14.5 -46q0 -49 -31.5 -90.5q-31.5 -41.5 -84.5 -62.5zt0 0zM350 -71q19 0 32.5 -14q13.5 -14 13.5 -33q0 -20 -13 -33.5q-13 -13.5 -33 -13.5q-19 0 -33 13.5q-14 13.5 -14 33.5q0 19 14 33t33 14z" />
<glyph unicode="&#7810;" horiz-adv-x="883" d="M441 538l-147 -538h-90l-190 667h92l148 -556l153 556h69l153 -556l147 556h92l-190 -667h-90zM410 723l148 144h78l-169 -144z" />
<glyph unicode="&#372;" horiz-adv-x="883" d="M441 538l-147 -538h-90l-190 667h92l148 -556l153 556h69l153 -556l147 556h92l-190 -667h-90zM441 829l-80 -106h-51l95 144h72l98 -144l-51 0z" />
<glyph unicode="&#7812;" horiz-adv-x="883" d="M441 538l-147 -538h-90l-190 667h92l148 -556l153 556h69l153 -556l147 556h92l-190 -667h-90zM292 780q0 19 13.5 32.5q13.5 13.5 32.5 13.5q19 0 32.5 -13.5q13.5 -13.5 13.5 -32.5q0 -20 -13.5 -33.5q-13.5 -13.5 -32.5 -13.5q-19 0 -32.5 14q-13.5 14 -13.5 33zt0 0zM498 780q0 19 14 32.5q14 13.5 33 13.5q19 0 32.5 -13.5q13.5 -13.5 13.5 -32.5q0 -19 -13.5 -33q-13.5 -14 -32.5 -14q-20 0 -33.5 14t-13.5 33z" />
<glyph unicode="&#7808;" horiz-adv-x="883" d="M441 538l-147 -538h-90l-190 667h92l148 -556l153 556h69l153 -556l147 556h92l-190 -667h-90zM243 867h78l148 -144l-57 0z" />
<glyph unicode="&#221;" horiz-adv-x="626" d="M272 282l-263 385h97l207 -310l207 310h97l-262 -385v-282h-83zM282 723l148 144h78l-169 -144z" />
<glyph unicode="&#374;" horiz-adv-x="626" d="M272 282l-263 385h97l207 -310l207 310h97l-262 -385v-282h-83zM313 829l-80 -106h-51l95 144h72l98 -144l-51 0z" />
<glyph unicode="&#376;" horiz-adv-x="626" d="M272 282l-263 385h97l207 -310l207 310h97l-262 -385v-282h-83zM164 780q0 19 13.5 32.5q13.5 13.5 32.5 13.5q19 0 32.5 -13.5q13.5 -13.5 13.5 -32.5q0 -20 -13.5 -33.5q-13.5 -13.5 -32.5 -13.5q-19 0 -32.5 14q-13.5 14 -13.5 33zt0 0zM370 780q0 19 14 32.5q14 13.5 33 13.5q19 0 32.5 -13.5q13.5 -13.5 13.5 -32.5q0 -19 -13.5 -33q-13.5 -14 -32.5 -14q-20 0 -33.5 14t-13.5 33z" />
<glyph unicode="&#7922;" horiz-adv-x="626" d="M272 282l-263 385h97l207 -310l207 310h97l-262 -385v-282h-83zM115 867h78l148 -144l-57 0z" />
<glyph unicode="&#562;" horiz-adv-x="626" d="M272 282l-263 385h97l207 -310l207 310h97l-262 -385v-282h-83zM159 787h307v-48l-307 0z" />
<glyph unicode="&#7924;" horiz-adv-x="626" d="M272 282l-263 385h97l207 -310l207 310h97l-262 -385v-282h-83zM313 -71q19 0 32.5 -14q13.5 -14 13.5 -33q0 -20 -13 -33.5q-13 -13.5 -33 -13.5q-19 0 -33 13.5q-14 13.5 -14 33.5q0 19 14 33t33 14z" />
<glyph unicode="&#7926;" horiz-adv-x="626" d="M272 282l-263 385h97l207 -310l207 310h97l-262 -385v-282h-83zM307 883q39 0 65.5 -22.5q26.5 -22.5 26.5 -67.5q0 -19 -5.5 -35q-5.5 -16 -18.5 -34l-51 0q29 32 29 68q0 25 -12.5 37.5q-12.5 12.5 -33.5 12.5q-38 0 -53 -42l-42 13q10 31 35 50.5t60 19.5z" />
<glyph unicode="&#7928;" horiz-adv-x="626" d="M272 282l-263 385h97l207 -310l207 310h97l-262 -385v-282h-83zM250 813q-21 0 -34.5 -21.5q-13.5 -21.5 -13.5 -64.5l-45 0q0 60 25.5 97q25.5 37 71.5 37q26 0 41.5 -13.5q15.5 -13.5 33.5 -39.5q15 -21 24 -30q9 -9 24 -9q21 0 34.5 21.5q13.5 21.5 13.5 64.5l45 0q0 -60 -25.5 -97q-25.5 -37 -71.5 -37q-27 0 -42.5 13.5q-15.5 13.5 -33.5 39.5q-13 20 -22.5 29.5t-24.5 9.5z" />
<glyph unicode="&#377;" horiz-adv-x="585" d="M48 69l375 524h-375v74h481v-69l-375 -524h382v-74h-488zM262 723l148 144h78l-169 -144z" />
<glyph unicode="&#381;" horiz-adv-x="585" d="M48 69l375 524h-375v74h481v-69l-375 -524h382v-74h-488zM159 867h51l83 -106l80 106h51l-95 -144l-72 0z" />
<glyph unicode="&#379;" horiz-adv-x="585" d="M48 69l375 524h-375v74h481v-69l-375 -524h382v-74h-488zM293 825q19 0 32.5 -13.5q13.5 -13.5 13.5 -33.5q0 -20 -13.5 -33.5q-13.5 -13.5 -32.5 -13.5q-19 0 -33 14q-14 14 -14 33q0 19 14 33t33 14z" />
<glyph unicode="&#208;" horiz-adv-x="728" d="M676 333q0 -95 -42.5 -170.5q-42.5 -75.5 -120.5 -119q-78 -43.5 -179 -43.5h-228v298h-96v63h96v306h228q101 0 179 -43.5q78 -43.5 120.5 -120q42.5 -76.5 42.5 -170.5zt0 0zM590 333q0 73 -30 132q-30 59 -88 93.5q-58 34.5 -138 34.5h-145v-232h170v-63h-170v-224h145q79 0 137 34.5q58 34.5 88.5 93.5t30.5 131z" />
<glyph unicode="&#222;" horiz-adv-x="587" d="M78 667h83v-119h185q65 0 112.5 -27q47.5 -27 72 -73.5q24.5 -46.5 24.5 -101.5q0 -55 -25 -100.5q-25 -45.5 -72.5 -72.5q-47.5 -27 -111.5 -27h-185v-146h-83zM336 474h-175v-254h175q59 0 96 35q37 35 37 91q0 56 -37 92t-96 36z" />
<glyph unicode="&#225;" horiz-adv-x="527" d="M377 55q-61 -67 -160 -67q-43 0 -81.5 18.5q-38.5 18.5 -63 55q-24.5 36.5 -24.5 86.5q0 51 24.5 87q24.5 36 63 54q38.5 18 81.5 18q103 0 160 -66l0 87q0 48 -34 75q-34 27 -88 27q-44 0 -80 -16.5q-36 -16.5 -68 -50.5l-35 52q39 41 86.5 60.5q47.5 19.5 106.5 19.5q83 0 135 -40q52 -40 52 -123v-332h-75zM377 193q-21 29 -56.5 44.5q-35.5 15.5 -76.5 15.5q-52 0 -85.5 -29.5q-33.5 -29.5 -33.5 -76.5q0 -46 33.5 -75.5q33.5 -29.5 85.5 -29.5q41 0 76.5 15.5q35.5 15.5 56.5 44.5zM235 556l148 144h78l-169 -144z" />
<glyph unicode="&#259;" horiz-adv-x="527" d="M377 55q-61 -67 -160 -67q-43 0 -81.5 18.5q-38.5 18.5 -63 55q-24.5 36.5 -24.5 86.5q0 51 24.5 87q24.5 36 63 54q38.5 18 81.5 18q103 0 160 -66l0 87q0 48 -34 75q-34 27 -88 27q-44 0 -80 -16.5q-36 -16.5 -68 -50.5l-35 52q39 41 86.5 60.5q47.5 19.5 106.5 19.5q83 0 135 -40q52 -40 52 -123v-332h-75zM377 193q-21 29 -56.5 44.5q-35.5 15.5 -76.5 15.5q-52 0 -85.5 -29.5q-33.5 -29.5 -33.5 -76.5q0 -46 33.5 -75.5q33.5 -29.5 85.5 -29.5q41 0 76.5 15.5q35.5 15.5 56.5 44.5zM90 638l37 32q25 -34 60.5 -53q35.5 -19 78.5 -19q43 0 78.5 19q35.5 19 59.5 53l37 -32q-31 -41 -76.5 -64.5q-45.5 -23.5 -98.5 -23.5q-53 0 -99 23.5t-77 64.5z" />
<glyph unicode="&#226;" horiz-adv-x="527" d="M377 55q-61 -67 -160 -67q-43 0 -81.5 18.5q-38.5 18.5 -63 55q-24.5 36.5 -24.5 86.5q0 51 24.5 87q24.5 36 63 54q38.5 18 81.5 18q103 0 160 -66l0 87q0 48 -34 75q-34 27 -88 27q-44 0 -80 -16.5q-36 -16.5 -68 -50.5l-35 52q39 41 86.5 60.5q47.5 19.5 106.5 19.5q83 0 135 -40q52 -40 52 -123v-332h-75zM377 193q-21 29 -56.5 44.5q-35.5 15.5 -76.5 15.5q-52 0 -85.5 -29.5q-33.5 -29.5 -33.5 -76.5q0 -46 33.5 -75.5q33.5 -29.5 85.5 -29.5q41 0 76.5 15.5q35.5 15.5 56.5 44.5zM266 662l-80 -106h-51l95 144h72l98 -144l-51 0z" />
<glyph unicode="&#228;" horiz-adv-x="527" d="M377 55q-61 -67 -160 -67q-43 0 -81.5 18.5q-38.5 18.5 -63 55q-24.5 36.5 -24.5 86.5q0 51 24.5 87q24.5 36 63 54q38.5 18 81.5 18q103 0 160 -66l0 87q0 48 -34 75q-34 27 -88 27q-44 0 -80 -16.5q-36 -16.5 -68 -50.5l-35 52q39 41 86.5 60.5q47.5 19.5 106.5 19.5q83 0 135 -40q52 -40 52 -123v-332h-75zM377 193q-21 29 -56.5 44.5q-35.5 15.5 -76.5 15.5q-52 0 -85.5 -29.5q-33.5 -29.5 -33.5 -76.5q0 -46 33.5 -75.5q33.5 -29.5 85.5 -29.5q41 0 76.5 15.5q35.5 15.5 56.5 44.5zM117 613q0 19 13.5 32.5q13.5 13.5 32.5 13.5q19 0 32.5 -13.5q13.5 -13.5 13.5 -32.5q0 -20 -13.5 -33.5q-13.5 -13.5 -32.5 -13.5q-19 0 -32.5 14q-13.5 14 -13.5 33zt0 0zM323 613q0 19 14 32.5q14 13.5 33 13.5q19 0 32.5 -13.5q13.5 -13.5 13.5 -32.5q0 -19 -13.5 -33q-13.5 -14 -32.5 -14q-20 0 -33.5 14t-13.5 33z" />
<glyph unicode="&#224;" horiz-adv-x="527" d="M377 55q-61 -67 -160 -67q-43 0 -81.5 18.5q-38.5 18.5 -63 55q-24.5 36.5 -24.5 86.5q0 51 24.5 87q24.5 36 63 54q38.5 18 81.5 18q103 0 160 -66l0 87q0 48 -34 75q-34 27 -88 27q-44 0 -80 -16.5q-36 -16.5 -68 -50.5l-35 52q39 41 86.5 60.5q47.5 19.5 106.5 19.5q83 0 135 -40q52 -40 52 -123v-332h-75zM377 193q-21 29 -56.5 44.5q-35.5 15.5 -76.5 15.5q-52 0 -85.5 -29.5q-33.5 -29.5 -33.5 -76.5q0 -46 33.5 -75.5q33.5 -29.5 85.5 -29.5q41 0 76.5 15.5q35.5 15.5 56.5 44.5zM68 700h78l148 -144l-57 0z" />
<glyph unicode="&#257;" horiz-adv-x="527" d="M377 55q-61 -67 -160 -67q-43 0 -81.5 18.5q-38.5 18.5 -63 55q-24.5 36.5 -24.5 86.5q0 51 24.5 87q24.5 36 63 54q38.5 18 81.5 18q103 0 160 -66l0 87q0 48 -34 75q-34 27 -88 27q-44 0 -80 -16.5q-36 -16.5 -68 -50.5l-35 52q39 41 86.5 60.5q47.5 19.5 106.5 19.5q83 0 135 -40q52 -40 52 -123v-332h-75zM377 193q-21 29 -56.5 44.5q-35.5 15.5 -76.5 15.5q-52 0 -85.5 -29.5q-33.5 -29.5 -33.5 -76.5q0 -46 33.5 -75.5q33.5 -29.5 85.5 -29.5q41 0 76.5 15.5q35.5 15.5 56.5 44.5zM112 620h307v-48l-307 0z" />
<glyph unicode="&#261;" horiz-adv-x="527" d="M358 -94q0 -18 12 -28.5q12 -10.5 30 -10.5q17 0 32 9l20 -45q-27 -17 -68 -17q-40 0 -69 19.5q-29 19.5 -29 55.5q0 32 28.5 61q28.5 29 74.5 50l-12 0v55q-61 -67 -160 -67q-43 0 -81.5 18.5q-38.5 18.5 -63 55q-24.5 36.5 -24.5 86.5q0 51 24.5 87q24.5 36 63 54q38.5 18 81.5 18q103 0 160 -66l0 87q0 48 -34 75q-34 27 -88 27q-44 0 -80 -16.5q-36 -16.5 -68 -50.5l-35 52q39 41 86.5 60.5q47.5 19.5 106.5 19.5q83 0 135 -40q52 -40 52 -123v-332q-44 -19 -69 -43q-25 -24 -25 -51zt0 0zM377 193q-21 29 -56.5 44.5q-35.5 15.5 -76.5 15.5q-52 0 -85.5 -29.5q-33.5 -29.5 -33.5 -76.5q0 -46 33.5 -75.5q33.5 -29.5 85.5 -29.5q41 0 76.5 15.5q35.5 15.5 56.5 44.5z" />
<glyph unicode="&#229;" horiz-adv-x="527" d="M377 55q-61 -67 -160 -67q-43 0 -81.5 18.5q-38.5 18.5 -63 55q-24.5 36.5 -24.5 86.5q0 51 24.5 87q24.5 36 63 54q38.5 18 81.5 18q103 0 160 -66l0 87q0 48 -34 75q-34 27 -88 27q-44 0 -80 -16.5q-36 -16.5 -68 -50.5l-35 52q39 41 86.5 60.5q47.5 19.5 106.5 19.5q83 0 135 -40q52 -40 52 -123v-332h-75zM377 193q-21 29 -56.5 44.5q-35.5 15.5 -76.5 15.5q-52 0 -85.5 -29.5q-33.5 -29.5 -33.5 -76.5q0 -46 33.5 -75.5q33.5 -29.5 85.5 -29.5q41 0 76.5 15.5q35.5 15.5 56.5 44.5zM266 740q40 0 69 -29q29 -29 29 -70q0 -40 -29 -69q-29 -29 -69 -29q-41 0 -69.5 29q-28.5 29 -28.5 69q0 41 29 70q29 29 69 29zt0 0zM266 700q-24 0 -41 -17q-17 -17 -17 -42q0 -24 17 -41.5q17 -17.5 41 -17.5q24 0 41 17.5q17 17.5 17 41.5q0 25 -16.5 42t-41.5 17z" />
<glyph unicode="&#507;" horiz-adv-x="527" d="M377 55q-61 -67 -160 -67q-43 0 -81.5 18.5q-38.5 18.5 -63 55q-24.5 36.5 -24.5 86.5q0 51 24.5 87q24.5 36 63 54q38.5 18 81.5 18q103 0 160 -66l0 87q0 48 -34 75q-34 27 -88 27q-44 0 -80 -16.5q-36 -16.5 -68 -50.5l-35 52q39 41 86.5 60.5q47.5 19.5 106.5 19.5q83 0 135 -40q52 -40 52 -123v-332h-75zM377 193q-21 29 -56.5 44.5q-35.5 15.5 -76.5 15.5q-52 0 -85.5 -29.5q-33.5 -29.5 -33.5 -76.5q0 -46 33.5 -75.5q33.5 -29.5 85.5 -29.5q41 0 76.5 15.5q35.5 15.5 56.5 44.5zM266 740q40 0 69 -29q29 -29 29 -70q0 -40 -29 -69q-29 -29 -69 -29q-41 0 -69.5 29q-28.5 29 -28.5 69q0 41 29 70q29 29 69 29zt0 0zM266 700q-24 0 -41 -17q-17 -17 -17 -42q0 -24 17 -41.5q17 -17.5 41 -17.5q24 0 41 17.5q17 17.5 17 41.5q0 25 -16.5 42q-16.5 17 -41.5 17zt0 0zM235 768l148 144h78l-169 -144z" />
<glyph unicode="&#227;" horiz-adv-x="527" d="M377 55q-61 -67 -160 -67q-43 0 -81.5 18.5q-38.5 18.5 -63 55q-24.5 36.5 -24.5 86.5q0 51 24.5 87q24.5 36 63 54q38.5 18 81.5 18q103 0 160 -66l0 87q0 48 -34 75q-34 27 -88 27q-44 0 -80 -16.5q-36 -16.5 -68 -50.5l-35 52q39 41 86.5 60.5q47.5 19.5 106.5 19.5q83 0 135 -40q52 -40 52 -123v-332h-75zM377 193q-21 29 -56.5 44.5q-35.5 15.5 -76.5 15.5q-52 0 -85.5 -29.5q-33.5 -29.5 -33.5 -76.5q0 -46 33.5 -75.5q33.5 -29.5 85.5 -29.5q41 0 76.5 15.5q35.5 15.5 56.5 44.5zM203 646q-21 0 -34.5 -21.5q-13.5 -21.5 -13.5 -64.5l-45 0q0 60 25.5 97q25.5 37 71.5 37q26 0 41.5 -13.5q15.5 -13.5 33.5 -39.5q15 -21 24 -30q9 -9 24 -9q21 0 34.5 21.5q13.5 21.5 13.5 64.5l45 0q0 -60 -25.5 -97q-25.5 -37 -71.5 -37q-27 0 -42.5 13.5q-15.5 13.5 -33.5 39.5q-13 20 -22.5 29.5t-24.5 9.5z" />
<glyph unicode="&#7841;" horiz-adv-x="527" d="M377 55q-61 -67 -160 -67q-43 0 -81.5 18.5q-38.5 18.5 -63 55q-24.5 36.5 -24.5 86.5q0 51 24.5 87q24.5 36 63 54q38.5 18 81.5 18q103 0 160 -66l0 87q0 48 -34 75q-34 27 -88 27q-44 0 -80 -16.5q-36 -16.5 -68 -50.5l-35 52q39 41 86.5 60.5q47.5 19.5 106.5 19.5q83 0 135 -40q52 -40 52 -123v-332h-75zM377 193q-21 29 -56.5 44.5q-35.5 15.5 -76.5 15.5q-52 0 -85.5 -29.5q-33.5 -29.5 -33.5 -76.5q0 -46 33.5 -75.5q33.5 -29.5 85.5 -29.5q41 0 76.5 15.5q35.5 15.5 56.5 44.5zM266 -71q19 0 32.5 -14q13.5 -14 13.5 -33q0 -20 -13 -33.5q-13 -13.5 -33 -13.5q-19 0 -33 13.5q-14 13.5 -14 33.5q0 19 14 33t33 14z" />
<glyph unicode="&#7843;" horiz-adv-x="527" d="M377 55q-61 -67 -160 -67q-43 0 -81.5 18.5q-38.5 18.5 -63 55q-24.5 36.5 -24.5 86.5q0 51 24.5 87q24.5 36 63 54q38.5 18 81.5 18q103 0 160 -66l0 87q0 48 -34 75q-34 27 -88 27q-44 0 -80 -16.5q-36 -16.5 -68 -50.5l-35 52q39 41 86.5 60.5q47.5 19.5 106.5 19.5q83 0 135 -40q52 -40 52 -123v-332h-75zM377 193q-21 29 -56.5 44.5q-35.5 15.5 -76.5 15.5q-52 0 -85.5 -29.5q-33.5 -29.5 -33.5 -76.5q0 -46 33.5 -75.5q33.5 -29.5 85.5 -29.5q41 0 76.5 15.5q35.5 15.5 56.5 44.5zM260 716q39 0 65.5 -22.5q26.5 -22.5 26.5 -67.5q0 -19 -5.5 -35q-5.5 -16 -18.5 -34l-51 0q29 32 29 68q0 25 -12.5 37.5q-12.5 12.5 -33.5 12.5q-38 0 -53 -42l-42 13q10 31 35 50.5t60 19.5z" />
<glyph unicode="&#7845;" horiz-adv-x="527" d="M377 55q-61 -67 -160 -67q-43 0 -81.5 18.5q-38.5 18.5 -63 55q-24.5 36.5 -24.5 86.5q0 51 24.5 87q24.5 36 63 54q38.5 18 81.5 18q103 0 160 -66l0 87q0 48 -34 75q-34 27 -88 27q-44 0 -80 -16.5q-36 -16.5 -68 -50.5l-35 52q39 41 86.5 60.5q47.5 19.5 106.5 19.5q83 0 135 -40q52 -40 52 -123v-332h-75zM377 193q-21 29 -56.5 44.5q-35.5 15.5 -76.5 15.5q-52 0 -85.5 -29.5q-33.5 -29.5 -33.5 -76.5q0 -46 33.5 -75.5q33.5 -29.5 85.5 -29.5q41 0 76.5 15.5q35.5 15.5 56.5 44.5zM266 662l-80 -106h-51l95 144h72l98 -144h-51zM368 656l148 144h78l-169 -144z" />
<glyph unicode="&#7853;" horiz-adv-x="527" d="M377 55q-61 -67 -160 -67q-43 0 -81.5 18.5q-38.5 18.5 -63 55q-24.5 36.5 -24.5 86.5q0 51 24.5 87q24.5 36 63 54q38.5 18 81.5 18q103 0 160 -66l0 87q0 48 -34 75q-34 27 -88 27q-44 0 -80 -16.5q-36 -16.5 -68 -50.5l-35 52q39 41 86.5 60.5q47.5 19.5 106.5 19.5q83 0 135 -40q52 -40 52 -123v-332h-75zM377 193q-21 29 -56.5 44.5q-35.5 15.5 -76.5 15.5q-52 0 -85.5 -29.5q-33.5 -29.5 -33.5 -76.5q0 -46 33.5 -75.5q33.5 -29.5 85.5 -29.5q41 0 76.5 15.5q35.5 15.5 56.5 44.5zM266 662l-80 -106h-51l95 144h72l98 -144h-51zM266 -71q19 0 32.5 -14q13.5 -14 13.5 -33q0 -20 -13 -33.5q-13 -13.5 -33 -13.5q-19 0 -33 13.5q-14 13.5 -14 33.5q0 19 14 33t33 14z" />
<glyph unicode="&#7847;" horiz-adv-x="527" d="M377 55q-61 -67 -160 -67q-43 0 -81.5 18.5q-38.5 18.5 -63 55q-24.5 36.5 -24.5 86.5q0 51 24.5 87q24.5 36 63 54q38.5 18 81.5 18q103 0 160 -66l0 87q0 48 -34 75q-34 27 -88 27q-44 0 -80 -16.5q-36 -16.5 -68 -50.5l-35 52q39 41 86.5 60.5q47.5 19.5 106.5 19.5q83 0 135 -40q52 -40 52 -123v-332h-75zM377 193q-21 29 -56.5 44.5q-35.5 15.5 -76.5 15.5q-52 0 -85.5 -29.5q-33.5 -29.5 -33.5 -76.5q0 -46 33.5 -75.5q33.5 -29.5 85.5 -29.5q41 0 76.5 15.5q35.5 15.5 56.5 44.5zM266 662l-80 -106h-51l95 144h72l98 -144h-51zM-58 800h78l148 -144l-57 0z" />
<glyph unicode="&#7849;" horiz-adv-x="527" d="M377 55q-61 -67 -160 -67q-43 0 -81.5 18.5q-38.5 18.5 -63 55q-24.5 36.5 -24.5 86.5q0 51 24.5 87q24.5 36 63 54q38.5 18 81.5 18q103 0 160 -66l0 87q0 48 -34 75q-34 27 -88 27q-44 0 -80 -16.5q-36 -16.5 -68 -50.5l-35 52q39 41 86.5 60.5q47.5 19.5 106.5 19.5q83 0 135 -40q52 -40 52 -123v-332h-75zM377 193q-21 29 -56.5 44.5q-35.5 15.5 -76.5 15.5q-52 0 -85.5 -29.5q-33.5 -29.5 -33.5 -76.5q0 -46 33.5 -75.5q33.5 -29.5 85.5 -29.5q41 0 76.5 15.5q35.5 15.5 56.5 44.5zM266 662l-80 -106h-51l95 144h72l98 -144h-51zM351 815q39 0 65.5 -22.5q26.5 -22.5 26.5 -67.5q0 -19 -5.5 -35q-5.5 -16 -18.5 -34l-51 0q29 32 29 68q0 25 -12.5 37.5q-12.5 12.5 -33.5 12.5q-38 0 -53 -42l-42 13q10 31 35 50.5t60 19.5z" />
<glyph unicode="&#7855;" horiz-adv-x="527" d="M377 55q-61 -67 -160 -67q-43 0 -81.5 18.5q-38.5 18.5 -63 55q-24.5 36.5 -24.5 86.5q0 51 24.5 87q24.5 36 63 54q38.5 18 81.5 18q103 0 160 -66l0 87q0 48 -34 75q-34 27 -88 27q-44 0 -80 -16.5q-36 -16.5 -68 -50.5l-35 52q39 41 86.5 60.5q47.5 19.5 106.5 19.5q83 0 135 -40q52 -40 52 -123v-332h-75zM377 193q-21 29 -56.5 44.5q-35.5 15.5 -76.5 15.5q-52 0 -85.5 -29.5q-33.5 -29.5 -33.5 -76.5q0 -46 33.5 -75.5q33.5 -29.5 85.5 -29.5q41 0 76.5 15.5q35.5 15.5 56.5 44.5zM90 638l37 32q25 -34 60.5 -53q35.5 -19 78.5 -19q43 0 78.5 19q35.5 19 59.5 53l37 -32q-31 -41 -76.5 -64.5q-45.5 -23.5 -98.5 -23.5q-53 0 -99 23.5q-46 23.5 -77 64.5zt0 0zM235 676l148 144h78l-169 -144z" />
<glyph unicode="&#7851;" horiz-adv-x="527" d="M377 55q-61 -67 -160 -67q-43 0 -81.5 18.5q-38.5 18.5 -63 55q-24.5 36.5 -24.5 86.5q0 51 24.5 87q24.5 36 63 54q38.5 18 81.5 18q103 0 160 -66l0 87q0 48 -34 75q-34 27 -88 27q-44 0 -80 -16.5q-36 -16.5 -68 -50.5l-35 52q39 41 86.5 60.5q47.5 19.5 106.5 19.5q83 0 135 -40q52 -40 52 -123v-332h-75zM377 193q-21 29 -56.5 44.5q-35.5 15.5 -76.5 15.5q-52 0 -85.5 -29.5q-33.5 -29.5 -33.5 -76.5q0 -46 33.5 -75.5q33.5 -29.5 85.5 -29.5q41 0 76.5 15.5q35.5 15.5 56.5 44.5zM266 662l-80 -106h-51l95 144h72l98 -144h-51zM203 808q-21 0 -34.5 -21.5q-13.5 -21.5 -13.5 -64.5l-45 0q0 60 25.5 97q25.5 37 71.5 37q26 0 41.5 -13.5q15.5 -13.5 33.5 -39.5q15 -21 24 -30q9 -9 24 -9q21 0 34.5 21.5q13.5 21.5 13.5 64.5l45 0q0 -60 -25.5 -97q-25.5 -37 -71.5 -37q-27 0 -42.5 13.5q-15.5 13.5 -33.5 39.5q-13 20 -22.5 29.5t-24.5 9.5z" />
<glyph unicode="&#7857;" horiz-adv-x="527" d="M377 55q-61 -67 -160 -67q-43 0 -81.5 18.5q-38.5 18.5 -63 55q-24.5 36.5 -24.5 86.5q0 51 24.5 87q24.5 36 63 54q38.5 18 81.5 18q103 0 160 -66l0 87q0 48 -34 75q-34 27 -88 27q-44 0 -80 -16.5q-36 -16.5 -68 -50.5l-35 52q39 41 86.5 60.5q47.5 19.5 106.5 19.5q83 0 135 -40q52 -40 52 -123v-332h-75zM377 193q-21 29 -56.5 44.5q-35.5 15.5 -76.5 15.5q-52 0 -85.5 -29.5q-33.5 -29.5 -33.5 -76.5q0 -46 33.5 -75.5q33.5 -29.5 85.5 -29.5q41 0 76.5 15.5q35.5 15.5 56.5 44.5zM90 638l37 32q25 -34 60.5 -53q35.5 -19 78.5 -19q43 0 78.5 19q35.5 19 59.5 53l37 -32q-31 -41 -76.5 -64.5q-45.5 -23.5 -98.5 -23.5q-53 0 -99 23.5q-46 23.5 -77 64.5zt0 0zM68 820h78l148 -144l-57 0z" />
<glyph unicode="&#7859;" horiz-adv-x="527" d="M377 55q-61 -67 -160 -67q-43 0 -81.5 18.5q-38.5 18.5 -63 55q-24.5 36.5 -24.5 86.5q0 51 24.5 87q24.5 36 63 54q38.5 18 81.5 18q103 0 160 -66l0 87q0 48 -34 75q-34 27 -88 27q-44 0 -80 -16.5q-36 -16.5 -68 -50.5l-35 52q39 41 86.5 60.5q47.5 19.5 106.5 19.5q83 0 135 -40q52 -40 52 -123v-332h-75zM377 193q-21 29 -56.5 44.5q-35.5 15.5 -76.5 15.5q-52 0 -85.5 -29.5q-33.5 -29.5 -33.5 -76.5q0 -46 33.5 -75.5q33.5 -29.5 85.5 -29.5q41 0 76.5 15.5q35.5 15.5 56.5 44.5zM90 638l37 32q25 -34 60.5 -53q35.5 -19 78.5 -19q43 0 78.5 19q35.5 19 59.5 53l37 -32q-31 -41 -76.5 -64.5q-45.5 -23.5 -98.5 -23.5q-53 0 -99 23.5q-46 23.5 -77 64.5zt0 0zM260 836q39 0 65.5 -22.5q26.5 -22.5 26.5 -67.5q0 -19 -5.5 -35q-5.5 -16 -18.5 -34l-51 0q29 32 29 68q0 25 -12.5 37.5q-12.5 12.5 -33.5 12.5q-38 0 -53 -42l-42 13q10 31 35 50.5t60 19.5z" />
<glyph unicode="&#7861;" horiz-adv-x="527" d="M377 55q-61 -67 -160 -67q-43 0 -81.5 18.5q-38.5 18.5 -63 55q-24.5 36.5 -24.5 86.5q0 51 24.5 87q24.5 36 63 54q38.5 18 81.5 18q103 0 160 -66l0 87q0 48 -34 75q-34 27 -88 27q-44 0 -80 -16.5q-36 -16.5 -68 -50.5l-35 52q39 41 86.5 60.5q47.5 19.5 106.5 19.5q83 0 135 -40q52 -40 52 -123v-332h-75zM377 193q-21 29 -56.5 44.5q-35.5 15.5 -76.5 15.5q-52 0 -85.5 -29.5q-33.5 -29.5 -33.5 -76.5q0 -46 33.5 -75.5q33.5 -29.5 85.5 -29.5q41 0 76.5 15.5q35.5 15.5 56.5 44.5zM90 638l37 32q25 -34 60.5 -53q35.5 -19 78.5 -19q43 0 78.5 19q35.5 19 59.5 53l37 -32q-31 -41 -76.5 -64.5q-45.5 -23.5 -98.5 -23.5q-53 0 -99 23.5q-46 23.5 -77 64.5zt0 0zM203 766q-21 0 -34.5 -21.5q-13.5 -21.5 -13.5 -64.5l-45 0q0 60 25.5 97q25.5 37 71.5 37q26 0 41.5 -13.5q15.5 -13.5 33.5 -39.5q15 -21 24 -30q9 -9 24 -9q21 0 34.5 21.5q13.5 21.5 13.5 64.5l45 0q0 -60 -25.5 -97q-25.5 -37 -71.5 -37q-27 0 -42.5 13.5q-15.5 13.5 -33.5 39.5q-13 20 -22.5 29.5t-24.5 9.5z" />
<glyph unicode="&#7863;" horiz-adv-x="527" d="M377 55q-61 -67 -160 -67q-43 0 -81.5 18.5q-38.5 18.5 -63 55q-24.5 36.5 -24.5 86.5q0 51 24.5 87q24.5 36 63 54q38.5 18 81.5 18q103 0 160 -66l0 87q0 48 -34 75q-34 27 -88 27q-44 0 -80 -16.5q-36 -16.5 -68 -50.5l-35 52q39 41 86.5 60.5q47.5 19.5 106.5 19.5q83 0 135 -40q52 -40 52 -123v-332h-75zM377 193q-21 29 -56.5 44.5q-35.5 15.5 -76.5 15.5q-52 0 -85.5 -29.5q-33.5 -29.5 -33.5 -76.5q0 -46 33.5 -75.5q33.5 -29.5 85.5 -29.5q41 0 76.5 15.5q35.5 15.5 56.5 44.5zM90 638l37 32q25 -34 60.5 -53q35.5 -19 78.5 -19q43 0 78.5 19q35.5 19 59.5 53l37 -32q-31 -41 -76.5 -64.5q-45.5 -23.5 -98.5 -23.5q-53 0 -99 23.5q-46 23.5 -77 64.5zt0 0zM266 -71q19 0 32.5 -14q13.5 -14 13.5 -33q0 -20 -13 -33.5q-13 -13.5 -33 -13.5q-19 0 -33 13.5q-14 13.5 -14 33.5q0 19 14 33t33 14z" />
<glyph unicode="&#230;" horiz-adv-x="889" d="M637 52q40 0 76 15.5q36 15.5 63 45.5l36 -51q-35 -36 -81 -55q-46 -19 -97 -19q-65 0 -114.5 28.5q-49.5 28.5 -78.5 87.5q-26 -52 -79.5 -84q-53.5 -32 -119.5 -32q-82 0 -138 42.5q-56 42.5 -56 117.5q0 50 24.5 86q24.5 36 65 54.5q40.5 18.5 88.5 18.5q112 0 175 -64l0 86q0 47 -36.5 74q-36.5 27 -96.5 27q-48 0 -87 -16q-39 -16 -74 -51l-35 52q79 80 205 80q64 0 111 -26q47 -26 60 -79q27 47 72 76q45 29 107 29q67 0 116 -34q49 -34 74.5 -93q25.5 -59 25.5 -132v-19h-367q5 -71 48 -118q43 -47 113 -47zt0 0zM622 433q-45 0 -77.5 -24q-32.5 -24 -49.5 -61q-17 -37 -19 -76l293 0q-1 39 -16.5 76q-15.5 37 -48.5 61q-33 24 -82 24zt0 0zM256 253q-59 0 -95 -27.5q-36 -27.5 -36 -73.5q0 -45 36 -72.5q36 -27.5 95 -27.5q41 0 74 18.5q33 18.5 52 48q19 29.5 19 61.5v12q-24 29 -63 45t-82 16z" />
<glyph unicode="&#509;" horiz-adv-x="889" d="M637 52q40 0 76 15.5q36 15.5 63 45.5l36 -51q-35 -36 -81 -55q-46 -19 -97 -19q-65 0 -114.5 28.5q-49.5 28.5 -78.5 87.5q-26 -52 -79.5 -84q-53.5 -32 -119.5 -32q-82 0 -138 42.5q-56 42.5 -56 117.5q0 50 24.5 86q24.5 36 65 54.5q40.5 18.5 88.5 18.5q112 0 175 -64l0 86q0 47 -36.5 74q-36.5 27 -96.5 27q-48 0 -87 -16q-39 -16 -74 -51l-35 52q79 80 205 80q64 0 111 -26q47 -26 60 -79q27 47 72 76q45 29 107 29q67 0 116 -34q49 -34 74.5 -93q25.5 -59 25.5 -132v-19h-367q5 -71 48 -118q43 -47 113 -47zt0 0zM622 433q-45 0 -77.5 -24q-32.5 -24 -49.5 -61q-17 -37 -19 -76l293 0q-1 39 -16.5 76q-15.5 37 -48.5 61q-33 24 -82 24zt0 0zM256 253q-59 0 -95 -27.5q-36 -27.5 -36 -73.5q0 -45 36 -72.5q36 -27.5 95 -27.5q41 0 74 18.5q33 18.5 52 48q19 29.5 19 61.5v12q-24 29 -63 45q-39 16 -82 16zt0 0zM410 556l148 144h78l-169 -144z" />
<glyph unicode="&#7683;" horiz-adv-x="575" d="M75 667h75v-257q30 40 72 62.5q42 22.5 91 22.5q63 0 111.5 -31.5q48.5 -31.5 76 -89q27.5 -57.5 27.5 -133.5q0 -77 -27.5 -134.5q-27.5 -57.5 -76 -88q-48.5 -30.5 -111.5 -30.5q-49 0 -92 23q-43 23 -71 61l0 -72h-75zM294 55q72 0 114 52q42 52 42 134q0 82 -42 134.5q-42 52.5 -114 52.5q-43 0 -83.5 -22.5q-40.5 -22.5 -60.5 -55.5l0 -219q20 -32 60.5 -54q40.5 -22 83.5 -22zt0 0zM294 825q19 0 32.5 -13.5q13.5 -13.5 13.5 -33.5q0 -20 -13.5 -33.5q-13.5 -13.5 -32.5 -13.5q-19 0 -33 14q-14 14 -14 33q0 19 14 33t33 14z" />
<glyph unicode="&#263;" horiz-adv-x="495" d="M288 495q62 0 104 -22q42 -22 73 -62l-50 -46q-46 63 -123 63q-76 0 -121.5 -52q-45.5 -52 -45.5 -134q0 -82 45.5 -134.5q45.5 -52.5 121.5 -52.5q76 0 123 63l50 -46q-31 -40 -73 -62q-42 -22 -104 -22q-71 0 -125.5 33q-54.5 33 -85 91q-30.5 58 -30.5 130q0 71 30.5 129q30.5 58 85 91q54.5 33 125.5 33zt0 0zM255 556l148 144h78l-169 -144z" />
<glyph unicode="&#231;" horiz-adv-x="495" d="M415 118l50 -46q-28 -37 -66 -58.5q-38 -21.5 -92 -24.5l-17 -44q16 11 37 11q29 0 47.5 -18q18.5 -18 18.5 -47q0 -37 -30 -59.5q-30 -22.5 -74 -22.5q-31 0 -58 8.5q-27 8.5 -43 21.5l19 38q35 -29 80 -29q26 0 43.5 11.5q17.5 11.5 17.5 32.5q0 15 -9.5 24q-9.5 9 -27.5 9q-10 0 -20.5 -4.5q-10.5 -4.5 -17.5 -12.5l-33 19l23 62q-64 6 -113 40.5q-49 34.5 -76 90q-27 55.5 -27 122.5q0 71 30.5 129q30.5 58 85 91q54.5 33 125.5 33q62 0 104 -22q42 -22 73 -62l-50 -46q-46 63 -123 63q-76 0 -121.5 -52q-45.5 -52 -45.5 -134q0 -82 45.5 -134.5q45.5 -52.5 121.5 -52.5q76 0 123 63z" />
<glyph unicode="&#265;" horiz-adv-x="495" d="M288 495q62 0 104 -22q42 -22 73 -62l-50 -46q-46 63 -123 63q-76 0 -121.5 -52q-45.5 -52 -45.5 -134q0 -82 45.5 -134.5q45.5 -52.5 121.5 -52.5q76 0 123 63l50 -46q-31 -40 -73 -62q-42 -22 -104 -22q-71 0 -125.5 33q-54.5 33 -85 91q-30.5 58 -30.5 130q0 71 30.5 129q30.5 58 85 91q54.5 33 125.5 33zt0 0zM286 662l-80 -106h-51l95 144h72l98 -144l-51 0z" />
<glyph unicode="&#267;" horiz-adv-x="495" d="M288 495q62 0 104 -22q42 -22 73 -62l-50 -46q-46 63 -123 63q-76 0 -121.5 -52q-45.5 -52 -45.5 -134q0 -82 45.5 -134.5q45.5 -52.5 121.5 -52.5q76 0 123 63l50 -46q-31 -40 -73 -62q-42 -22 -104 -22q-71 0 -125.5 33q-54.5 33 -85 91q-30.5 58 -30.5 130q0 71 30.5 129q30.5 58 85 91q54.5 33 125.5 33zt0 0zM286 658q19 0 32.5 -13.5q13.5 -13.5 13.5 -33.5q0 -20 -13.5 -33.5q-13.5 -13.5 -32.5 -13.5q-19 0 -33 14q-14 14 -14 33q0 19 14 33t33 14z" />
<glyph unicode="&#269;" horiz-adv-x="495" d="M288 495q62 0 104 -22q42 -22 73 -62l-50 -46q-46 63 -123 63q-76 0 -121.5 -52q-45.5 -52 -45.5 -134q0 -82 45.5 -134.5q45.5 -52.5 121.5 -52.5q76 0 123 63l50 -46q-31 -40 -73 -62q-42 -22 -104 -22q-71 0 -125.5 33q-54.5 33 -85 91q-30.5 58 -30.5 130q0 71 30.5 129q30.5 58 85 91q54.5 33 125.5 33zt0 0zM152 700h51l83 -106l80 106h51l-95 -144l-72 0z" />
<glyph unicode="&#271;" horiz-adv-x="644" d="M425 72q-28 -38 -71 -61q-43 -23 -92 -23q-63 0 -111.5 30.5q-48.5 30.5 -76 88q-27.5 57.5 -27.5 134.5q0 76 27 133.5q27 57.5 76 89q49 31.5 112 31.5q48 0 90.5 -22.5q42.5 -22.5 72.5 -62.5l0 257h75v-667h-75zM425 350q-21 33 -61.5 55.5q-40.5 22.5 -83.5 22.5q-71 0 -113 -52.5q-42 -52.5 -42 -134.5q0 -82 42 -134q42 -52 113 -52q44 0 84 22q40 22 61 54zM544 505q23 15 39.5 39.5q16.5 24.5 18.5 46.5q-6 -2 -11 -2q-18 0 -30 12.5q-12 12.5 -12 31.5q0 20 13.5 33.5q13.5 13.5 32.5 13.5q22 0 37.5 -18q15.5 -18 15.5 -49q0 -39 -20 -75q-20 -36 -51 -59z" />
<glyph unicode="&#273;" horiz-adv-x="577" d="M568 535h-68v-535h-75v72q-28 -38 -71 -61q-43 -23 -92 -23q-63 0 -111.5 30.5q-48.5 30.5 -76 88q-27.5 57.5 -27.5 134.5q0 76 27 133.5q27 57.5 76 89q49 31.5 112 31.5q48 0 90.5 -22.5q42.5 -22.5 72.5 -62.5l0 125h-157v48h157v84h75v-84h68zM425 350q-21 33 -61.5 55.5q-40.5 22.5 -83.5 22.5q-71 0 -113 -52.5q-42 -52.5 -42 -134.5q0 -82 42 -134q42 -52 113 -52q44 0 84 22q40 22 61 54z" />
<glyph unicode="&#7691;" horiz-adv-x="575" d="M425 72q-28 -38 -71 -61q-43 -23 -92 -23q-63 0 -111.5 30.5q-48.5 30.5 -76 88q-27.5 57.5 -27.5 134.5q0 76 27 133.5q27 57.5 76 89q49 31.5 112 31.5q48 0 90.5 -22.5q42.5 -22.5 72.5 -62.5l0 257h75v-667h-75zM425 350q-21 33 -61.5 55.5q-40.5 22.5 -83.5 22.5q-71 0 -113 -52.5q-42 -52.5 -42 -134.5q0 -82 42 -134q42 -52 113 -52q44 0 84 22q40 22 61 54zM290 825q19 0 32.5 -13.5q13.5 -13.5 13.5 -33.5q0 -20 -13.5 -33.5q-13.5 -13.5 -32.5 -13.5q-19 0 -33 14q-14 14 -14 33q0 19 14 33t33 14z" />
<glyph unicode="&#233;" horiz-adv-x="563" d="M285 495q71 0 123.5 -34q52.5 -34 80.5 -93q28 -59 28 -132v-19h-391q5 -71 52 -119q47 -48 122 -48q42 0 81.5 16q39.5 16 67.5 45l36 -49q-74 -74 -192 -74q-71 0 -127 32q-56 32 -87.5 90q-31.5 58 -31.5 132q0 69 31 127q31 58 85 92q54 34 122 34zt0 0zM126 272h317q-1 39 -18.5 76q-17.5 37 -53 61q-35.5 24 -87.5 24q-49 0 -84 -24q-35 -24 -53.5 -61q-18.5 -37 -20.5 -76zt0 0zM253 556l148 144h78l-169 -144z" />
<glyph unicode="&#277;" horiz-adv-x="563" d="M285 495q71 0 123.5 -34q52.5 -34 80.5 -93q28 -59 28 -132v-19h-391q5 -71 52 -119q47 -48 122 -48q42 0 81.5 16q39.5 16 67.5 45l36 -49q-74 -74 -192 -74q-71 0 -127 32q-56 32 -87.5 90q-31.5 58 -31.5 132q0 69 31 127q31 58 85 92q54 34 122 34zt0 0zM126 272h317q-1 39 -18.5 76q-17.5 37 -53 61q-35.5 24 -87.5 24q-49 0 -84 -24q-35 -24 -53.5 -61q-18.5 -37 -20.5 -76zt0 0zM108 638l37 32q25 -34 60.5 -53q35.5 -19 78.5 -19q43 0 78.5 19q35.5 19 59.5 53l37 -32q-31 -41 -76.5 -64.5q-45.5 -23.5 -98.5 -23.5q-53 0 -99 23.5t-77 64.5z" />
</font>
</defs>
</svg>
