<?xml version="1.0" encoding="UTF-8" standalone="no"?>
<!DOCTYPE svg PUBLIC "-//W3C//DTD SVG 1.1//EN" "http://www.w3.org/Graphics/SVG/1.1/DTD/svg11.dtd" >
<svg xmlns="http://www.w3.org/2000/svg">
<metadata>
Generated by SVGconv.
Copyright   : Copyright (c) Mark Simonson, 2005. All rights reserved.
Designer    : Mark Simonson
Foundry     : Mark Simonson Studio LLC
Foundry URL : http://www.marksimonson.com
</metadata>
<defs>
<font id="ProximaNova-Medium" horiz-adv-x="554" >
<font-face units-per-em="1000" ascent="920" descent="210" >
<font-face-src>
<font-face-name/>
</font-face-src>
</font-face>
<missing-glyph horiz-adv-x="500" />
<glyph unicode="&#13;" horiz-adv-x="0" />
<glyph unicode="&#32;" horiz-adv-x="258" />
<glyph unicode="&#160;" horiz-adv-x="258" />
<glyph unicode="&#8201;" horiz-adv-x="125" />
<glyph unicode="&#8202;" horiz-adv-x="56" />
<glyph unicode="&#8193;" horiz-adv-x="1000" />
<glyph unicode="&#8195;" horiz-adv-x="1000" />
<glyph unicode="&#8192;" horiz-adv-x="500" />
<glyph unicode="&#8194;" horiz-adv-x="500" />
<glyph unicode="&#8197;" horiz-adv-x="250" />
<glyph unicode="&#8198;" horiz-adv-x="167" />
<glyph unicode="&#8196;" horiz-adv-x="333" />
<glyph unicode="&#8199;" horiz-adv-x="605" />
<glyph unicode="&#8200;" horiz-adv-x="238" />
<glyph unicode="&#48;" horiz-adv-x="614" d="M307 677q88 0 146.5 -49.5q58.5 -49.5 86.5 -128q28 -78.5 28 -166.5q0 -88 -28 -166.5q-28 -78.5 -86.5 -128.5q-58.5 -50 -146.5 -50q-88 0 -146.5 50q-58.5 50 -86.5 128.5q-28 78.5 -28 166.5q0 88 28 166.5q28 78.5 86.5 128q58.5 49.5 146.5 49.5zt0 0zM307 588q-82 0 -120.5 -73q-38.5 -73 -38.5 -182q0 -109 38.5 -182.5q38.5 -73.5 120.5 -73.5q82 0 120.5 73.5q38.5 73.5 38.5 182.5q0 109 -38.5 182t-120.5 73z" />
<glyph unicode="&#49;" horiz-adv-x="359" d="M185 536l-108 -113l-59 61l179 183h88v-667l-100 0z" />
<glyph unicode="&#50;" horiz-adv-x="591" d="M52 79q139 107 214 172.5q75 65.5 113 119.5q38 54 38 105q0 55 -38 83.5q-38 28.5 -92 28.5q-57 0 -103 -22q-46 -22 -78 -60l-59 65q41 51 104.5 78.5q63.5 27.5 134.5 27.5q62 0 115 -23q53 -23 85.5 -68.5q32.5 -45.5 32.5 -109.5q0 -90 -76.5 -179q-76.5 -89 -231.5 -209l311 0v-88l-470 0z" />
<glyph unicode="&#51;" horiz-adv-x="565" d="M82 162q32 -39 81.5 -62q49.5 -23 104.5 -23q69 0 108 30.5q39 30.5 39 83.5q0 105 -157 105q-62 0 -72 -1l0 91q11 -1 72 -1q65 0 106 25q41 25 41 74q0 49 -40.5 76.5q-40.5 27.5 -102.5 27.5q-51 0 -93.5 -19.5q-42.5 -19.5 -80.5 -57.5l-53 62q40 47 100 75.5q60 28.5 136 28.5q104 0 169 -48q65 -48 65 -131q0 -64 -44 -104q-44 -40 -101 -50q35 -3 70.5 -22.5q35.5 -19.5 60 -55.5q24.5 -36 24.5 -85q0 -56 -29.5 -100q-29.5 -44 -85 -68.5q-55.5 -24.5 -129.5 -24.5q-83 0 -147 30.5q-64 30.5 -98 78.5z" />
<glyph unicode="&#52;" horiz-adv-x="569" d="M347 160h-317v82l280 425h137v-419h92v-88h-92v-160h-100zM129 248h218l0 328z" />
<glyph unicode="&#53;" horiz-adv-x="595" d="M120 161q68 -84 182 -84q64 0 104.5 37q40.5 37 40.5 93q0 60 -39 95.5q-39 35.5 -104 35.5q-44 0 -80.5 -14.5q-36.5 -14.5 -69.5 -45.5l-72 23v366h422v-88h-322v-213q26 26 66.5 42.5q40.5 16.5 86.5 16.5q57 0 105.5 -25.5q48.5 -25.5 78 -74q29.5 -48.5 29.5 -114.5q0 -67 -31.5 -117.5q-31.5 -50.5 -87.5 -78q-56 -27.5 -126 -27.5q-158 0 -242 105z" />
<glyph unicode="&#54;" horiz-adv-x="596" d="M329 677q116 0 188 -77l-49 -76q-28 32 -60 48q-32 16 -79 16q-58 0 -99 -33.5q-41 -33.5 -62 -88.5q-21 -55 -21 -119q0 -15 1 -22q24 38 75 68q51 30 108 30q61 0 111.5 -24.5q50.5 -24.5 80 -72.5q29.5 -48 29.5 -117q0 -60 -29.5 -110.5q-29.5 -50.5 -84.5 -80.5q-55 -30 -126 -30q-91 0 -151 46.5q-60 46.5 -87.5 124q-27.5 77.5 -27.5 173.5q0 96 31.5 174.5q31.5 78.5 95.5 124.5q64 46 156 46zt0 0zM306 337q-46 0 -88 -24.5q-42 -24.5 -69 -64.5q7 -70 45.5 -120.5q38.5 -50.5 112.5 -50.5q45 0 78 19q33 19 49.5 49q16.5 30 16.5 61q0 64 -41 97.5t-104 33.5z" />
<glyph unicode="&#55;" horiz-adv-x="523" d="M381 579h-352v88h468v-69l-266 -598l-110 0z" />
<glyph unicode="&#56;" horiz-adv-x="588" d="M201 344q-63 19 -103 59q-40 40 -40 100q0 58 34 97q34 39 88 58q54 19 115 19q60 0 114 -19q54 -19 88 -58.5q34 -39.5 34 -96.5q0 -60 -40.5 -100q-40.5 -40 -103.5 -59q66 -21 110 -66.5q44 -45.5 44 -107.5q0 -56 -33 -97.5q-33 -41.5 -89.5 -63q-56.5 -21.5 -123.5 -21.5q-69 0 -125.5 21.5q-56.5 21.5 -89.5 62.5q-33 41 -33 98q0 62 44 107.5q44 45.5 110 66.5zt0 0zM295 588q-60 0 -98 -27q-38 -27 -38 -73q0 -46 44 -71q44 -25 92 -33q48 8 91.5 33q43.5 25 43.5 71q0 46 -38.5 73q-38.5 27 -96.5 27zt0 0zM295 299q-26 -3 -60.5 -16.5q-34.5 -13.5 -60.5 -39q-26 -25.5 -26 -61.5q0 -47 42.5 -76q42.5 -29 104.5 -29q60 0 103 29q43 29 43 76q0 36 -26 61q-26 25 -60 39t-60 17z" />
<glyph unicode="&#57;" horiz-adv-x="596" d="M127 141q28 -31 60.5 -47q32.5 -16 79.5 -16q61 0 102 34q41 34 60.5 89q19.5 55 19.5 117v23q-26 -38 -77 -68.5q-51 -30.5 -107 -30.5q-61 0 -111.5 24.5q-50.5 24.5 -80.5 73q-30 48.5 -30 117.5q0 60 29.5 110.5q29.5 50.5 84.5 80.5q55 30 126 30q136 0 201.5 -97q65.5 -97 65.5 -248q0 -96 -32 -174q-32 -78 -95.5 -124q-63.5 -46 -155.5 -46q-116 0 -188 77zM288 589q-45 0 -77.5 -19q-32.5 -19 -49 -49q-16.5 -30 -16.5 -61q0 -64 41 -97.5q41 -33.5 104 -33.5q46 0 88 24q42 24 68 65q-5 68 -44 119.5t-114 51.5z" />
<glyph unicode="&#65;" horiz-adv-x="666" d="M496 138h-327l-54 -138h-110l265 667h125l265 -667h-110zM198 227h269l-135 353z" />
<glyph unicode="&#66;" horiz-adv-x="638" d="M74 667h313q87 0 137.5 -47.5q50.5 -47.5 50.5 -122.5q0 -60 -33.5 -101.5q-33.5 -41.5 -82.5 -51.5q35 -5 64.5 -29q29.5 -24 47 -59.5q17.5 -35.5 17.5 -75.5q0 -81 -51.5 -130.5q-51.5 -49.5 -141.5 -49.5h-321zM368 384q49 0 76.5 27q27.5 27 27.5 70q0 43 -27.5 70.5q-27.5 27.5 -76.5 27.5h-194v-195zM373 88q52 0 82 28q30 28 30 77q0 44 -29.5 73.5q-29.5 29.5 -82.5 29.5h-199l0 -208z" />
<glyph unicode="&#67;" horiz-adv-x="679" d="M46 333q0 100 45.5 179q45.5 79 123.5 122.5q78 43.5 173 43.5q171 0 265 -141l-85 -45q-27 44 -75 70.5q-48 26.5 -105 26.5q-67 0 -121.5 -33q-54.5 -33 -86 -91q-31.5 -58 -31.5 -132q0 -73 31.5 -131.5q31.5 -58.5 86 -91.5q54.5 -33 121.5 -33q57 0 105 26.5q48 26.5 75 70.5l85 -45q-96 -141 -265 -141q-95 0 -173 43.5q-78 43.5 -123.5 122.5t-45.5 179z" />
<glyph unicode="&#68;" horiz-adv-x="705" d="M74 667h238q102 0 180.5 -43q78.5 -43 122 -119.5q43.5 -76.5 43.5 -171.5q0 -96 -43 -171.5q-43 -75.5 -122 -118.5q-79 -43 -181 -43h-238zM312 88q75 0 130 32.5q55 32.5 84 88.5q29 56 29 124q0 69 -28.5 125q-28.5 56 -83.5 88.5q-55 32.5 -131 32.5h-138l0 -491z" />
<glyph unicode="&#69;" horiz-adv-x="573" d="M74 667h448v-88h-348v-195h341v-88h-341v-208h348v-88l-448 0z" />
<glyph unicode="&#70;" horiz-adv-x="556" d="M74 667h448v-88h-348v-195h341v-88h-341v-296l-100 0z" />
<glyph unicode="&#71;" horiz-adv-x="715" d="M392 678q165 0 264 -132l-81 -47q-30 40 -78.5 65q-48.5 25 -104.5 25q-69 0 -124.5 -32.5q-55.5 -32.5 -87 -91q-31.5 -58.5 -31.5 -132.5q0 -73 31.5 -132q31.5 -59 87 -92q55.5 -33 124.5 -33q51 0 96 20q45 20 73 46l0 120h-214v88h314v-245q-50 -55 -118.5 -86.5q-68.5 -31.5 -150.5 -31.5q-95 0 -174.5 43.5q-79.5 43.5 -125.5 122.5q-46 79 -46 180q0 101 46 180q46 79 125.5 122t174.5 43z" />
<glyph unicode="&#72;" horiz-adv-x="717" d="M543 298h-369v-298h-100v667h100v-280h369v280h100v-667l-100 0z" />
<glyph unicode="&#73;" horiz-adv-x="249" d="M74 667h100v-667l-100 0z" />
<glyph unicode="&#74;" horiz-adv-x="478" d="M58 137q53 -60 120 -60q57 0 91 35.5q34 35.5 34 94.5v460h100v-461q0 -107 -60 -162.5q-60 -55.5 -158 -55.5q-110 0 -175 73z" />
<glyph unicode="&#75;" horiz-adv-x="611" d="M237 290l-63 -71v-219h-100v667h100v-331l279 331h124l-275 -316l297 -351l-124 0z" />
<glyph unicode="&#76;" horiz-adv-x="513" d="M74 667h100v-579h303v-88l-403 0z" />
<glyph unicode="&#77;" horiz-adv-x="822" d="M648 530l-216 -530h-42l-216 530v-530h-100v667h143l194 -479l194 479h143v-667l-100 0z" />
<glyph unicode="&#78;" horiz-adv-x="714" d="M174 512v-512h-100v667h103l363 -500v500h100v-667l-97 0z" />
<glyph unicode="&#79;" horiz-adv-x="765" d="M382 678q98 0 174.5 -44.5q76.5 -44.5 119 -123.5q42.5 -79 42.5 -177q0 -98 -42.5 -177q-42.5 -79 -119 -123.5q-76.5 -44.5 -174.5 -44.5q-98 0 -174.5 44.5q-76.5 44.5 -119 123.5q-42.5 79 -42.5 177q0 98 42.5 177q42.5 79 119 123.5q76.5 44.5 174.5 44.5zt0 0zM382 589q-70 0 -123 -33q-53 -33 -81.5 -91.5q-28.5 -58.5 -28.5 -131.5q0 -73 28.5 -131.5q28.5 -58.5 81.5 -91.5q53 -33 123 -33q69 0 122 33.5q53 33.5 82 91.5q29 58 29 131q0 73 -29 131.5q-29 58.5 -82 91.5t-122 33z" />
<glyph unicode="&#80;" horiz-adv-x="597" d="M74 667h281q66 0 114.5 -27.5q48.5 -27.5 73.5 -74.5q25 -47 25 -103q0 -56 -25.5 -103q-25.5 -47 -73.5 -74.5q-48 -27.5 -114 -27.5h-181v-257h-100zM342 579h-168v-234h168q54 0 88.5 32.5q34.5 32.5 34.5 84.5q0 52 -34.5 84.5t-88.5 32.5z" />
<glyph unicode="&#81;" horiz-adv-x="765" d="M628 90l59 -65l-69 -59l-61 67q-78 -45 -175 -45q-98 0 -174.5 44.5q-76.5 44.5 -119 123.5q-42.5 79 -42.5 177q0 98 42.5 177q42.5 79 119 123.5q76.5 44.5 174.5 44.5q98 0 174.5 -44.5q76.5 -44.5 119 -123.5q42.5 -79 42.5 -177q0 -72 -23.5 -134.5q-23.5 -62.5 -66.5 -108.5zt0 0zM493 104l-89 98l70 59l88 -98q53 70 53 170q0 73 -29 131.5q-29 58.5 -82 91.5q-53 33 -122 33q-70 0 -123 -33q-53 -33 -81.5 -91.5q-28.5 -58.5 -28.5 -131.5q0 -73 28.5 -131.5q28.5 -58.5 81.5 -91.5q53 -33 123 -33q60 0 111 27z" />
<glyph unicode="&#82;" horiz-adv-x="618" d="M299 257h-125v-257h-100v667h281q63 0 111.5 -25.5q48.5 -25.5 75.5 -72q27 -46.5 27 -107.5q0 -85 -48.5 -135.5q-48.5 -50.5 -117.5 -59.5l171 -267h-116zM342 579h-168v-234h168q54 0 89 32.5q35 32.5 35 84.5q0 52 -35 84.5t-89 32.5z" />
<glyph unicode="&#83;" horiz-adv-x="590" d="M90 171q37 -41 91 -67.5q54 -26.5 119 -26.5q74 0 110 30.5q36 30.5 36 72.5q0 33 -21 53.5q-21 20.5 -53 32.5q-32 12 -87 26q-74 19 -119.5 37.5q-45.5 18.5 -78.5 56.5q-33 38 -33 101q0 54 30 97.5q30 43.5 84 68q54 24.5 122 24.5q152 0 243 -93l-58 -74q-37 39 -87 58.5q-50 19.5 -106 19.5q-56 0 -90.5 -26q-34.5 -26 -34.5 -68q0 -28 20 -46.5q20 -18.5 51 -29.5q31 -11 84 -24q75 -20 122 -39.5q47 -19.5 80.5 -59.5q33.5 -40 33.5 -106q0 -55 -26.5 -100.5q-26.5 -45.5 -83 -73q-56.5 -27.5 -142.5 -27.5q-86 0 -152 28q-66 28 -111 78z" />
<glyph unicode="&#84;" horiz-adv-x="573" d="M237 579h-207v88h513v-88h-206v-579l-100 0z" />
<glyph unicode="&#85;" horiz-adv-x="710" d="M74 667h101v-403q0 -87 47 -137q47 -50 133 -50q86 0 132.5 50q46.5 50 46.5 137v403h101v-405q0 -128 -71.5 -201q-71.5 -73 -208.5 -73q-137 0 -209 73.5q-72 73.5 -72 199.5z" />
<glyph unicode="&#86;" horiz-adv-x="666" d="M5 667h114l213 -558l214 558h114l-265 -667l-125 0z" />
<glyph unicode="&#87;" horiz-adv-x="893" d="M446 515l-138 -515h-107l-191 667h112l138 -535l146 535h81l145 -535l138 535h112l-190 -667l-107 0z" />
<glyph unicode="&#88;" horiz-adv-x="656" d="M328 272l-200 -272h-121l256 342l-241 325h121l185 -256l184 256h121l-239 -324l254 -343l-120 0z" />
<glyph unicode="&#89;" horiz-adv-x="632" d="M266 279l-261 388h115l196 -298l194 298h116l-260 -388v-279l-100 0z" />
<glyph unicode="&#90;" horiz-adv-x="587" d="M46 82l358 497h-358v88h487v-82l-358 -497h365v-88l-494 0z" />
<glyph unicode="&#97;" horiz-adv-x="532" d="M370 53q-29 -32 -69 -48.5q-40 -16.5 -89 -16.5q-42 0 -80.5 18.5q-38.5 18.5 -63 55q-24.5 36.5 -24.5 86.5q0 52 24 87.5q24 35.5 62.5 53q38.5 17.5 81.5 17.5q50 0 90.5 -16q40.5 -16 67.5 -48l0 80q0 44 -32.5 70q-32.5 26 -85.5 26q-81 0 -145 -64l-39 62q80 79 198 79q86 0 140 -41q54 -41 54 -128v-326h-90zM370 188q-20 27 -53 41q-33 14 -71 14q-49 0 -80 -26.5q-31 -26.5 -31 -69.5q0 -43 31 -69.5q31 -26.5 80 -26.5q38 0 71 14q33 14 53 41z" />
<glyph unicode="&#98;" horiz-adv-x="578" d="M72 667h90v-254q29 39 70 60.5q41 21.5 88 21.5q63 0 111.5 -31.5q48.5 -31.5 76 -89q27.5 -57.5 27.5 -133.5q0 -77 -27.5 -134.5q-27.5 -57.5 -76 -88q-48.5 -30.5 -111.5 -30.5q-47 0 -88.5 22q-41.5 22 -69.5 59l0 -69h-90zM296 68q67 0 106.5 48q39.5 48 39.5 125q0 77 -39.5 125.5q-39.5 48.5 -106.5 48.5q-40 0 -77.5 -21q-37.5 -21 -56.5 -51l0 -205q18 -30 56 -50t78 -20z" />
<glyph unicode="&#99;" horiz-adv-x="496" d="M288 495q118 0 181 -85l-60 -55q-42 60 -117 60q-70 0 -113 -48.5q-43 -48.5 -43 -124.5q0 -76 43 -125q43 -49 113 -49q74 0 117 60l60 -55q-63 -85 -181 -85q-72 0 -128 33q-56 33 -87 91q-31 58 -31 130q0 72 31 129.5q31 57.5 87 90.5t128 33z" />
<glyph unicode="&#100;" horiz-adv-x="578" d="M416 69q-28 -37 -69.5 -59q-41.5 -22 -88.5 -22q-63 0 -112 30.5q-49 30.5 -76.5 87.5q-27.5 57 -27.5 135q0 76 27.5 133.5q27.5 57.5 76.5 89q49 31.5 112 31.5q46 0 87.5 -21.5q41.5 -21.5 70.5 -60.5l0 254h90v-667h-90zM416 344q-19 30 -56.5 50.5q-37.5 20.5 -77.5 20.5q-67 0 -106.5 -48.5q-39.5 -48.5 -39.5 -125.5q0 -76 39.5 -124.5q39.5 -48.5 106.5 -48.5q40 0 77.5 20q37.5 20 56.5 50z" />
<glyph unicode="&#101;" horiz-adv-x="560" d="M284 495q71 0 124.5 -34q53.5 -34 82 -93.5q28.5 -59.5 28.5 -133.5v-22h-382q5 -64 49.5 -107q44.5 -43 114.5 -43q39 0 78 15q39 15 65 42l42 -59q-36 -35 -85.5 -53.5q-49.5 -18.5 -108.5 -18.5q-72 0 -128.5 32q-56.5 32 -89 89.5q-32.5 57.5 -32.5 132.5q0 69 31 127q31 58 86.5 92q55.5 34 124.5 34zt0 0zM136 277h295q-1 35 -17 68q-16 33 -49 54.5q-33 21.5 -81 21.5q-46 0 -78.5 -21.5q-32.5 -21.5 -49.5 -54.5t-20 -68z" />
<glyph unicode="&#102;" horiz-adv-x="296" d="M94 404h-80v79h80v32q0 76 40.5 119q40.5 43 106.5 43q48 0 79 -18l-21 -67q-19 11 -43 11q-34 0 -53 -22.5q-19 -22.5 -19 -65.5v-32h98v-79h-98v-404l-90 0z" />
<glyph unicode="&#103;" horiz-adv-x="577" d="M111 -58q29 -34 66.5 -49q37.5 -15 88.5 -15q63 0 106.5 33.5q43.5 33.5 43.5 104.5v63q-29 -38 -70.5 -60.5q-41.5 -22.5 -88.5 -22.5q-63 0 -111.5 30q-48.5 30 -76 86.5q-27.5 56.5 -27.5 133.5q0 76 27.5 132.5q27.5 56.5 76 86.5q48.5 30 111.5 30q47 0 88.5 -21.5q41.5 -21.5 70.5 -60.5l0 70h90v-464q0 -115 -68.5 -165q-68.5 -50 -171.5 -50q-63 0 -109.5 16q-46.5 16 -88.5 56zM416 344q-19 30 -56.5 50.5q-37.5 20.5 -77.5 20.5q-67 0 -106.5 -47q-39.5 -47 -39.5 -122q0 -76 39.5 -123q39.5 -47 106.5 -47q39 0 77 21q38 21 57 51z" />
<glyph unicode="&#104;" horiz-adv-x="560" d="M398 311q0 57 -26.5 80.5q-26.5 23.5 -76.5 23.5q-40 0 -76 -20.5q-36 -20.5 -57 -49.5l0 -345h-90v667h90v-252q27 33 73 56.5q46 23.5 98 23.5q155 0 155 -154v-341l-90 0z" />
<glyph unicode="&#105;" horiz-adv-x="233" d="M58 621q0 24 17.5 41q17.5 17 40.5 17q24 0 41 -17q17 -17 17 -41q0 -24 -17 -40.5q-17 -16.5 -41 -16.5q-24 0 -41 16.5q-17 16.5 -17 40.5zt0 0zM72 483h90v-483l-90 0z" />
<glyph unicode="&#106;" horiz-adv-x="233" d="M58 621q0 24 17.5 41q17.5 17 40.5 17q24 0 41 -17q17 -17 17 -41q0 -24 -17 -40.5q-17 -16.5 -41 -16.5q-24 0 -41 16.5q-17 16.5 -17 40.5zt0 0zM162 -38q0 -75 -39 -116.5q-39 -41.5 -112 -41.5q-31 0 -55 6l11 75q12 -4 33 -4q33 0 52.5 20q19.5 20 19.5 61v521l90 0z" />
<glyph unicode="&#107;" horiz-adv-x="520" d="M235 208l-73 -74v-134h-90v667h90v-429l233 245h113l-208 -219l210 -264l-114 0z" />
<glyph unicode="&#108;" horiz-adv-x="233" d="M72 667h90v-667l-90 0z" />
<glyph unicode="&#109;" horiz-adv-x="820" d="M659 322q0 44 -20.5 68.5q-20.5 24.5 -63.5 24.5q-35 0 -68 -20.5q-33 -20.5 -52 -48.5l0 -346h-90v322q0 93 -85 93q-33 0 -65.5 -20.5q-32.5 -20.5 -52.5 -49.5l0 -345h-90v483h90v-68q18 28 62.5 54q44.5 26 93.5 26q53 0 86 -24.5q33 -24.5 45 -65.5q23 37 68 63.5q45 26.5 95 26.5q67 0 102 -37q35 -37 35 -109v-349l-90 0z" />
<glyph unicode="&#110;" horiz-adv-x="559" d="M398 309q0 57 -26.5 81.5q-26.5 24.5 -76.5 24.5q-40 0 -76 -20.5q-36 -20.5 -57 -49.5l0 -345h-90v483h90v-68q27 33 73 56.5q46 23.5 98 23.5q76 0 115.5 -39.5q39.5 -39.5 39.5 -116.5v-339l-90 0z" />
<glyph unicode="&#111;" horiz-adv-x="572" d="M42 242q0 70 30 127.5q30 57.5 85.5 91.5q55.5 34 128.5 34q73 0 128.5 -34q55.5 -34 85.5 -91.5q30 -57.5 30 -127.5q0 -70 -30 -128q-30 -58 -85.5 -92q-55.5 -34 -128.5 -34q-73 0 -128.5 34q-55.5 34 -85.5 92q-30 58 -30 128zt0 0zM436 242q0 46 -17.5 86q-17.5 40 -51.5 63.5q-34 23.5 -81 23.5q-46 0 -80 -24q-34 -24 -52 -63.5q-18 -39.5 -18 -85.5q0 -47 18 -86.5q18 -39.5 52 -63.5q34 -24 80 -24q47 0 81 24q34 24 51.5 63.5t17.5 86.5z" />
<glyph unicode="&#112;" horiz-adv-x="577" d="M72 -184v667h90v-69q27 37 68.5 59q41.5 22 89.5 22q63 0 111.5 -30.5q48.5 -30.5 76 -87.5q27.5 -57 27.5 -135q0 -78 -27.5 -135.5q-27.5 -57.5 -76 -88q-48.5 -30.5 -111.5 -30.5q-47 0 -88 21q-41 21 -70 61l0 -254zM296 415q-40 0 -78 -20.5q-38 -20.5 -56 -50.5l0 -205q19 -30 56.5 -50.5q37.5 -20.5 77.5 -20.5q66 0 105.5 48.5q39.5 48.5 39.5 125.5q0 76 -39.5 124.5t-105.5 48.5z" />
<glyph unicode="&#113;" horiz-adv-x="577" d="M416 -184v254q-29 -40 -70.5 -61q-41.5 -21 -88.5 -21q-63 0 -111.5 30.5q-48.5 30.5 -76 88q-27.5 57.5 -27.5 135.5q0 78 27.5 135q27.5 57 76 87.5q48.5 30.5 111.5 30.5q48 0 89.5 -22q41.5 -22 69.5 -59l0 69h90v-667zM416 344q-19 30 -56.5 50.5q-37.5 20.5 -77.5 20.5q-67 0 -106.5 -48.5q-39.5 -48.5 -39.5 -124.5q0 -77 39.5 -125.5q39.5 -48.5 106.5 -48.5q39 0 77 20.5q38 20.5 57 50.5z" />
<glyph unicode="&#114;" horiz-adv-x="338" d="M72 483h90v-74q29 38 70.5 61.5q41.5 23.5 87.5 23.5l0 -91q-14 3 -31 3q-34 0 -72.5 -21.5q-38.5 -21.5 -54.5 -48.5l0 -336l-90 0z" />
<glyph unicode="&#115;" horiz-adv-x="468" d="M73 129q26 -29 71 -49q45 -20 91 -20q50 0 77 18.5q27 18.5 27 50.5q0 32 -30 48.5q-30 16.5 -87 29.5q-56 13 -91.5 26.5q-35.5 13.5 -61 42q-25.5 28.5 -25.5 76.5q0 39 22 71.5q22 32.5 63.5 52q41.5 19.5 98.5 19.5q111 0 184 -69l-40 -63q-22 26 -60 42.5q-38 16.5 -83 16.5q-46 0 -72.5 -17q-26.5 -17 -26.5 -46q0 -28 28 -42.5q28 -14.5 84 -27.5q58 -13 94.5 -27q36.5 -14 63 -44.5q26.5 -30.5 26.5 -81.5q0 -65 -51.5 -106.5q-51.5 -41.5 -143.5 -41.5q-61 0 -113 19q-52 19 -88 56z" />
<glyph unicode="&#116;" horiz-adv-x="306" d="M90 107v297h-80v79h80v132h90v-132h98v-79h-98v-277q0 -26 12 -42.5q12 -16.5 35 -16.5q15 0 28.5 5.5q13.5 5.5 20.5 13.5l23 -68q-33 -31 -94 -31q-57 0 -86 31t-29 88z" />
<glyph unicode="&#117;" horiz-adv-x="559" d="M398 66q-31 -34 -75.5 -56q-44.5 -22 -96.5 -22q-154 0 -154 154v341h90v-311q0 -57 26 -80.5q26 -23.5 76 -23.5q40 0 76 19.5q36 19.5 58 48.5l0 347h90v-483l-90 0z" />
<glyph unicode="&#118;" horiz-adv-x="497" d="M1 483h96l151 -379l151 379h97l-199 -483l-97 0z" />
<glyph unicode="&#119;" horiz-adv-x="744" d="M372 371l-119 -371h-93l-152 483h94l110 -368l121 368h78l121 -368l110 368h94l-152 -483l-93 0z" />
<glyph unicode="&#120;" horiz-adv-x="491" d="M246 188l-136 -188h-102l181 248l-170 235h102l125 -174l124 174h102l-171 -235l182 -248l-102 0z" />
<glyph unicode="&#121;" horiz-adv-x="497" d="M102 -116q26 0 42.5 10.5q16.5 10.5 27.5 36.5l28 64l-199 488h96l151 -379l151 379h97l-238 -575q-22 -55 -60.5 -79q-38.5 -24 -93.5 -25q-13 0 -29.5 2q-16.5 2 -26.5 5l14 81q18 -8 40 -8z" />
<glyph unicode="&#122;" horiz-adv-x="474" d="M49 69l252 335h-252v79h371v-67l-254 -338h258v-78l-375 0z" />
<glyph unicode="&#193;" horiz-adv-x="666" d="M496 138h-327l-54 -138h-110l265 667h125l265 -667h-110zM198 227h269l-135 353zM296 723l144 144h89l-167 -144z" />
<glyph unicode="&#258;" horiz-adv-x="666" d="M496 138h-327l-54 -138h-110l265 667h125l265 -667h-110zM198 227h269l-135 353zM156 807l43 36q23 -32 57 -50.5q34 -18.5 76 -18.5q41 0 75 18q34 18 58 51l42 -36q-31 -41 -76.5 -64.5q-45.5 -23.5 -98.5 -23.5q-53 0 -99 23.5t-77 64.5z" />
<glyph unicode="&#194;" horiz-adv-x="666" d="M496 138h-327l-54 -138h-110l265 667h125l265 -667h-110zM198 227h269l-135 353zM332 824l-78 -101h-58l94 144h84l97 -144l-59 0z" />
<glyph unicode="&#196;" horiz-adv-x="666" d="M496 138h-327l-54 -138h-110l265 667h125l265 -667h-110zM198 227h269l-135 353zM175 785q0 22 15.5 37q15.5 15 37.5 15q22 0 37 -15q15 -15 15 -37q0 -22 -15 -37.5q-15 -15.5 -37 -15.5q-22 0 -37.5 15.5q-15.5 15.5 -15.5 37.5zt0 0zM383 785q0 22 15.5 37q15.5 15 37.5 15q21 0 37 -15.5q16 -15.5 16 -36.5q0 -22 -16 -37.5q-16 -15.5 -37 -15.5q-22 0 -37.5 15.5t-15.5 37.5z" />
<glyph unicode="&#192;" horiz-adv-x="666" d="M496 138h-327l-54 -138h-110l265 667h125l265 -667h-110zM198 227h269l-135 353zM132 867h89l144 -144l-66 0z" />
<glyph unicode="&#256;" horiz-adv-x="666" d="M496 138h-327l-54 -138h-110l265 667h125l265 -667h-110zM198 227h269l-135 353zM174 791h315v-55l-315 0z" />
<glyph unicode="&#260;" horiz-adv-x="666" d="M548 -89q0 -16 11.5 -25.5q11.5 -9.5 27.5 -9.5q18 0 31 8l22 -53q-28 -17 -74 -17q-43 0 -72.5 20q-29.5 20 -29.5 56q0 33 29 61q29 28 76 49l-19 0l-54 138h-327l-54 -138h-110l265 667h125l265 -667h-20q-92 -37 -92 -89zt0 0zM467 227l-135 353l-134 -353z" />
<glyph unicode="&#197;" horiz-adv-x="666" d="M496 138h-327l-54 -138h-110l265 667h125l265 -667h-110zM198 227h269l-135 353zM333 908q41 0 70 -30q29 -30 29 -71q0 -41 -29 -71q-29 -30 -70 -30q-41 0 -70.5 30q-29.5 30 -29.5 71q0 41 29.5 71q29.5 30 70.5 30zt0 0zM333 862q-23 0 -39 -16q-16 -16 -16 -39q0 -23 16.5 -39.5q16.5 -16.5 38.5 -16.5q23 0 39 16.5q16 16.5 16 39.5q0 23 -16 39t-39 16z" />
<glyph unicode="&#506;" horiz-adv-x="666" d="M496 138h-327l-54 -138h-110l265 667h125l265 -667h-110zM198 227h269l-135 353zM333 908q41 0 70 -30q29 -30 29 -71q0 -41 -29 -71q-29 -30 -70 -30q-41 0 -70.5 30q-29.5 30 -29.5 71q0 41 29.5 71q29.5 30 70.5 30zt0 0zM333 862q-23 0 -39 -16q-16 -16 -16 -39q0 -23 16.5 -39.5q16.5 -16.5 38.5 -16.5q23 0 39 16.5q16 16.5 16 39.5q0 23 -16 39q-16 16 -39 16zt0 0zM296 935l144 144h89l-167 -144z" />
<glyph unicode="&#195;" horiz-adv-x="666" d="M496 138h-327l-54 -138h-110l265 667h125l265 -667h-110zM198 227h269l-135 353zM270 806q-20 0 -32.5 -20q-12.5 -20 -12.5 -59l-51 0q0 61 26 97.5q26 36.5 74 36.5q26 0 41.5 -12.5q15.5 -12.5 33.5 -36.5q14 -19 23.5 -27.5q9.5 -8.5 22.5 -8.5q20 0 32 20q12 20 12 59l52 0q0 -61 -26 -97.5q-26 -36.5 -74 -36.5q-27 0 -42.5 12.5q-15.5 12.5 -33.5 36.5q-12 18 -22 27t-23 9z" />
<glyph unicode="&#7840;" horiz-adv-x="666" d="M496 138h-327l-54 -138h-110l265 667h125l265 -667h-110zM198 227h269l-135 353zM332 -65q22 0 37 -15.5q15 -15.5 15 -37.5q0 -22 -15 -37.5q-15 -15.5 -37 -15.5q-22 0 -37.5 15.5q-15.5 15.5 -15.5 37.5q0 22 15.5 37.5t37.5 15.5z" />
<glyph unicode="&#7842;" horiz-adv-x="666" d="M496 138h-327l-54 -138h-110l265 667h125l265 -667h-110zM198 227h269l-135 353zM325 883q41 0 68.5 -23q27.5 -23 27.5 -68q0 -19 -5.5 -34q-5.5 -15 -18.5 -34l-56 0q28 31 28 67q0 23 -12 35q-12 12 -32 12q-35 0 -50 -41l-47 15q11 33 36 52t61 19z" />
<glyph unicode="&#7844;" horiz-adv-x="666" d="M439 780l144 108h89l-167 -108zM332 781l-78 -76h-58l94 108h84l97 -108h-59zM496 138h-327l-54 -138h-110l265 667h125l265 -667h-110zM198 227h269l-135 353z" />
<glyph unicode="&#7852;" horiz-adv-x="666" d="M496 138h-327l-54 -138h-110l265 667h125l265 -667h-110zM198 227h269l-135 353zM332 824l-78 -101h-58l94 144h84l97 -144h-59zM332 -65q22 0 37 -15.5q15 -15.5 15 -37.5q0 -22 -15 -37.5q-15 -15.5 -37 -15.5q-22 0 -37.5 15.5q-15.5 15.5 -15.5 37.5q0 22 15.5 37.5t37.5 15.5z" />
<glyph unicode="&#7846;" horiz-adv-x="666" d="M-4 888h89l144 -108h-66zM332 781l-78 -76h-58l94 108h84l97 -108h-59zM496 138h-327l-54 -138h-110l265 667h125l265 -667h-110zM198 227h269l-135 353z" />
<glyph unicode="&#7848;" horiz-adv-x="666" d="M424 899q41 0 68.5 -17q27.5 -17 27.5 -51q0 -14 -6 -25.5q-6 -11.5 -18 -25.5l-56 0q28 22 28 50q0 17 -12 26q-12 9 -32 9q-35 0 -50 -30l-47 11q11 24 36 38.5q25 14.5 61 14.5zt0 0zM332 781l-78 -76h-58l94 108h84l97 -108h-59zM496 138h-327l-54 -138h-110l265 667h125l265 -667h-110zM198 227h269l-135 353z" />
<glyph unicode="&#7854;" horiz-adv-x="666" d="M296 806l144 108h89l-167 -108zM156 776l43 29q23 -26 57 -40.5q34 -14.5 76 -14.5q41 0 75.5 14.5q34.5 14.5 57.5 40.5l42 -29q-30 -33 -76 -51.5q-46 -18.5 -99 -18.5q-53 0 -99 18.5q-46 18.5 -77 51.5zt0 0zM496 138h-327l-54 -138h-110l265 667h125l265 -667h-110zM198 227h269l-135 353z" />
<glyph unicode="&#7850;" horiz-adv-x="666" d="M270 888q-20 0 -32.5 -15q-12.5 -15 -12.5 -44l-51 0q0 46 26 73.5q26 27.5 74 27.5q26 0 41.5 -9.5q15.5 -9.5 33.5 -27.5q14 -14 23.5 -20.5q9.5 -6.5 22.5 -6.5q20 0 32 15q12 15 12 44l52 0q0 -46 -26 -73q-26 -27 -74 -27q-27 0 -42.5 9.5q-15.5 9.5 -33.5 26.5q-12 14 -21.5 20.5q-9.5 6.5 -23.5 6.5zt0 0zM332 781l-78 -76h-58l94 108h84l97 -108h-59zM496 138h-327l-54 -138h-110l265 667h125l265 -667h-110zM198 227h269l-135 353z" />
<glyph unicode="&#7856;" horiz-adv-x="666" d="M132 914h89l144 -108h-66zM156 776l43 29q23 -26 57 -40.5q34 -14.5 76 -14.5q41 0 75.5 14.5q34.5 14.5 57.5 40.5l42 -29q-30 -33 -76 -51.5q-46 -18.5 -99 -18.5q-53 0 -99 18.5q-46 18.5 -77 51.5zt0 0zM496 138h-327l-54 -138h-110l265 667h125l265 -667h-110zM198 227h269l-135 353z" />
<glyph unicode="&#7858;" horiz-adv-x="666" d="M325 926q41 0 68.5 -17q27.5 -17 27.5 -51q0 -14 -6 -25.5q-6 -11.5 -18 -25.5l-56 0q28 22 28 50q0 17 -12 26q-12 9 -32 9q-35 0 -50 -30l-47 11q11 24 36 38.5q25 14.5 61 14.5zt0 0zM156 776l43 29q23 -26 57 -40.5q34 -14.5 76 -14.5q41 0 75.5 14.5q34.5 14.5 57.5 40.5l42 -29q-30 -33 -76 -51.5q-46 -18.5 -99 -18.5q-53 0 -99 18.5q-46 18.5 -77 51.5zt0 0zM496 138h-327l-54 -138h-110l265 667h125l265 -667h-110zM198 227h269l-135 353z" />
<glyph unicode="&#7860;" horiz-adv-x="666" d="M270 861q-20 0 -32.5 -15q-12.5 -15 -12.5 -44l-51 0q0 46 26 73.5q26 27.5 74 27.5q26 0 41.5 -9.5q15.5 -9.5 33.5 -27.5q14 -14 23.5 -20.5q9.5 -6.5 22.5 -6.5q20 0 32 15q12 15 12 44l52 0q0 -46 -26 -73q-26 -27 -74 -27q-27 0 -42.5 9.5q-15.5 9.5 -33.5 26.5q-12 14 -21.5 20.5q-9.5 6.5 -23.5 6.5zt0 0zM156 768l43 27q23 -24 57.5 -38q34.5 -14 75.5 -14q41 0 75 14q34 14 58 38l42 -27q-31 -31 -76.5 -48.5q-45.5 -17.5 -98.5 -17.5q-52 0 -98.5 17.5q-46.5 17.5 -77.5 48.5zt0 0zM496 138h-327l-54 -138h-110l265 667h125l265 -667h-110zM198 227h269l-135 353z" />
<glyph unicode="&#7862;" horiz-adv-x="666" d="M496 138h-327l-54 -138h-110l265 667h125l265 -667h-110zM198 227h269l-135 353zM156 807l43 36q23 -32 57 -50.5q34 -18.5 76 -18.5q41 0 75 18q34 18 58 51l42 -36q-31 -41 -76.5 -64.5q-45.5 -23.5 -98.5 -23.5q-53 0 -99 23.5q-46 23.5 -77 64.5zt0 0zM332 -65q22 0 37 -15.5q15 -15.5 15 -37.5q0 -22 -15 -37.5q-15 -15.5 -37 -15.5q-22 0 -37.5 15.5q-15.5 15.5 -15.5 37.5q0 22 15.5 37.5t37.5 15.5z" />
<glyph unicode="&#198;" horiz-adv-x="953" d="M455 138h-258l-85 -138h-109l413 667h487v-88h-348v-195h341v-88h-341v-208h348v-88h-448zM245 227h210l0 354z" />
<glyph unicode="&#508;" horiz-adv-x="953" d="M455 138h-258l-85 -138h-109l413 667h487v-88h-348v-195h341v-88h-341v-208h348v-88h-448zM245 227h210v354zM468 723l144 144h89l-167 -144z" />
<glyph unicode="&#7682;" horiz-adv-x="638" d="M74 667h313q87 0 137.5 -47.5q50.5 -47.5 50.5 -122.5q0 -60 -33.5 -101.5q-33.5 -41.5 -82.5 -51.5q35 -5 64.5 -29q29.5 -24 47 -59.5q17.5 -35.5 17.5 -75.5q0 -81 -51.5 -130.5q-51.5 -49.5 -141.5 -49.5h-321zM368 384q49 0 76.5 27q27.5 27 27.5 70q0 43 -27.5 70.5q-27.5 27.5 -76.5 27.5h-194v-195zM373 88q52 0 82 28q30 28 30 77q0 44 -29.5 73.5q-29.5 29.5 -82.5 29.5h-199v-208zM316 837q21 0 36.5 -16q15.5 -16 15.5 -37q0 -22 -15 -37.5q-15 -15.5 -37 -15.5q-22 0 -37.5 15.5q-15.5 15.5 -15.5 37.5q0 21 15.5 37t37.5 16z" />
<glyph unicode="&#262;" horiz-adv-x="679" d="M46 333q0 100 45.5 179q45.5 79 123.5 122.5q78 43.5 173 43.5q171 0 265 -141l-85 -45q-27 44 -75 70.5q-48 26.5 -105 26.5q-67 0 -121.5 -33q-54.5 -33 -86 -91q-31.5 -58 -31.5 -132q0 -73 31.5 -131.5q31.5 -58.5 86 -91.5q54.5 -33 121.5 -33q57 0 105 26.5q48 26.5 75 70.5l85 -45q-96 -141 -265 -141q-95 0 -173 43.5q-78 43.5 -123.5 122.5q-45.5 79 -45.5 179zt0 0zM352 723l144 144h89l-167 -144z" />
<glyph unicode="&#199;" horiz-adv-x="679" d="M568 174l85 -45q-92 -133 -247 -141l-17 -42q16 11 37 11q29 0 47.5 -18.5q18.5 -18.5 18.5 -47.5q0 -38 -30.5 -61q-30.5 -23 -75.5 -23q-31 0 -59 9q-28 9 -44 22l20 42q36 -29 81 -29q25 0 42 10.5q17 10.5 17 30.5q0 14 -9 22q-9 8 -27 8q-10 0 -19.5 -4q-9.5 -4 -15.5 -11l-38 21l23 61q-88 8 -158.5 53q-70.5 45 -111.5 120.5q-41 75.5 -41 170.5q0 100 45.5 179q45.5 79 123.5 122.5q78 43.5 173 43.5q171 0 265 -141l-85 -45q-27 44 -75 70.5q-48 26.5 -105 26.5q-67 0 -121.5 -33q-54.5 -33 -86 -91q-31.5 -58 -31.5 -132q0 -73 31.5 -131.5q31.5 -58.5 86 -91.5q54.5 -33 121.5 -33q57 0 105 26.5t75 70.5z" />
<glyph unicode="&#264;" horiz-adv-x="679" d="M46 333q0 100 45.5 179q45.5 79 123.5 122.5q78 43.5 173 43.5q171 0 265 -141l-85 -45q-27 44 -75 70.5q-48 26.5 -105 26.5q-67 0 -121.5 -33q-54.5 -33 -86 -91q-31.5 -58 -31.5 -132q0 -73 31.5 -131.5q31.5 -58.5 86 -91.5q54.5 -33 121.5 -33q57 0 105 26.5q48 26.5 75 70.5l85 -45q-96 -141 -265 -141q-95 0 -173 43.5q-78 43.5 -123.5 122.5q-45.5 79 -45.5 179zt0 0zM388 824l-78 -101h-58l94 144h84l97 -144l-59 0z" />
<glyph unicode="&#266;" horiz-adv-x="679" d="M46 333q0 100 45.5 179q45.5 79 123.5 122.5q78 43.5 173 43.5q171 0 265 -141l-85 -45q-27 44 -75 70.5q-48 26.5 -105 26.5q-67 0 -121.5 -33q-54.5 -33 -86 -91q-31.5 -58 -31.5 -132q0 -73 31.5 -131.5q31.5 -58.5 86 -91.5q54.5 -33 121.5 -33q57 0 105 26.5q48 26.5 75 70.5l85 -45q-96 -141 -265 -141q-95 0 -173 43.5q-78 43.5 -123.5 122.5q-45.5 79 -45.5 179zt0 0zM388 837q21 0 36.5 -16q15.5 -16 15.5 -37q0 -22 -15 -37.5q-15 -15.5 -37 -15.5q-22 0 -37.5 15.5q-15.5 15.5 -15.5 37.5q0 21 15.5 37t37.5 16z" />
<glyph unicode="&#268;" horiz-adv-x="679" d="M46 333q0 100 45.5 179q45.5 79 123.5 122.5q78 43.5 173 43.5q171 0 265 -141l-85 -45q-27 44 -75 70.5q-48 26.5 -105 26.5q-67 0 -121.5 -33q-54.5 -33 -86 -91q-31.5 -58 -31.5 -132q0 -73 31.5 -131.5q31.5 -58.5 86 -91.5q54.5 -33 121.5 -33q57 0 105 26.5q48 26.5 75 70.5l85 -45q-96 -141 -265 -141q-95 0 -173 43.5q-78 43.5 -123.5 122.5q-45.5 79 -45.5 179zt0 0zM249 867h58l81 -102l77 102h59l-94 -144l-84 0z" />
<glyph unicode="&#270;" horiz-adv-x="705" d="M74 667h238q102 0 180.5 -43q78.5 -43 122 -119.5q43.5 -76.5 43.5 -171.5q0 -96 -43 -171.5q-43 -75.5 -122 -118.5q-79 -43 -181 -43h-238zM312 88q75 0 130 32.5q55 32.5 84 88.5q29 56 29 124q0 69 -28.5 125q-28.5 56 -83.5 88.5q-55 32.5 -131 32.5h-138v-491zM215 867h58l81 -102l77 102h59l-94 -144l-84 0z" />
<glyph unicode="&#272;" horiz-adv-x="732" d="M685 333q0 -96 -43 -171.5q-43 -75.5 -122 -118.5q-79 -43 -181 -43h-238v291h-91v75h91v301h238q102 0 180.5 -43q78.5 -43 122 -119.5q43.5 -76.5 43.5 -171.5zt0 0zM582 333q0 69 -28.5 125q-28.5 56 -83.5 88.5q-55 32.5 -131 32.5h-138v-213h164v-75h-164v-203h138q75 0 130 32.5q55 32.5 84 88.5t29 124z" />
<glyph unicode="&#7690;" horiz-adv-x="705" d="M74 667h238q102 0 180.5 -43q78.5 -43 122 -119.5q43.5 -76.5 43.5 -171.5q0 -96 -43 -171.5q-43 -75.5 -122 -118.5q-79 -43 -181 -43h-238zM312 88q75 0 130 32.5q55 32.5 84 88.5q29 56 29 124q0 69 -28.5 125q-28.5 56 -83.5 88.5q-55 32.5 -131 32.5h-138v-491zM354 837q21 0 36.5 -16q15.5 -16 15.5 -37q0 -22 -15 -37.5q-15 -15.5 -37 -15.5q-22 0 -37.5 15.5q-15.5 15.5 -15.5 37.5q0 21 15.5 37t37.5 16z" />
<glyph unicode="&#201;" horiz-adv-x="573" d="M74 667h448v-88h-348v-195h341v-88h-341v-208h348v-88h-448zM268 723l144 144h89l-167 -144z" />
<glyph unicode="&#276;" horiz-adv-x="573" d="M74 667h448v-88h-348v-195h341v-88h-341v-208h348v-88h-448zM128 807l43 36q23 -32 57 -50.5q34 -18.5 76 -18.5q41 0 75 18q34 18 58 51l42 -36q-31 -41 -76.5 -64.5q-45.5 -23.5 -98.5 -23.5q-53 0 -99 23.5t-77 64.5z" />
<glyph unicode="&#202;" horiz-adv-x="573" d="M74 667h448v-88h-348v-195h341v-88h-341v-208h348v-88h-448zM304 824l-78 -101h-58l94 144h84l97 -144l-59 0z" />
<glyph unicode="&#203;" horiz-adv-x="573" d="M74 667h448v-88h-348v-195h341v-88h-341v-208h348v-88h-448zM147 785q0 22 15.5 37q15.5 15 37.5 15q22 0 37 -15q15 -15 15 -37q0 -22 -15 -37.5q-15 -15.5 -37 -15.5q-22 0 -37.5 15.5q-15.5 15.5 -15.5 37.5zt0 0zM355 785q0 22 15.5 37q15.5 15 37.5 15q21 0 37 -15.5q16 -15.5 16 -36.5q0 -22 -16 -37.5q-16 -15.5 -37 -15.5q-22 0 -37.5 15.5t-15.5 37.5z" />
<glyph unicode="&#278;" horiz-adv-x="573" d="M74 667h448v-88h-348v-195h341v-88h-341v-208h348v-88h-448zM304 837q21 0 36.5 -16q15.5 -16 15.5 -37q0 -22 -15 -37.5q-15 -15.5 -37 -15.5q-22 0 -37.5 15.5q-15.5 15.5 -15.5 37.5q0 21 15.5 37t37.5 16z" />
<glyph unicode="&#200;" horiz-adv-x="573" d="M74 667h448v-88h-348v-195h341v-88h-341v-208h348v-88h-448zM104 867h89l144 -144l-66 0z" />
<glyph unicode="&#274;" horiz-adv-x="573" d="M74 667h448v-88h-348v-195h341v-88h-341v-208h348v-88h-448zM146 791h315v-55l-315 0z" />
<glyph unicode="&#280;" horiz-adv-x="573" d="M174 579v-195h341v-88h-341v-208h348v-88q-92 -37 -92 -89q0 -16 11.5 -25.5q11.5 -9.5 27.5 -9.5q18 0 31 8l22 -53q-28 -17 -74 -17q-43 0 -72.5 20q-29.5 20 -29.5 56q0 33 29 61q29 28 76 49l-377 0v667h448l0 -88z" />
<glyph unicode="&#282;" horiz-adv-x="573" d="M74 667h448v-88h-348v-195h341v-88h-341v-208h348v-88h-448zM165 867h58l81 -102l77 102h59l-94 -144l-84 0z" />
<glyph unicode="&#7864;" horiz-adv-x="573" d="M74 667h448v-88h-348v-195h341v-88h-341v-208h348v-88h-448zM304 -65q22 0 37 -15.5q15 -15.5 15 -37.5q0 -22 -15 -37.5q-15 -15.5 -37 -15.5q-22 0 -37.5 15.5q-15.5 15.5 -15.5 37.5q0 22 15.5 37.5t37.5 15.5z" />
<glyph unicode="&#7866;" horiz-adv-x="573" d="M74 667h448v-88h-348v-195h341v-88h-341v-208h348v-88h-448zM297 883q41 0 68.5 -23q27.5 -23 27.5 -68q0 -19 -5.5 -34q-5.5 -15 -18.5 -34l-56 0q28 31 28 67q0 23 -12 35q-12 12 -32 12q-35 0 -50 -41l-47 15q11 33 36 52t61 19z" />
<glyph unicode="&#7868;" horiz-adv-x="573" d="M74 667h448v-88h-348v-195h341v-88h-341v-208h348v-88h-448zM242 806q-20 0 -32.5 -20q-12.5 -20 -12.5 -59l-51 0q0 61 26 97.5q26 36.5 74 36.5q26 0 41.5 -12.5q15.5 -12.5 33.5 -36.5q14 -19 23.5 -27.5q9.5 -8.5 22.5 -8.5q20 0 32 20q12 20 12 59l52 0q0 -61 -26 -97.5q-26 -36.5 -74 -36.5q-27 0 -42.5 12.5q-15.5 12.5 -33.5 36.5q-12 18 -22 27t-23 9z" />
<glyph unicode="&#7870;" horiz-adv-x="573" d="M411 780l144 108h89l-167 -108zM304 781l-78 -76h-58l94 108h84l97 -108h-59zM74 667h448v-88h-348v-195h341v-88h-341v-208h348v-88l-448 0z" />
<glyph unicode="&#7872;" horiz-adv-x="573" d="M-32 888h89l144 -108h-66zM304 781l-78 -76h-58l94 108h84l97 -108h-59zM74 667h448v-88h-348v-195h341v-88h-341v-208h348v-88l-448 0z" />
<glyph unicode="&#7874;" horiz-adv-x="573" d="M396 899q41 0 68.5 -17q27.5 -17 27.5 -51q0 -14 -6 -25.5q-6 -11.5 -18 -25.5l-56 0q28 22 28 50q0 17 -12 26q-12 9 -32 9q-35 0 -50 -30l-47 11q11 24 36 38.5q25 14.5 61 14.5zt0 0zM304 781l-78 -76h-58l94 108h84l97 -108h-59zM74 667h448v-88h-348v-195h341v-88h-341v-208h348v-88l-448 0z" />
<glyph unicode="&#7876;" horiz-adv-x="573" d="M242 888q-20 0 -32.5 -15q-12.5 -15 -12.5 -44l-51 0q0 46 26 73.5q26 27.5 74 27.5q26 0 41.5 -9.5q15.5 -9.5 33.5 -27.5q14 -14 23.5 -20.5q9.5 -6.5 22.5 -6.5q20 0 32 15q12 15 12 44l52 0q0 -46 -26 -73q-26 -27 -74 -27q-27 0 -42.5 9.5q-15.5 9.5 -33.5 26.5q-12 14 -21.5 20.5q-9.5 6.5 -23.5 6.5zt0 0zM304 781l-78 -76h-58l94 108h84l97 -108h-59zM74 667h448v-88h-348v-195h341v-88h-341v-208h348v-88l-448 0z" />
<glyph unicode="&#7878;" horiz-adv-x="573" d="M74 667h448v-88h-348v-195h341v-88h-341v-208h348v-88h-448zM304 824l-78 -101h-58l94 144h84l97 -144h-59zM304 -65q22 0 37 -15.5q15 -15.5 15 -37.5q0 -22 -15 -37.5q-15 -15.5 -37 -15.5q-22 0 -37.5 15.5q-15.5 15.5 -15.5 37.5q0 22 15.5 37.5t37.5 15.5z" />
<glyph unicode="&#7710;" horiz-adv-x="556" d="M74 667h448v-88h-348v-195h341v-88h-341v-296h-100zM303 837q21 0 36.5 -16q15.5 -16 15.5 -37q0 -22 -15 -37.5q-15 -15.5 -37 -15.5q-22 0 -37.5 15.5q-15.5 15.5 -15.5 37.5q0 21 15.5 37t37.5 16z" />
<glyph unicode="&#284;" horiz-adv-x="715" d="M392 678q165 0 264 -132l-81 -47q-30 40 -78.5 65q-48.5 25 -104.5 25q-69 0 -124.5 -32.5q-55.5 -32.5 -87 -91q-31.5 -58.5 -31.5 -132.5q0 -73 31.5 -132q31.5 -59 87 -92q55.5 -33 124.5 -33q51 0 96 20q45 20 73 46l0 120h-214v88h314v-245q-50 -55 -118.5 -86.5q-68.5 -31.5 -150.5 -31.5q-95 0 -174.5 43.5q-79.5 43.5 -125.5 122.5q-46 79 -46 180q0 101 46 180q46 79 125.5 122q79.5 43 174.5 43zt0 0zM392 824l-78 -101h-58l94 144h84l97 -144l-59 0z" />
<glyph unicode="&#286;" horiz-adv-x="715" d="M392 678q165 0 264 -132l-81 -47q-30 40 -78.5 65q-48.5 25 -104.5 25q-69 0 -124.5 -32.5q-55.5 -32.5 -87 -91q-31.5 -58.5 -31.5 -132.5q0 -73 31.5 -132q31.5 -59 87 -92q55.5 -33 124.5 -33q51 0 96 20q45 20 73 46l0 120h-214v88h314v-245q-50 -55 -118.5 -86.5q-68.5 -31.5 -150.5 -31.5q-95 0 -174.5 43.5q-79.5 43.5 -125.5 122.5q-46 79 -46 180q0 101 46 180q46 79 125.5 122q79.5 43 174.5 43zt0 0zM216 807l43 36q23 -32 57 -50.5q34 -18.5 76 -18.5q41 0 75 18q34 18 58 51l42 -36q-31 -41 -76.5 -64.5q-45.5 -23.5 -98.5 -23.5q-53 0 -99 23.5t-77 64.5z" />
<glyph unicode="&#288;" horiz-adv-x="715" d="M392 678q165 0 264 -132l-81 -47q-30 40 -78.5 65q-48.5 25 -104.5 25q-69 0 -124.5 -32.5q-55.5 -32.5 -87 -91q-31.5 -58.5 -31.5 -132.5q0 -73 31.5 -132q31.5 -59 87 -92q55.5 -33 124.5 -33q51 0 96 20q45 20 73 46l0 120h-214v88h314v-245q-50 -55 -118.5 -86.5q-68.5 -31.5 -150.5 -31.5q-95 0 -174.5 43.5q-79.5 43.5 -125.5 122.5q-46 79 -46 180q0 101 46 180q46 79 125.5 122q79.5 43 174.5 43zt0 0zM392 837q21 0 36.5 -16q15.5 -16 15.5 -37q0 -22 -15 -37.5q-15 -15.5 -37 -15.5q-22 0 -37.5 15.5q-15.5 15.5 -15.5 37.5q0 21 15.5 37t37.5 16z" />
<glyph unicode="&#290;" horiz-adv-x="715" d="M392 678q165 0 264 -132l-81 -47q-30 40 -78.5 65q-48.5 25 -104.5 25q-69 0 -124.5 -32.5q-55.5 -32.5 -87 -91q-31.5 -58.5 -31.5 -132.5q0 -73 31.5 -132q31.5 -59 87 -92q55.5 -33 124.5 -33q51 0 96 20q45 20 73 46l0 120h-214v88h314v-245q-50 -55 -118.5 -86.5q-68.5 -31.5 -150.5 -31.5q-95 0 -174.5 43.5q-79.5 43.5 -125.5 122.5q-46 79 -46 180q0 101 46 180q46 79 125.5 122q79.5 43 174.5 43zt0 0zM340 -248q22 14 39.5 38q17.5 24 20.5 46q-6 -2 -13 -2q-20 0 -32.5 13.5q-12.5 13.5 -12.5 34.5q0 21 14.5 36q14.5 15 35.5 15q24 0 41.5 -19.5q17.5 -19.5 17.5 -51.5q0 -40 -21 -77q-21 -37 -54 -61z" />
<glyph unicode="&#486;" horiz-adv-x="715" d="M392 678q165 0 264 -132l-81 -47q-30 40 -78.5 65q-48.5 25 -104.5 25q-69 0 -124.5 -32.5q-55.5 -32.5 -87 -91q-31.5 -58.5 -31.5 -132.5q0 -73 31.5 -132q31.5 -59 87 -92q55.5 -33 124.5 -33q51 0 96 20q45 20 73 46l0 120h-214v88h314v-245q-50 -55 -118.5 -86.5q-68.5 -31.5 -150.5 -31.5q-95 0 -174.5 43.5q-79.5 43.5 -125.5 122.5q-46 79 -46 180q0 101 46 180q46 79 125.5 122q79.5 43 174.5 43zt0 0zM253 867h58l81 -102l77 102h59l-94 -144l-84 0z" />
<glyph unicode="&#294;" horiz-adv-x="736" d="M729 497h-76v-497h-100v298h-369v-298h-100v497h-74v55h74v115h100v-115h369v115h100v-115h76zM553 497h-369v-110l369 0z" />
<glyph unicode="&#292;" horiz-adv-x="717" d="M543 298h-369v-298h-100v667h100v-280h369v280h100v-667h-100zM359 824l-78 -101h-58l94 144h84l97 -144l-59 0z" />
<glyph unicode="&#7714;" horiz-adv-x="717" d="M543 298h-369v-298h-100v667h100v-280h369v280h100v-667h-100zM359 837q21 0 36.5 -16q15.5 -16 15.5 -37q0 -22 -15 -37.5q-15 -15.5 -37 -15.5q-22 0 -37.5 15.5q-15.5 15.5 -15.5 37.5q0 21 15.5 37t37.5 16z" />
<glyph unicode="&#205;" horiz-adv-x="249" d="M74 667h100v-667h-100zM89 723l144 144h89l-167 -144z" />
<glyph unicode="&#300;" horiz-adv-x="249" d="M74 667h100v-667h-100zM-51 807l43 36q23 -32 57 -50.5q34 -18.5 76 -18.5q41 0 75 18q34 18 58 51l42 -36q-31 -41 -76.5 -64.5q-45.5 -23.5 -98.5 -23.5q-53 0 -99 23.5t-77 64.5z" />
<glyph unicode="&#206;" horiz-adv-x="249" d="M74 667h100v-667h-100zM125 824l-78 -101h-58l94 144h84l97 -144l-59 0z" />
<glyph unicode="&#207;" horiz-adv-x="249" d="M74 667h100v-667h-100zM-32 785q0 22 15.5 37q15.5 15 37.5 15q22 0 37 -15q15 -15 15 -37q0 -22 -15 -37.5q-15 -15.5 -37 -15.5q-22 0 -37.5 15.5q-15.5 15.5 -15.5 37.5zt0 0zM176 785q0 22 15.5 37q15.5 15 37.5 15q21 0 37 -15.5q16 -15.5 16 -36.5q0 -22 -16 -37.5q-16 -15.5 -37 -15.5q-22 0 -37.5 15.5t-15.5 37.5z" />
<glyph unicode="&#304;" horiz-adv-x="249" d="M74 667h100v-667h-100zM125 837q21 0 36.5 -16q15.5 -16 15.5 -37q0 -22 -15 -37.5q-15 -15.5 -37 -15.5q-22 0 -37.5 15.5q-15.5 15.5 -15.5 37.5q0 21 15.5 37t37.5 16z" />
<glyph unicode="&#204;" horiz-adv-x="249" d="M74 667h100v-667h-100zM-75 867h89l144 -144l-66 0z" />
<glyph unicode="&#298;" horiz-adv-x="249" d="M74 667h100v-667h-100zM-33 791h315v-55l-315 0z" />
<glyph unicode="&#302;" horiz-adv-x="249" d="M82 -89q0 -16 11.5 -25.5q11.5 -9.5 27.5 -9.5q18 0 31 8l22 -53q-28 -17 -74 -17q-43 0 -72.5 20q-29.5 20 -29.5 56q0 33 29 61q29 28 76 49l-29 0v667h100v-667q-92 -37 -92 -89z" />
<glyph unicode="&#296;" horiz-adv-x="249" d="M74 667h100v-667h-100zM63 806q-20 0 -32.5 -20q-12.5 -20 -12.5 -59l-51 0q0 61 26 97.5q26 36.5 74 36.5q26 0 41.5 -12.5q15.5 -12.5 33.5 -36.5q14 -19 23.5 -27.5q9.5 -8.5 22.5 -8.5q20 0 32 20q12 20 12 59l52 0q0 -61 -26 -97.5q-26 -36.5 -74 -36.5q-27 0 -42.5 12.5q-15.5 12.5 -33.5 36.5q-12 18 -22 27t-23 9z" />
<glyph unicode="&#7880;" horiz-adv-x="249" d="M74 667h100v-667h-100zM118 883q41 0 68.5 -23q27.5 -23 27.5 -68q0 -19 -5.5 -34q-5.5 -15 -18.5 -34l-56 0q28 31 28 67q0 23 -12 35q-12 12 -32 12q-35 0 -50 -41l-47 15q11 33 36 52t61 19z" />
<glyph unicode="&#7882;" horiz-adv-x="249" d="M74 667h100v-667h-100zM125 -65q22 0 37 -15.5q15 -15.5 15 -37.5q0 -22 -15 -37.5q-15 -15.5 -37 -15.5q-22 0 -37.5 15.5q-15.5 15.5 -15.5 37.5q0 22 15.5 37.5t37.5 15.5z" />
<glyph unicode="&#306;" horiz-adv-x="727" d="M74 667h100v-667h-100zM307 137q53 -60 120 -60q57 0 91 35.5q34 35.5 34 94.5v460h100v-461q0 -107 -60 -162.5q-60 -55.5 -158 -55.5q-110 0 -175 73z" />
<glyph unicode="&#308;" horiz-adv-x="478" d="M58 137q53 -60 120 -60q57 0 91 35.5q34 35.5 34 94.5v460h100v-461q0 -107 -60 -162.5q-60 -55.5 -158 -55.5q-110 0 -175 73zM355 824l-78 -101h-58l94 144h84l97 -144l-59 0z" />
<glyph unicode="&#310;" horiz-adv-x="611" d="M237 290l-63 -71v-219h-100v667h100v-331l279 331h124l-275 -316l297 -351h-124zM260 -248q22 14 39.5 38q17.5 24 20.5 46q-6 -2 -13 -2q-20 0 -32.5 13.5q-12.5 13.5 -12.5 34.5q0 21 14.5 36q14.5 15 35.5 15q24 0 41.5 -19.5q17.5 -19.5 17.5 -51.5q0 -40 -21 -77q-21 -37 -54 -61z" />
<glyph unicode="&#313;" horiz-adv-x="513" d="M74 667h100v-579h303v-88h-403zM240 723l144 144h89l-167 -144z" />
<glyph unicode="&#317;" horiz-adv-x="513" d="M74 667h100v-579h303v-88h-403zM263 499q22 14 39.5 38q17.5 24 20.5 46q-6 -2 -13 -2q-20 0 -32.5 13.5q-12.5 13.5 -12.5 34.5q0 21 14.5 36q14.5 15 35.5 15q24 0 41.5 -19.5q17.5 -19.5 17.5 -51.5q0 -40 -21 -77q-21 -37 -54 -61z" />
<glyph unicode="&#315;" horiz-adv-x="513" d="M74 667h100v-579h303v-88h-403zM224 -248q22 14 39.5 38q17.5 24 20.5 46q-6 -2 -13 -2q-20 0 -32.5 13.5q-12.5 13.5 -12.5 34.5q0 21 14.5 36q14.5 15 35.5 15q24 0 41.5 -19.5q17.5 -19.5 17.5 -51.5q0 -40 -21 -77q-21 -37 -54 -61z" />
<glyph unicode="&#319;" horiz-adv-x="513" d="M74 667h100v-579h303v-88h-403zM315 341q0 26 18.5 44.5q18.5 18.5 43.5 18.5q26 0 44.5 -18.5q18.5 -18.5 18.5 -44.5q0 -25 -19 -43.5q-19 -18.5 -44 -18.5q-25 0 -43.5 18.5t-18.5 43.5z" />
<glyph unicode="&#321;" horiz-adv-x="531" d="M495 88v-88h-403v260l-82 -48v85l82 47v323h100v-265l91 53v-84l-91 -53l0 -230z" />
<glyph unicode="&#323;" horiz-adv-x="714" d="M174 512v-512h-100v667h103l363 -500v500h100v-667h-97zM321 723l144 144h89l-167 -144z" />
<glyph unicode="&#327;" horiz-adv-x="714" d="M174 512v-512h-100v667h103l363 -500v500h100v-667h-97zM218 867h58l81 -102l77 102h59l-94 -144l-84 0z" />
<glyph unicode="&#325;" horiz-adv-x="714" d="M174 512v-512h-100v667h103l363 -500v500h100v-667h-97zM302 -248q22 14 39.5 38q17.5 24 20.5 46q-6 -2 -13 -2q-20 0 -32.5 13.5q-12.5 13.5 -12.5 34.5q0 21 14.5 36q14.5 15 35.5 15q24 0 41.5 -19.5q17.5 -19.5 17.5 -51.5q0 -40 -21 -77q-21 -37 -54 -61z" />
<glyph unicode="&#209;" horiz-adv-x="714" d="M174 512v-512h-100v667h103l363 -500v500h100v-667h-97zM295 806q-20 0 -32.5 -20q-12.5 -20 -12.5 -59l-51 0q0 61 26 97.5q26 36.5 74 36.5q26 0 41.5 -12.5q15.5 -12.5 33.5 -36.5q14 -19 23.5 -27.5q9.5 -8.5 22.5 -8.5q20 0 32 20q12 20 12 59l52 0q0 -61 -26 -97.5q-26 -36.5 -74 -36.5q-27 0 -42.5 12.5q-15.5 12.5 -33.5 36.5q-12 18 -22 27t-23 9z" />
<glyph unicode="&#413;" horiz-adv-x="714" d="M640 667v-667h-97l-369 512v-490q0 -107 -60 -162.5q-60 -55.5 -158 -55.5q-31 0 -52 5l7 89q17 -5 38 -5q57 0 91 35.5q34 35.5 34 94.5v644h103l363 -500l0 500z" />
<glyph unicode="&#330;" horiz-adv-x="714" d="M640 667v-647q0 -107 -60.5 -161.5q-60.5 -54.5 -158.5 -54.5q-110 0 -176 73l49 76q51 -60 120 -60q54 0 87 30.5q33 30.5 38 82.5l-365 506v-512h-100v667h103l363 -500l0 500z" />
<glyph unicode="&#211;" horiz-adv-x="765" d="M382 678q98 0 174.5 -44.5q76.5 -44.5 119 -123.5q42.5 -79 42.5 -177q0 -98 -42.5 -177q-42.5 -79 -119 -123.5q-76.5 -44.5 -174.5 -44.5q-98 0 -174.5 44.5q-76.5 44.5 -119 123.5q-42.5 79 -42.5 177q0 98 42.5 177q42.5 79 119 123.5q76.5 44.5 174.5 44.5zt0 0zM382 589q-70 0 -123 -33q-53 -33 -81.5 -91.5q-28.5 -58.5 -28.5 -131.5q0 -73 28.5 -131.5q28.5 -58.5 81.5 -91.5q53 -33 123 -33q69 0 122 33.5q53 33.5 82 91.5q29 58 29 131q0 73 -29 131.5q-29 58.5 -82 91.5q-53 33 -122 33zt0 0zM345 723l144 144h89l-167 -144z" />
<glyph unicode="&#334;" horiz-adv-x="765" d="M382 678q98 0 174.5 -44.5q76.5 -44.5 119 -123.5q42.5 -79 42.5 -177q0 -98 -42.5 -177q-42.5 -79 -119 -123.5q-76.5 -44.5 -174.5 -44.5q-98 0 -174.5 44.5q-76.5 44.5 -119 123.5q-42.5 79 -42.5 177q0 98 42.5 177q42.5 79 119 123.5q76.5 44.5 174.5 44.5zt0 0zM382 589q-70 0 -123 -33q-53 -33 -81.5 -91.5q-28.5 -58.5 -28.5 -131.5q0 -73 28.5 -131.5q28.5 -58.5 81.5 -91.5q53 -33 123 -33q69 0 122 33.5q53 33.5 82 91.5q29 58 29 131q0 73 -29 131.5q-29 58.5 -82 91.5q-53 33 -122 33zt0 0zM205 807l43 36q23 -32 57 -50.5q34 -18.5 76 -18.5q41 0 75 18q34 18 58 51l42 -36q-31 -41 -76.5 -64.5q-45.5 -23.5 -98.5 -23.5q-53 0 -99 23.5t-77 64.5z" />
<glyph unicode="&#212;" horiz-adv-x="765" d="M382 678q98 0 174.5 -44.5q76.5 -44.5 119 -123.5q42.5 -79 42.5 -177q0 -98 -42.5 -177q-42.5 -79 -119 -123.5q-76.5 -44.5 -174.5 -44.5q-98 0 -174.5 44.5q-76.5 44.5 -119 123.5q-42.5 79 -42.5 177q0 98 42.5 177q42.5 79 119 123.5q76.5 44.5 174.5 44.5zt0 0zM382 589q-70 0 -123 -33q-53 -33 -81.5 -91.5q-28.5 -58.5 -28.5 -131.5q0 -73 28.5 -131.5q28.5 -58.5 81.5 -91.5q53 -33 123 -33q69 0 122 33.5q53 33.5 82 91.5q29 58 29 131q0 73 -29 131.5q-29 58.5 -82 91.5q-53 33 -122 33zt0 0zM381 824l-78 -101h-58l94 144h84l97 -144l-59 0z" />
<glyph unicode="&#214;" horiz-adv-x="765" d="M382 678q98 0 174.5 -44.5q76.5 -44.5 119 -123.5q42.5 -79 42.5 -177q0 -98 -42.5 -177q-42.5 -79 -119 -123.5q-76.5 -44.5 -174.5 -44.5q-98 0 -174.5 44.5q-76.5 44.5 -119 123.5q-42.5 79 -42.5 177q0 98 42.5 177q42.5 79 119 123.5q76.5 44.5 174.5 44.5zt0 0zM382 589q-70 0 -123 -33q-53 -33 -81.5 -91.5q-28.5 -58.5 -28.5 -131.5q0 -73 28.5 -131.5q28.5 -58.5 81.5 -91.5q53 -33 123 -33q69 0 122 33.5q53 33.5 82 91.5q29 58 29 131q0 73 -29 131.5q-29 58.5 -82 91.5q-53 33 -122 33zt0 0zM224 785q0 22 15.5 37q15.5 15 37.5 15q22 0 37 -15q15 -15 15 -37q0 -22 -15 -37.5q-15 -15.5 -37 -15.5q-22 0 -37.5 15.5q-15.5 15.5 -15.5 37.5zt0 0zM432 785q0 22 15.5 37q15.5 15 37.5 15q21 0 37 -15.5q16 -15.5 16 -36.5q0 -22 -16 -37.5q-16 -15.5 -37 -15.5q-22 0 -37.5 15.5t-15.5 37.5z" />
<glyph unicode="&#210;" horiz-adv-x="765" d="M382 678q98 0 174.5 -44.5q76.5 -44.5 119 -123.5q42.5 -79 42.5 -177q0 -98 -42.5 -177q-42.5 -79 -119 -123.5q-76.5 -44.5 -174.5 -44.5q-98 0 -174.5 44.5q-76.5 44.5 -119 123.5q-42.5 79 -42.5 177q0 98 42.5 177q42.5 79 119 123.5q76.5 44.5 174.5 44.5zt0 0zM382 589q-70 0 -123 -33q-53 -33 -81.5 -91.5q-28.5 -58.5 -28.5 -131.5q0 -73 28.5 -131.5q28.5 -58.5 81.5 -91.5q53 -33 123 -33q69 0 122 33.5q53 33.5 82 91.5q29 58 29 131q0 73 -29 131.5q-29 58.5 -82 91.5q-53 33 -122 33zt0 0zM181 867h89l144 -144l-66 0z" />
<glyph unicode="&#336;" horiz-adv-x="765" d="M382 678q98 0 174.5 -44.5q76.5 -44.5 119 -123.5q42.5 -79 42.5 -177q0 -98 -42.5 -177q-42.5 -79 -119 -123.5q-76.5 -44.5 -174.5 -44.5q-98 0 -174.5 44.5q-76.5 44.5 -119 123.5q-42.5 79 -42.5 177q0 98 42.5 177q42.5 79 119 123.5q76.5 44.5 174.5 44.5zt0 0zM382 589q-70 0 -123 -33q-53 -33 -81.5 -91.5q-28.5 -58.5 -28.5 -131.5q0 -73 28.5 -131.5q28.5 -58.5 81.5 -91.5q53 -33 123 -33q69 0 122 33.5q53 33.5 82 91.5q29 58 29 131q0 73 -29 131.5q-29 58.5 -82 91.5q-53 33 -122 33zt0 0zM278 723l92 144h79l-115 -144zM422 723l92 144h79l-115 -144z" />
<glyph unicode="&#332;" horiz-adv-x="765" d="M382 678q98 0 174.5 -44.5q76.5 -44.5 119 -123.5q42.5 -79 42.5 -177q0 -98 -42.5 -177q-42.5 -79 -119 -123.5q-76.5 -44.5 -174.5 -44.5q-98 0 -174.5 44.5q-76.5 44.5 -119 123.5q-42.5 79 -42.5 177q0 98 42.5 177q42.5 79 119 123.5q76.5 44.5 174.5 44.5zt0 0zM382 589q-70 0 -123 -33q-53 -33 -81.5 -91.5q-28.5 -58.5 -28.5 -131.5q0 -73 28.5 -131.5q28.5 -58.5 81.5 -91.5q53 -33 123 -33q69 0 122 33.5q53 33.5 82 91.5q29 58 29 131q0 73 -29 131.5q-29 58.5 -82 91.5q-53 33 -122 33zt0 0zM223 791h315v-55l-315 0z" />
<glyph unicode="&#216;" horiz-adv-x="765" d="M718 333q0 -98 -42.5 -177q-42.5 -79 -119 -123.5q-76.5 -44.5 -174.5 -44.5q-98 0 -176 45l-23 -33h-77l49 71q-52 47 -80.5 114.5q-28.5 67.5 -28.5 147.5q0 98 42.5 177q42.5 79 119 123.5q76.5 44.5 174.5 44.5q93 0 169 -42l21 31h77l-46 -66q55 -47 85 -116.5q30 -69.5 30 -151.5zt0 0zM211 151l286 409q-50 29 -115 29q-70 0 -123 -33q-53 -33 -81.5 -91.5q-28.5 -58.5 -28.5 -131.5q0 -54 16 -100.5q16 -46.5 46 -81.5zt0 0zM615 333q0 56 -17.5 104.5q-17.5 48.5 -50.5 83.5l-287 -411q53 -33 122 -33q69 0 122 33.5q53 33.5 82 91.5t29 131z" />
<glyph unicode="&#510;" horiz-adv-x="765" d="M718 333q0 -98 -42.5 -177q-42.5 -79 -119 -123.5q-76.5 -44.5 -174.5 -44.5q-98 0 -176 45l-23 -33h-77l49 71q-52 47 -80.5 114.5q-28.5 67.5 -28.5 147.5q0 98 42.5 177q42.5 79 119 123.5q76.5 44.5 174.5 44.5q93 0 169 -42l21 31h77l-46 -66q55 -47 85 -116.5q30 -69.5 30 -151.5zt0 0zM211 151l286 409q-50 29 -115 29q-70 0 -123 -33q-53 -33 -81.5 -91.5q-28.5 -58.5 -28.5 -131.5q0 -54 16 -100.5q16 -46.5 46 -81.5zt0 0zM615 333q0 56 -17.5 104.5q-17.5 48.5 -50.5 83.5l-287 -411q53 -33 122 -33q69 0 122 33.5q53 33.5 82 91.5q29 58 29 131zt0 0zM345 723l144 144h89l-167 -144z" />
<glyph unicode="&#213;" horiz-adv-x="765" d="M382 678q98 0 174.5 -44.5q76.5 -44.5 119 -123.5q42.5 -79 42.5 -177q0 -98 -42.5 -177q-42.5 -79 -119 -123.5q-76.5 -44.5 -174.5 -44.5q-98 0 -174.5 44.5q-76.5 44.5 -119 123.5q-42.5 79 -42.5 177q0 98 42.5 177q42.5 79 119 123.5q76.5 44.5 174.5 44.5zt0 0zM382 589q-70 0 -123 -33q-53 -33 -81.5 -91.5q-28.5 -58.5 -28.5 -131.5q0 -73 28.5 -131.5q28.5 -58.5 81.5 -91.5q53 -33 123 -33q69 0 122 33.5q53 33.5 82 91.5q29 58 29 131q0 73 -29 131.5q-29 58.5 -82 91.5q-53 33 -122 33zt0 0zM319 806q-20 0 -32.5 -20q-12.5 -20 -12.5 -59l-51 0q0 61 26 97.5q26 36.5 74 36.5q26 0 41.5 -12.5q15.5 -12.5 33.5 -36.5q14 -19 23.5 -27.5q9.5 -8.5 22.5 -8.5q20 0 32 20q12 20 12 59l52 0q0 -61 -26 -97.5q-26 -36.5 -74 -36.5q-27 0 -42.5 12.5q-15.5 12.5 -33.5 36.5q-12 18 -22 27t-23 9z" />
<glyph unicode="&#490;" horiz-adv-x="765" d="M378 -89q0 -16 11.5 -25.5q11.5 -9.5 27.5 -9.5q18 0 31 8l22 -53q-28 -17 -74 -17q-43 0 -72.5 20q-29.5 20 -29.5 56q0 28 22 53q22 25 59 45q-96 2 -171 47q-75 45 -116.5 123q-41.5 78 -41.5 175q0 98 42.5 177q42.5 79 119 123.5q76.5 44.5 174.5 44.5q98 0 174.5 -44.5q76.5 -44.5 119 -123.5q42.5 -79 42.5 -177q0 -85 -32 -155.5q-32 -70.5 -90 -117.5q-58 -47 -135 -64q-83 -36 -83 -85zt0 0zM382 77q69 0 122 33.5q53 33.5 82 91.5q29 58 29 131q0 73 -29 131.5q-29 58.5 -82 91.5q-53 33 -122 33q-70 0 -123 -33q-53 -33 -81.5 -91.5q-28.5 -58.5 -28.5 -131.5q0 -73 28.5 -131.5q28.5 -58.5 81.5 -91.5t123 -33z" />
<glyph unicode="&#7884;" horiz-adv-x="765" d="M382 678q98 0 174.5 -44.5q76.5 -44.5 119 -123.5q42.5 -79 42.5 -177q0 -98 -42.5 -177q-42.5 -79 -119 -123.5q-76.5 -44.5 -174.5 -44.5q-98 0 -174.5 44.5q-76.5 44.5 -119 123.5q-42.5 79 -42.5 177q0 98 42.5 177q42.5 79 119 123.5q76.5 44.5 174.5 44.5zt0 0zM382 589q-70 0 -123 -33q-53 -33 -81.5 -91.5q-28.5 -58.5 -28.5 -131.5q0 -73 28.5 -131.5q28.5 -58.5 81.5 -91.5q53 -33 123 -33q69 0 122 33.5q53 33.5 82 91.5q29 58 29 131q0 73 -29 131.5q-29 58.5 -82 91.5q-53 33 -122 33zt0 0zM381 -65q22 0 37 -15.5q15 -15.5 15 -37.5q0 -22 -15 -37.5q-15 -15.5 -37 -15.5q-22 0 -37.5 15.5q-15.5 15.5 -15.5 37.5q0 22 15.5 37.5t37.5 15.5z" />
<glyph unicode="&#7886;" horiz-adv-x="765" d="M382 678q98 0 174.5 -44.5q76.5 -44.5 119 -123.5q42.5 -79 42.5 -177q0 -98 -42.5 -177q-42.5 -79 -119 -123.5q-76.5 -44.5 -174.5 -44.5q-98 0 -174.5 44.5q-76.5 44.5 -119 123.5q-42.5 79 -42.5 177q0 98 42.5 177q42.5 79 119 123.5q76.5 44.5 174.5 44.5zt0 0zM382 589q-70 0 -123 -33q-53 -33 -81.5 -91.5q-28.5 -58.5 -28.5 -131.5q0 -73 28.5 -131.5q28.5 -58.5 81.5 -91.5q53 -33 123 -33q69 0 122 33.5q53 33.5 82 91.5q29 58 29 131q0 73 -29 131.5q-29 58.5 -82 91.5q-53 33 -122 33zt0 0zM374 883q41 0 68.5 -23q27.5 -23 27.5 -68q0 -19 -5.5 -34q-5.5 -15 -18.5 -34l-56 0q28 31 28 67q0 23 -12 35q-12 12 -32 12q-35 0 -50 -41l-47 15q11 33 36 52t61 19z" />
<glyph unicode="&#7888;" horiz-adv-x="765" d="M488 780l144 108h89l-167 -108zM381 781l-78 -76h-58l94 108h84l97 -108h-59zM382 678q98 0 174.5 -44.5q76.5 -44.5 119 -123.5q42.5 -79 42.5 -177q0 -98 -42.5 -177q-42.5 -79 -119 -123.5q-76.5 -44.5 -174.5 -44.5q-98 0 -174.5 44.5q-76.5 44.5 -119 123.5q-42.5 79 -42.5 177q0 98 42.5 177q42.5 79 119 123.5q76.5 44.5 174.5 44.5zt0 0zM382 589q-70 0 -123 -33q-53 -33 -81.5 -91.5q-28.5 -58.5 -28.5 -131.5q0 -73 28.5 -131.5q28.5 -58.5 81.5 -91.5q53 -33 123 -33q69 0 122 33.5q53 33.5 82 91.5q29 58 29 131q0 73 -29 131.5q-29 58.5 -82 91.5t-122 33z" />
<glyph unicode="&#7890;" horiz-adv-x="765" d="M45 888h89l144 -108h-66zM381 781l-78 -76h-58l94 108h84l97 -108h-59zM382 678q98 0 174.5 -44.5q76.5 -44.5 119 -123.5q42.5 -79 42.5 -177q0 -98 -42.5 -177q-42.5 -79 -119 -123.5q-76.5 -44.5 -174.5 -44.5q-98 0 -174.5 44.5q-76.5 44.5 -119 123.5q-42.5 79 -42.5 177q0 98 42.5 177q42.5 79 119 123.5q76.5 44.5 174.5 44.5zt0 0zM382 589q-70 0 -123 -33q-53 -33 -81.5 -91.5q-28.5 -58.5 -28.5 -131.5q0 -73 28.5 -131.5q28.5 -58.5 81.5 -91.5q53 -33 123 -33q69 0 122 33.5q53 33.5 82 91.5q29 58 29 131q0 73 -29 131.5q-29 58.5 -82 91.5t-122 33z" />
<glyph unicode="&#7892;" horiz-adv-x="765" d="M473 899q41 0 68.5 -17q27.5 -17 27.5 -51q0 -14 -6 -25.5q-6 -11.5 -18 -25.5l-56 0q28 22 28 50q0 17 -12 26q-12 9 -32 9q-35 0 -50 -30l-47 11q11 24 36 38.5q25 14.5 61 14.5zt0 0zM381 781l-78 -76h-58l94 108h84l97 -108h-59zM382 678q98 0 174.5 -44.5q76.5 -44.5 119 -123.5q42.5 -79 42.5 -177q0 -98 -42.5 -177q-42.5 -79 -119 -123.5q-76.5 -44.5 -174.5 -44.5q-98 0 -174.5 44.5q-76.5 44.5 -119 123.5q-42.5 79 -42.5 177q0 98 42.5 177q42.5 79 119 123.5q76.5 44.5 174.5 44.5zt0 0zM382 589q-70 0 -123 -33q-53 -33 -81.5 -91.5q-28.5 -58.5 -28.5 -131.5q0 -73 28.5 -131.5q28.5 -58.5 81.5 -91.5q53 -33 123 -33q69 0 122 33.5q53 33.5 82 91.5q29 58 29 131q0 73 -29 131.5q-29 58.5 -82 91.5t-122 33z" />
<glyph unicode="&#7894;" horiz-adv-x="765" d="M319 888q-20 0 -32.5 -15q-12.5 -15 -12.5 -44l-51 0q0 46 26 73.5q26 27.5 74 27.5q26 0 41.5 -9.5q15.5 -9.5 33.5 -27.5q14 -14 23.5 -20.5q9.5 -6.5 22.5 -6.5q20 0 32 15q12 15 12 44l52 0q0 -46 -26 -73q-26 -27 -74 -27q-27 0 -43 9.5q-16 9.5 -33 26.5q-12 14 -21.5 20.5q-9.5 6.5 -23.5 6.5zt0 0zM381 781l-78 -76h-58l94 108h84l97 -108h-59zM382 678q98 0 174.5 -44.5q76.5 -44.5 119 -123.5q42.5 -79 42.5 -177q0 -98 -42.5 -177q-42.5 -79 -119 -123.5q-76.5 -44.5 -174.5 -44.5q-98 0 -174.5 44.5q-76.5 44.5 -119 123.5q-42.5 79 -42.5 177q0 98 42.5 177q42.5 79 119 123.5q76.5 44.5 174.5 44.5zt0 0zM382 589q-70 0 -123 -33q-53 -33 -81.5 -91.5q-28.5 -58.5 -28.5 -131.5q0 -73 28.5 -131.5q28.5 -58.5 81.5 -91.5q53 -33 123 -33q69 0 122 33.5q53 33.5 82 91.5q29 58 29 131q0 73 -29 131.5q-29 58.5 -82 91.5t-122 33z" />
<glyph unicode="&#7896;" horiz-adv-x="765" d="M382 678q98 0 174.5 -44.5q76.5 -44.5 119 -123.5q42.5 -79 42.5 -177q0 -98 -42.5 -177q-42.5 -79 -119 -123.5q-76.5 -44.5 -174.5 -44.5q-98 0 -174.5 44.5q-76.5 44.5 -119 123.5q-42.5 79 -42.5 177q0 98 42.5 177q42.5 79 119 123.5q76.5 44.5 174.5 44.5zt0 0zM382 589q-70 0 -123 -33q-53 -33 -81.5 -91.5q-28.5 -58.5 -28.5 -131.5q0 -73 28.5 -131.5q28.5 -58.5 81.5 -91.5q53 -33 123 -33q69 0 122 33.5q53 33.5 82 91.5q29 58 29 131q0 73 -29 131.5q-29 58.5 -82 91.5q-53 33 -122 33zt0 0zM381 824l-78 -101h-58l94 144h84l97 -144h-59zM381 -65q22 0 37 -15.5q15 -15.5 15 -37.5q0 -22 -15 -37.5q-15 -15.5 -37 -15.5q-22 0 -37.5 15.5q-15.5 15.5 -15.5 37.5q0 22 15.5 37.5t37.5 15.5z" />
<glyph unicode="&#416;" horiz-adv-x="765" d="M659 537q59 -88 59 -204q0 -98 -42.5 -177q-42.5 -79 -119 -123.5q-76.5 -44.5 -174.5 -44.5q-98 0 -174.5 44.5q-76.5 44.5 -119 123.5q-42.5 79 -42.5 177q0 98 42.5 177q42.5 79 119 123.5q76.5 44.5 174.5 44.5q78 0 142.5 -28.5q64.5 -28.5 109.5 -80.5q18 15 30.5 34.5q12.5 19.5 14.5 37.5q-4 -2 -12 -2q-17 0 -29 12.5q-12 12.5 -12 31.5q0 20 13.5 33.5q13.5 13.5 32.5 13.5q22 0 38 -17.5q16 -17.5 16 -47.5q0 -38 -18.5 -71.5q-18.5 -33.5 -48.5 -56.5zt0 0zM615 333q0 73 -29 131.5q-29 58.5 -82 91.5q-53 33 -122 33q-70 0 -123 -33q-53 -33 -81.5 -91.5q-28.5 -58.5 -28.5 -131.5q0 -73 28.5 -131.5q28.5 -58.5 81.5 -91.5q53 -33 123 -33q69 0 122 33.5q53 33.5 82 91.5t29 131z" />
<glyph unicode="&#7898;" horiz-adv-x="765" d="M659 537q59 -88 59 -204q0 -98 -42.5 -177q-42.5 -79 -119 -123.5q-76.5 -44.5 -174.5 -44.5q-98 0 -174.5 44.5q-76.5 44.5 -119 123.5q-42.5 79 -42.5 177q0 98 42.5 177q42.5 79 119 123.5q76.5 44.5 174.5 44.5q78 0 142.5 -28.5q64.5 -28.5 109.5 -80.5q18 15 30.5 34.5q12.5 19.5 14.5 37.5q-4 -2 -12 -2q-17 0 -29 12.5q-12 12.5 -12 31.5q0 20 13.5 33.5q13.5 13.5 32.5 13.5q22 0 38 -17.5q16 -17.5 16 -47.5q0 -38 -18.5 -71.5q-18.5 -33.5 -48.5 -56.5zt0 0zM615 333q0 73 -29 131.5q-29 58.5 -82 91.5q-53 33 -122 33q-70 0 -123 -33q-53 -33 -81.5 -91.5q-28.5 -58.5 -28.5 -131.5q0 -73 28.5 -131.5q28.5 -58.5 81.5 -91.5q53 -33 123 -33q69 0 122 33.5q53 33.5 82 91.5q29 58 29 131zt0 0zM345 723l144 144h89l-167 -144z" />
<glyph unicode="&#7900;" horiz-adv-x="765" d="M659 537q59 -88 59 -204q0 -98 -42.5 -177q-42.5 -79 -119 -123.5q-76.5 -44.5 -174.5 -44.5q-98 0 -174.5 44.5q-76.5 44.5 -119 123.5q-42.5 79 -42.5 177q0 98 42.5 177q42.5 79 119 123.5q76.5 44.5 174.5 44.5q78 0 142.5 -28.5q64.5 -28.5 109.5 -80.5q18 15 30.5 34.5q12.5 19.5 14.5 37.5q-4 -2 -12 -2q-17 0 -29 12.5q-12 12.5 -12 31.5q0 20 13.5 33.5q13.5 13.5 32.5 13.5q22 0 38 -17.5q16 -17.5 16 -47.5q0 -38 -18.5 -71.5q-18.5 -33.5 -48.5 -56.5zt0 0zM615 333q0 73 -29 131.5q-29 58.5 -82 91.5q-53 33 -122 33q-70 0 -123 -33q-53 -33 -81.5 -91.5q-28.5 -58.5 -28.5 -131.5q0 -73 28.5 -131.5q28.5 -58.5 81.5 -91.5q53 -33 123 -33q69 0 122 33.5q53 33.5 82 91.5q29 58 29 131zt0 0zM181 867h89l144 -144l-66 0z" />
<glyph unicode="&#7902;" horiz-adv-x="765" d="M659 537q59 -88 59 -204q0 -98 -42.5 -177q-42.5 -79 -119 -123.5q-76.5 -44.5 -174.5 -44.5q-98 0 -174.5 44.5q-76.5 44.5 -119 123.5q-42.5 79 -42.5 177q0 98 42.5 177q42.5 79 119 123.5q76.5 44.5 174.5 44.5q78 0 142.5 -28.5q64.5 -28.5 109.5 -80.5q18 15 30.5 34.5q12.5 19.5 14.5 37.5q-4 -2 -12 -2q-17 0 -29 12.5q-12 12.5 -12 31.5q0 20 13.5 33.5q13.5 13.5 32.5 13.5q22 0 38 -17.5q16 -17.5 16 -47.5q0 -38 -18.5 -71.5q-18.5 -33.5 -48.5 -56.5zt0 0zM615 333q0 73 -29 131.5q-29 58.5 -82 91.5q-53 33 -122 33q-70 0 -123 -33q-53 -33 -81.5 -91.5q-28.5 -58.5 -28.5 -131.5q0 -73 28.5 -131.5q28.5 -58.5 81.5 -91.5q53 -33 123 -33q69 0 122 33.5q53 33.5 82 91.5q29 58 29 131zt0 0zM374 883q41 0 68.5 -23q27.5 -23 27.5 -68q0 -19 -5.5 -34q-5.5 -15 -18.5 -34l-56 0q28 31 28 67q0 23 -12 35q-12 12 -32 12q-35 0 -50 -41l-47 15q11 33 36 52t61 19z" />
<glyph unicode="&#7904;" horiz-adv-x="765" d="M659 537q59 -88 59 -204q0 -98 -42.5 -177q-42.5 -79 -119 -123.5q-76.5 -44.5 -174.5 -44.5q-98 0 -174.5 44.5q-76.5 44.5 -119 123.5q-42.5 79 -42.5 177q0 98 42.5 177q42.5 79 119 123.5q76.5 44.5 174.5 44.5q78 0 142.5 -28.5q64.5 -28.5 109.5 -80.5q18 15 30.5 34.5q12.5 19.5 14.5 37.5q-4 -2 -12 -2q-17 0 -29 12.5q-12 12.5 -12 31.5q0 20 13.5 33.5q13.5 13.5 32.5 13.5q22 0 38 -17.5q16 -17.5 16 -47.5q0 -38 -18.5 -71.5q-18.5 -33.5 -48.5 -56.5zt0 0zM615 333q0 73 -29 131.5q-29 58.5 -82 91.5q-53 33 -122 33q-70 0 -123 -33q-53 -33 -81.5 -91.5q-28.5 -58.5 -28.5 -131.5q0 -73 28.5 -131.5q28.5 -58.5 81.5 -91.5q53 -33 123 -33q69 0 122 33.5q53 33.5 82 91.5q29 58 29 131zt0 0zM319 806q-20 0 -32.5 -20q-12.5 -20 -12.5 -59l-51 0q0 61 26 97.5q26 36.5 74 36.5q26 0 41.5 -12.5q15.5 -12.5 33.5 -36.5q14 -19 23.5 -27.5q9.5 -8.5 22.5 -8.5q20 0 32 20q12 20 12 59l52 0q0 -61 -26 -97.5q-26 -36.5 -74 -36.5q-27 0 -42.5 12.5q-15.5 12.5 -33.5 36.5q-12 18 -22 27t-23 9z" />
<glyph unicode="&#7906;" horiz-adv-x="765" d="M659 537q59 -88 59 -204q0 -98 -42.5 -177q-42.5 -79 -119 -123.5q-76.5 -44.5 -174.5 -44.5q-98 0 -174.5 44.5q-76.5 44.5 -119 123.5q-42.5 79 -42.5 177q0 98 42.5 177q42.5 79 119 123.5q76.5 44.5 174.5 44.5q78 0 142.5 -28.5q64.5 -28.5 109.5 -80.5q18 15 30.5 34.5q12.5 19.5 14.5 37.5q-4 -2 -12 -2q-17 0 -29 12.5q-12 12.5 -12 31.5q0 20 13.5 33.5q13.5 13.5 32.5 13.5q22 0 38 -17.5q16 -17.5 16 -47.5q0 -38 -18.5 -71.5q-18.5 -33.5 -48.5 -56.5zt0 0zM615 333q0 73 -29 131.5q-29 58.5 -82 91.5q-53 33 -122 33q-70 0 -123 -33q-53 -33 -81.5 -91.5q-28.5 -58.5 -28.5 -131.5q0 -73 28.5 -131.5q28.5 -58.5 81.5 -91.5q53 -33 123 -33q69 0 122 33.5q53 33.5 82 91.5q29 58 29 131zt0 0zM381 -65q22 0 37 -15.5q15 -15.5 15 -37.5q0 -22 -15 -37.5q-15 -15.5 -37 -15.5q-22 0 -37.5 15.5q-15.5 15.5 -15.5 37.5q0 22 15.5 37.5t37.5 15.5z" />
<glyph unicode="&#338;" horiz-adv-x="1099" d="M601 108q-36 -58 -97.5 -89q-61.5 -31 -130.5 -31q-95 0 -169.5 44.5q-74.5 44.5 -116 123q-41.5 78.5 -41.5 177.5q0 99 41.5 177q41.5 78 115.5 122.5q74 44.5 170 44.5q69 0 130.5 -31q61.5 -31 97.5 -88l0 109h447v-88h-347v-195h340v-88h-340v-208h347v-88h-447zM385 588q-72 0 -125.5 -33q-53.5 -33 -82 -90.5q-28.5 -57.5 -28.5 -131.5q0 -74 29 -132q29 -58 82 -91q53 -33 125 -33q74 0 131 38q57 38 85 110l0 216q-28 72 -85 109.5t-131 37.5z" />
<glyph unicode="&#7766;" horiz-adv-x="597" d="M74 667h281q66 0 114.5 -27.5q48.5 -27.5 73.5 -74.5q25 -47 25 -103q0 -56 -25.5 -103q-25.5 -47 -73.5 -74.5q-48 -27.5 -114 -27.5h-181v-257h-100zM342 579h-168v-234h168q54 0 88.5 32.5q34.5 32.5 34.5 84.5q0 52 -34.5 84.5q-34.5 32.5 -88.5 32.5zt0 0zM310 837q21 0 36.5 -16q15.5 -16 15.5 -37q0 -22 -15 -37.5q-15 -15.5 -37 -15.5q-22 0 -37.5 15.5q-15.5 15.5 -15.5 37.5q0 21 15.5 37t37.5 16z" />
<glyph unicode="&#340;" horiz-adv-x="618" d="M299 257h-125v-257h-100v667h281q63 0 111.5 -25.5q48.5 -25.5 75.5 -72q27 -46.5 27 -107.5q0 -85 -48.5 -135.5q-48.5 -50.5 -117.5 -59.5l171 -267h-116zM342 579h-168v-234h168q54 0 89 32.5q35 32.5 35 84.5q0 52 -35 84.5q-35 32.5 -89 32.5zt0 0zM274 723l144 144h89l-167 -144z" />
<glyph unicode="&#344;" horiz-adv-x="618" d="M299 257h-125v-257h-100v667h281q63 0 111.5 -25.5q48.5 -25.5 75.5 -72q27 -46.5 27 -107.5q0 -85 -48.5 -135.5q-48.5 -50.5 -117.5 -59.5l171 -267h-116zM342 579h-168v-234h168q54 0 89 32.5q35 32.5 35 84.5q0 52 -35 84.5q-35 32.5 -89 32.5zt0 0zM171 867h58l81 -102l77 102h59l-94 -144l-84 0z" />
<glyph unicode="&#342;" horiz-adv-x="618" d="M299 257h-125v-257h-100v667h281q63 0 111.5 -25.5q48.5 -25.5 75.5 -72q27 -46.5 27 -107.5q0 -85 -48.5 -135.5q-48.5 -50.5 -117.5 -59.5l171 -267h-116zM342 579h-168v-234h168q54 0 89 32.5q35 32.5 35 84.5q0 52 -35 84.5q-35 32.5 -89 32.5zt0 0zM258 -248q22 14 39.5 38q17.5 24 20.5 46q-6 -2 -13 -2q-20 0 -32.5 13.5q-12.5 13.5 -12.5 34.5q0 21 14.5 36q14.5 15 35.5 15q24 0 41.5 -19.5q17.5 -19.5 17.5 -51.5q0 -40 -21 -77q-21 -37 -54 -61z" />
<glyph unicode="&#346;" horiz-adv-x="590" d="M90 171q37 -41 91 -67.5q54 -26.5 119 -26.5q74 0 110 30.5q36 30.5 36 72.5q0 33 -21 53.5q-21 20.5 -53 32.5q-32 12 -87 26q-74 19 -119.5 37.5q-45.5 18.5 -78.5 56.5q-33 38 -33 101q0 54 30 97.5q30 43.5 84 68q54 24.5 122 24.5q152 0 243 -93l-58 -74q-37 39 -87 58.5q-50 19.5 -106 19.5q-56 0 -90.5 -26q-34.5 -26 -34.5 -68q0 -28 20 -46.5q20 -18.5 51 -29.5q31 -11 84 -24q75 -20 122 -39.5q47 -19.5 80.5 -59.5q33.5 -40 33.5 -106q0 -55 -26.5 -100.5q-26.5 -45.5 -83 -73q-56.5 -27.5 -142.5 -27.5q-86 0 -152 28q-66 28 -111 78zM254 723l144 144h89l-167 -144z" />
<glyph unicode="&#352;" horiz-adv-x="590" d="M90 171q37 -41 91 -67.5q54 -26.5 119 -26.5q74 0 110 30.5q36 30.5 36 72.5q0 33 -21 53.5q-21 20.5 -53 32.5q-32 12 -87 26q-74 19 -119.5 37.5q-45.5 18.5 -78.5 56.5q-33 38 -33 101q0 54 30 97.5q30 43.5 84 68q54 24.5 122 24.5q152 0 243 -93l-58 -74q-37 39 -87 58.5q-50 19.5 -106 19.5q-56 0 -90.5 -26q-34.5 -26 -34.5 -68q0 -28 20 -46.5q20 -18.5 51 -29.5q31 -11 84 -24q75 -20 122 -39.5q47 -19.5 80.5 -59.5q33.5 -40 33.5 -106q0 -55 -26.5 -100.5q-26.5 -45.5 -83 -73q-56.5 -27.5 -142.5 -27.5q-86 0 -152 28q-66 28 -111 78zM151 867h58l81 -102l77 102h59l-94 -144l-84 0z" />
<glyph unicode="&#348;" horiz-adv-x="590" d="M90 171q37 -41 91 -67.5q54 -26.5 119 -26.5q74 0 110 30.5q36 30.5 36 72.5q0 33 -21 53.5q-21 20.5 -53 32.5q-32 12 -87 26q-74 19 -119.5 37.5q-45.5 18.5 -78.5 56.5q-33 38 -33 101q0 54 30 97.5q30 43.5 84 68q54 24.5 122 24.5q152 0 243 -93l-58 -74q-37 39 -87 58.5q-50 19.5 -106 19.5q-56 0 -90.5 -26q-34.5 -26 -34.5 -68q0 -28 20 -46.5q20 -18.5 51 -29.5q31 -11 84 -24q75 -20 122 -39.5q47 -19.5 80.5 -59.5q33.5 -40 33.5 -106q0 -55 -26.5 -100.5q-26.5 -45.5 -83 -73q-56.5 -27.5 -142.5 -27.5q-86 0 -152 28q-66 28 -111 78zM290 824l-78 -101h-58l94 144h84l97 -144l-59 0z" />
<glyph unicode="&#350;" horiz-adv-x="590" d="M313 -12l-17 -42q16 11 37 11q29 0 47.5 -18.5q18.5 -18.5 18.5 -47.5q0 -38 -30.5 -61q-30.5 -23 -75.5 -23q-31 0 -59 9q-28 9 -44 22l20 42q36 -29 81 -29q25 0 42 10.5q17 10.5 17 30.5q0 14 -9 22q-9 8 -27 8q-10 0 -19.5 -4q-9.5 -4 -15.5 -11l-38 21l23 61q-144 10 -231 105l57 77q37 -41 91 -67.5q54 -26.5 119 -26.5q74 0 110 30.5q36 30.5 36 72.5q0 33 -21 53.5q-21 20.5 -53 32.5q-32 12 -87 26q-74 19 -119.5 37.5q-45.5 18.5 -78.5 56.5q-33 38 -33 101q0 54 30 97.5q30 43.5 84 68q54 24.5 122 24.5q152 0 243 -93l-58 -74q-37 39 -87 58.5q-50 19.5 -106 19.5q-56 0 -90.5 -26q-34.5 -26 -34.5 -68q0 -28 20 -46.5q20 -18.5 51 -29.5q31 -11 84 -24q75 -20 122 -39.5q47 -19.5 80.5 -59.5q33.5 -40 33.5 -106q0 -83 -58.5 -140t-176.5 -61z" />
<glyph unicode="&#536;" horiz-adv-x="590" d="M90 171q37 -41 91 -67.5q54 -26.5 119 -26.5q74 0 110 30.5q36 30.5 36 72.5q0 33 -21 53.5q-21 20.5 -53 32.5q-32 12 -87 26q-74 19 -119.5 37.5q-45.5 18.5 -78.5 56.5q-33 38 -33 101q0 54 30 97.5q30 43.5 84 68q54 24.5 122 24.5q152 0 243 -93l-58 -74q-37 39 -87 58.5q-50 19.5 -106 19.5q-56 0 -90.5 -26q-34.5 -26 -34.5 -68q0 -28 20 -46.5q20 -18.5 51 -29.5q31 -11 84 -24q75 -20 122 -39.5q47 -19.5 80.5 -59.5q33.5 -40 33.5 -106q0 -55 -26.5 -100.5q-26.5 -45.5 -83 -73q-56.5 -27.5 -142.5 -27.5q-86 0 -152 28q-66 28 -111 78zM238 -248q22 14 39.5 38q17.5 24 20.5 46q-6 -2 -13 -2q-20 0 -32.5 13.5q-12.5 13.5 -12.5 34.5q0 21 14.5 36q14.5 15 35.5 15q24 0 41.5 -19.5q17.5 -19.5 17.5 -51.5q0 -40 -21 -77q-21 -37 -54 -61z" />
<glyph unicode="&#7776;" horiz-adv-x="590" d="M90 171q37 -41 91 -67.5q54 -26.5 119 -26.5q74 0 110 30.5q36 30.5 36 72.5q0 33 -21 53.5q-21 20.5 -53 32.5q-32 12 -87 26q-74 19 -119.5 37.5q-45.5 18.5 -78.5 56.5q-33 38 -33 101q0 54 30 97.5q30 43.5 84 68q54 24.5 122 24.5q152 0 243 -93l-58 -74q-37 39 -87 58.5q-50 19.5 -106 19.5q-56 0 -90.5 -26q-34.5 -26 -34.5 -68q0 -28 20 -46.5q20 -18.5 51 -29.5q31 -11 84 -24q75 -20 122 -39.5q47 -19.5 80.5 -59.5q33.5 -40 33.5 -106q0 -55 -26.5 -100.5q-26.5 -45.5 -83 -73q-56.5 -27.5 -142.5 -27.5q-86 0 -152 28q-66 28 -111 78zM290 837q21 0 36.5 -16q15.5 -16 15.5 -37q0 -22 -15 -37.5q-15 -15.5 -37 -15.5q-22 0 -37.5 15.5q-15.5 15.5 -15.5 37.5q0 21 15.5 37t37.5 16z" />
<glyph unicode="&#7838;" horiz-adv-x="681" d="M652 195q0 -60 -30.5 -107q-30.5 -47 -84 -73.5q-53.5 -26.5 -119.5 -26.5q-125 0 -193 72l60 70q57 -53 133 -53q60 0 95.5 31.5q35.5 31.5 35.5 86.5q0 65 -52 92q-52 27 -151 27h-43v86l154 164q-42 25 -102 25q-86 0 -133 -50q-47 -50 -47 -137v-402h-101v405q0 126 72 199.5q72 73.5 209 73.5q78 0 137.5 -25.5q59.5 -25.5 95.5 -76.5l-165 -179q103 -6 166 -56t63 -146z" />
<glyph unicode="&#358;" horiz-adv-x="573" d="M337 579v-239h146v-55h-146v-285h-100v285h-146v55h146v239h-207v88h513l0 -88z" />
<glyph unicode="&#356;" horiz-adv-x="573" d="M237 579h-207v88h513v-88h-206v-579h-100zM148 867h58l81 -102l77 102h59l-94 -144l-84 0z" />
<glyph unicode="&#354;" horiz-adv-x="573" d="M237 579h-207v88h513v-88h-206v-579h-100zM235 -248q22 14 39.5 38q17.5 24 20.5 46q-6 -2 -13 -2q-20 0 -32.5 13.5q-12.5 13.5 -12.5 34.5q0 21 14.5 36q14.5 15 35.5 15q24 0 41.5 -19.5q17.5 -19.5 17.5 -51.5q0 -40 -21 -77q-21 -37 -54 -61z" />
<glyph unicode="&#538;" horiz-adv-x="573" d="M237 579h-207v88h513v-88h-206v-579h-100zM235 -248q22 14 39.5 38q17.5 24 20.5 46q-6 -2 -13 -2q-20 0 -32.5 13.5q-12.5 13.5 -12.5 34.5q0 21 14.5 36q14.5 15 35.5 15q24 0 41.5 -19.5q17.5 -19.5 17.5 -51.5q0 -40 -21 -77q-21 -37 -54 -61z" />
<glyph unicode="&#7786;" horiz-adv-x="573" d="M237 579h-207v88h513v-88h-206v-579h-100zM287 837q21 0 36.5 -16q15.5 -16 15.5 -37q0 -22 -15 -37.5q-15 -15.5 -37 -15.5q-22 0 -37.5 15.5q-15.5 15.5 -15.5 37.5q0 21 15.5 37t37.5 16z" />
<glyph unicode="&#218;" horiz-adv-x="710" d="M74 667h101v-403q0 -87 47 -137q47 -50 133 -50q86 0 132.5 50q46.5 50 46.5 137v403h101v-405q0 -128 -71.5 -201q-71.5 -73 -208.5 -73q-137 0 -209 73.5q-72 73.5 -72 199.5zM319 723l144 144h89l-167 -144z" />
<glyph unicode="&#364;" horiz-adv-x="710" d="M74 667h101v-403q0 -87 47 -137q47 -50 133 -50q86 0 132.5 50q46.5 50 46.5 137v403h101v-405q0 -128 -71.5 -201q-71.5 -73 -208.5 -73q-137 0 -209 73.5q-72 73.5 -72 199.5zM179 807l43 36q23 -32 57 -50.5q34 -18.5 76 -18.5q41 0 75 18q34 18 58 51l42 -36q-31 -41 -76.5 -64.5q-45.5 -23.5 -98.5 -23.5q-53 0 -99 23.5t-77 64.5z" />
<glyph unicode="&#219;" horiz-adv-x="710" d="M74 667h101v-403q0 -87 47 -137q47 -50 133 -50q86 0 132.5 50q46.5 50 46.5 137v403h101v-405q0 -128 -71.5 -201q-71.5 -73 -208.5 -73q-137 0 -209 73.5q-72 73.5 -72 199.5zM355 824l-78 -101h-58l94 144h84l97 -144l-59 0z" />
<glyph unicode="&#220;" horiz-adv-x="710" d="M74 667h101v-403q0 -87 47 -137q47 -50 133 -50q86 0 132.5 50q46.5 50 46.5 137v403h101v-405q0 -128 -71.5 -201q-71.5 -73 -208.5 -73q-137 0 -209 73.5q-72 73.5 -72 199.5zM198 785q0 22 15.5 37q15.5 15 37.5 15q22 0 37 -15q15 -15 15 -37q0 -22 -15 -37.5q-15 -15.5 -37 -15.5q-22 0 -37.5 15.5q-15.5 15.5 -15.5 37.5zt0 0zM406 785q0 22 15.5 37q15.5 15 37.5 15q21 0 37 -15.5q16 -15.5 16 -36.5q0 -22 -16 -37.5q-16 -15.5 -37 -15.5q-22 0 -37.5 15.5t-15.5 37.5z" />
<glyph unicode="&#217;" horiz-adv-x="710" d="M74 667h101v-403q0 -87 47 -137q47 -50 133 -50q86 0 132.5 50q46.5 50 46.5 137v403h101v-405q0 -128 -71.5 -201q-71.5 -73 -208.5 -73q-137 0 -209 73.5q-72 73.5 -72 199.5zM155 867h89l144 -144l-66 0z" />
<glyph unicode="&#368;" horiz-adv-x="710" d="M74 667h101v-403q0 -87 47 -137q47 -50 133 -50q86 0 132.5 50q46.5 50 46.5 137v403h101v-405q0 -128 -71.5 -201q-71.5 -73 -208.5 -73q-137 0 -209 73.5q-72 73.5 -72 199.5zM252 723l92 144h79l-115 -144zM396 723l92 144h79l-115 -144z" />
<glyph unicode="&#362;" horiz-adv-x="710" d="M74 667h101v-403q0 -87 47 -137q47 -50 133 -50q86 0 132.5 50q46.5 50 46.5 137v403h101v-405q0 -128 -71.5 -201q-71.5 -73 -208.5 -73q-137 0 -209 73.5q-72 73.5 -72 199.5zM197 791h315v-55l-315 0z" />
<glyph unicode="&#370;" horiz-adv-x="710" d="M74 667h101v-403q0 -87 47 -137q47 -50 133 -50q86 0 132.5 50q46.5 50 46.5 137v403h101v-405q0 -98 -42 -164q-42 -66 -122 -93q-51 -17 -79.5 -42q-28.5 -25 -28.5 -52q0 -16 11 -25.5q11 -9.5 27 -9.5q18 0 31 8l22 -53q-28 -17 -74 -17q-42 0 -72 20q-30 20 -30 56q0 29 23 54.5q23 25.5 62 43.5l-8 0q-137 0 -209 73.5q-72 73.5 -72 199.5z" />
<glyph unicode="&#366;" horiz-adv-x="710" d="M74 667h101v-403q0 -87 47 -137q47 -50 133 -50q86 0 132.5 50q46.5 50 46.5 137v403h101v-405q0 -128 -71.5 -201q-71.5 -73 -208.5 -73q-137 0 -209 73.5q-72 73.5 -72 199.5zM356 908q41 0 70 -30q29 -30 29 -71q0 -41 -29 -71q-29 -30 -70 -30q-41 0 -70.5 30q-29.5 30 -29.5 71q0 41 29.5 71q29.5 30 70.5 30zt0 0zM356 862q-23 0 -39 -16q-16 -16 -16 -39q0 -23 16.5 -39.5q16.5 -16.5 38.5 -16.5q23 0 39 16.5q16 16.5 16 39.5q0 23 -16 39t-39 16z" />
<glyph unicode="&#360;" horiz-adv-x="710" d="M74 667h101v-403q0 -87 47 -137q47 -50 133 -50q86 0 132.5 50q46.5 50 46.5 137v403h101v-405q0 -128 -71.5 -201q-71.5 -73 -208.5 -73q-137 0 -209 73.5q-72 73.5 -72 199.5zM293 806q-20 0 -32.5 -20q-12.5 -20 -12.5 -59l-51 0q0 61 26 97.5q26 36.5 74 36.5q26 0 41.5 -12.5q15.5 -12.5 33.5 -36.5q14 -19 23.5 -27.5q9.5 -8.5 22.5 -8.5q20 0 32 20q12 20 12 59l52 0q0 -61 -26 -97.5q-26 -36.5 -74 -36.5q-27 0 -42.5 12.5q-15.5 12.5 -33.5 36.5q-12 18 -22 27t-23 9z" />
<glyph unicode="&#7908;" horiz-adv-x="710" d="M74 667h101v-403q0 -87 47 -137q47 -50 133 -50q86 0 132.5 50q46.5 50 46.5 137v403h101v-405q0 -128 -71.5 -201q-71.5 -73 -208.5 -73q-137 0 -209 73.5q-72 73.5 -72 199.5zM355 -65q22 0 37 -15.5q15 -15.5 15 -37.5q0 -22 -15 -37.5q-15 -15.5 -37 -15.5q-22 0 -37.5 15.5q-15.5 15.5 -15.5 37.5q0 22 15.5 37.5t37.5 15.5z" />
<glyph unicode="&#431;" horiz-adv-x="710" d="M635 573v-311q0 -128 -71.5 -201q-71.5 -73 -208.5 -73q-137 0 -209 73.5q-72 73.5 -72 199.5v406h101v-403q0 -87 47 -137q47 -50 133 -50q86 0 132.5 50q46.5 50 46.5 137v403h101v-51q27 14 46.5 39q19.5 25 21.5 50q-4 -2 -12 -2q-18 0 -30 12.5q-12 12.5 -12 31.5q0 19 13.5 32.5q13.5 13.5 32.5 13.5q23 0 38.5 -17.5q15.5 -17.5 15.5 -47.5q0 -48 -30.5 -90.5t-83.5 -64.5z" />
<glyph unicode="&#7910;" horiz-adv-x="710" d="M74 667h101v-403q0 -87 47 -137q47 -50 133 -50q86 0 132.5 50q46.5 50 46.5 137v403h101v-405q0 -128 -71.5 -201q-71.5 -73 -208.5 -73q-137 0 -209 73.5q-72 73.5 -72 199.5zM348 883q41 0 68.5 -23q27.5 -23 27.5 -68q0 -19 -5.5 -34q-5.5 -15 -18.5 -34l-56 0q28 31 28 67q0 23 -12 35q-12 12 -32 12q-35 0 -50 -41l-47 15q11 33 36 52t61 19z" />
<glyph unicode="&#7912;" horiz-adv-x="710" d="M635 573v-311q0 -128 -71.5 -201q-71.5 -73 -208.5 -73q-137 0 -209 73.5q-72 73.5 -72 199.5v406h101v-403q0 -87 47 -137q47 -50 133 -50q86 0 132.5 50q46.5 50 46.5 137v403h101v-51q27 14 46.5 39q19.5 25 21.5 50q-4 -2 -12 -2q-18 0 -30 12.5q-12 12.5 -12 31.5q0 19 13.5 32.5q13.5 13.5 32.5 13.5q23 0 38.5 -17.5q15.5 -17.5 15.5 -47.5q0 -48 -30.5 -90.5q-30.5 -42.5 -83.5 -64.5zt0 0zM319 723l144 144h89l-167 -144z" />
<glyph unicode="&#7914;" horiz-adv-x="710" d="M635 573v-311q0 -128 -71.5 -201q-71.5 -73 -208.5 -73q-137 0 -209 73.5q-72 73.5 -72 199.5v406h101v-403q0 -87 47 -137q47 -50 133 -50q86 0 132.5 50q46.5 50 46.5 137v403h101v-51q27 14 46.5 39q19.5 25 21.5 50q-4 -2 -12 -2q-18 0 -30 12.5q-12 12.5 -12 31.5q0 19 13.5 32.5q13.5 13.5 32.5 13.5q23 0 38.5 -17.5q15.5 -17.5 15.5 -47.5q0 -48 -30.5 -90.5q-30.5 -42.5 -83.5 -64.5zt0 0zM155 867h89l144 -144l-66 0z" />
<glyph unicode="&#7916;" horiz-adv-x="710" d="M635 573v-311q0 -128 -71.5 -201q-71.5 -73 -208.5 -73q-137 0 -209 73.5q-72 73.5 -72 199.5v406h101v-403q0 -87 47 -137q47 -50 133 -50q86 0 132.5 50q46.5 50 46.5 137v403h101v-51q27 14 46.5 39q19.5 25 21.5 50q-4 -2 -12 -2q-18 0 -30 12.5q-12 12.5 -12 31.5q0 19 13.5 32.5q13.5 13.5 32.5 13.5q23 0 38.5 -17.5q15.5 -17.5 15.5 -47.5q0 -48 -30.5 -90.5q-30.5 -42.5 -83.5 -64.5zt0 0zM348 883q41 0 68.5 -23q27.5 -23 27.5 -68q0 -19 -5.5 -34q-5.5 -15 -18.5 -34l-56 0q28 31 28 67q0 23 -12 35q-12 12 -32 12q-35 0 -50 -41l-47 15q11 33 36 52t61 19z" />
<glyph unicode="&#7918;" horiz-adv-x="710" d="M635 573v-311q0 -128 -71.5 -201q-71.5 -73 -208.5 -73q-137 0 -209 73.5q-72 73.5 -72 199.5v406h101v-403q0 -87 47 -137q47 -50 133 -50q86 0 132.5 50q46.5 50 46.5 137v403h101v-51q27 14 46.5 39q19.5 25 21.5 50q-4 -2 -12 -2q-18 0 -30 12.5q-12 12.5 -12 31.5q0 19 13.5 32.5q13.5 13.5 32.5 13.5q23 0 38.5 -17.5q15.5 -17.5 15.5 -47.5q0 -48 -30.5 -90.5q-30.5 -42.5 -83.5 -64.5zt0 0zM293 806q-20 0 -32.5 -20q-12.5 -20 -12.5 -59l-51 0q0 61 26 97.5q26 36.5 74 36.5q26 0 41.5 -12.5q15.5 -12.5 33.5 -36.5q14 -19 23.5 -27.5q9.5 -8.5 22.5 -8.5q20 0 32 20q12 20 12 59l52 0q0 -61 -26 -97.5q-26 -36.5 -74 -36.5q-27 0 -42.5 12.5q-15.5 12.5 -33.5 36.5q-12 18 -22 27t-23 9z" />
<glyph unicode="&#7920;" horiz-adv-x="710" d="M635 573v-311q0 -128 -71.5 -201q-71.5 -73 -208.5 -73q-137 0 -209 73.5q-72 73.5 -72 199.5v406h101v-403q0 -87 47 -137q47 -50 133 -50q86 0 132.5 50q46.5 50 46.5 137v403h101v-51q27 14 46.5 39q19.5 25 21.5 50q-4 -2 -12 -2q-18 0 -30 12.5q-12 12.5 -12 31.5q0 19 13.5 32.5q13.5 13.5 32.5 13.5q23 0 38.5 -17.5q15.5 -17.5 15.5 -47.5q0 -48 -30.5 -90.5q-30.5 -42.5 -83.5 -64.5zt0 0zM355 -65q22 0 37 -15.5q15 -15.5 15 -37.5q0 -22 -15 -37.5q-15 -15.5 -37 -15.5q-22 0 -37.5 15.5q-15.5 15.5 -15.5 37.5q0 22 15.5 37.5t37.5 15.5z" />
<glyph unicode="&#7810;" horiz-adv-x="893" d="M446 515l-138 -515h-107l-191 667h112l138 -535l146 535h81l145 -535l138 535h112l-190 -667h-107zM410 723l144 144h89l-167 -144z" />
<glyph unicode="&#372;" horiz-adv-x="893" d="M446 515l-138 -515h-107l-191 667h112l138 -535l146 535h81l145 -535l138 535h112l-190 -667h-107zM446 824l-78 -101h-58l94 144h84l97 -144l-59 0z" />
<glyph unicode="&#7812;" horiz-adv-x="893" d="M446 515l-138 -515h-107l-191 667h112l138 -535l146 535h81l145 -535l138 535h112l-190 -667h-107zM289 785q0 22 15.5 37q15.5 15 37.5 15q22 0 37 -15q15 -15 15 -37q0 -22 -15 -37.5q-15 -15.5 -37 -15.5q-22 0 -37.5 15.5q-15.5 15.5 -15.5 37.5zt0 0zM497 785q0 22 15.5 37q15.5 15 37.5 15q21 0 37 -15.5q16 -15.5 16 -36.5q0 -22 -16 -37.5q-16 -15.5 -37 -15.5q-22 0 -37.5 15.5t-15.5 37.5z" />
<glyph unicode="&#7808;" horiz-adv-x="893" d="M446 515l-138 -515h-107l-191 667h112l138 -535l146 535h81l145 -535l138 535h112l-190 -667h-107zM246 867h89l144 -144l-66 0z" />
<glyph unicode="&#221;" horiz-adv-x="632" d="M266 279l-261 388h115l196 -298l194 298h116l-260 -388v-279h-100zM279 723l144 144h89l-167 -144z" />
<glyph unicode="&#374;" horiz-adv-x="632" d="M266 279l-261 388h115l196 -298l194 298h116l-260 -388v-279h-100zM315 824l-78 -101h-58l94 144h84l97 -144l-59 0z" />
<glyph unicode="&#376;" horiz-adv-x="632" d="M266 279l-261 388h115l196 -298l194 298h116l-260 -388v-279h-100zM158 785q0 22 15.5 37q15.5 15 37.5 15q22 0 37 -15q15 -15 15 -37q0 -22 -15 -37.5q-15 -15.5 -37 -15.5q-22 0 -37.5 15.5q-15.5 15.5 -15.5 37.5zt0 0zM366 785q0 22 15.5 37q15.5 15 37.5 15q21 0 37 -15.5q16 -15.5 16 -36.5q0 -22 -16 -37.5q-16 -15.5 -37 -15.5q-22 0 -37.5 15.5t-15.5 37.5z" />
<glyph unicode="&#7922;" horiz-adv-x="632" d="M266 279l-261 388h115l196 -298l194 298h116l-260 -388v-279h-100zM115 867h89l144 -144l-66 0z" />
<glyph unicode="&#562;" horiz-adv-x="632" d="M266 279l-261 388h115l196 -298l194 298h116l-260 -388v-279h-100zM157 791h315v-55l-315 0z" />
<glyph unicode="&#7924;" horiz-adv-x="632" d="M266 279l-261 388h115l196 -298l194 298h116l-260 -388v-279h-100zM315 -65q22 0 37 -15.5q15 -15.5 15 -37.5q0 -22 -15 -37.5q-15 -15.5 -37 -15.5q-22 0 -37.5 15.5q-15.5 15.5 -15.5 37.5q0 22 15.5 37.5t37.5 15.5z" />
<glyph unicode="&#7926;" horiz-adv-x="632" d="M266 279l-261 388h115l196 -298l194 298h116l-260 -388v-279h-100zM308 883q41 0 68.5 -23q27.5 -23 27.5 -68q0 -19 -5.5 -34q-5.5 -15 -18.5 -34l-56 0q28 31 28 67q0 23 -12 35q-12 12 -32 12q-35 0 -50 -41l-47 15q11 33 36 52t61 19z" />
<glyph unicode="&#7928;" horiz-adv-x="632" d="M266 279l-261 388h115l196 -298l194 298h116l-260 -388v-279h-100zM253 806q-20 0 -32.5 -20q-12.5 -20 -12.5 -59l-51 0q0 61 26 97.5q26 36.5 74 36.5q26 0 41.5 -12.5q15.5 -12.5 33.5 -36.5q14 -19 23.5 -27.5q9.5 -8.5 22.5 -8.5q20 0 32 20q12 20 12 59l52 0q0 -61 -26 -97.5q-26 -36.5 -74 -36.5q-27 0 -42.5 12.5q-15.5 12.5 -33.5 36.5q-12 18 -22 27t-23 9z" />
<glyph unicode="&#377;" horiz-adv-x="587" d="M46 82l358 497h-358v88h487v-82l-358 -497h365v-88h-494zM258 723l144 144h89l-167 -144z" />
<glyph unicode="&#381;" horiz-adv-x="587" d="M46 82l358 497h-358v88h487v-82l-358 -497h365v-88h-494zM155 867h58l81 -102l77 102h59l-94 -144l-84 0z" />
<glyph unicode="&#379;" horiz-adv-x="587" d="M46 82l358 497h-358v88h487v-82l-358 -497h365v-88h-494zM294 837q21 0 36.5 -16q15.5 -16 15.5 -37q0 -22 -15 -37.5q-15 -15.5 -37 -15.5q-22 0 -37.5 15.5q-15.5 15.5 -15.5 37.5q0 21 15.5 37t37.5 16z" />
<glyph unicode="&#208;" horiz-adv-x="732" d="M685 333q0 -96 -43 -171.5q-43 -75.5 -122 -118.5q-79 -43 -181 -43h-238v291h-91v75h91v301h238q102 0 180.5 -43q78.5 -43 122 -119.5q43.5 -76.5 43.5 -171.5zt0 0zM582 333q0 69 -28.5 125q-28.5 56 -83.5 88.5q-55 32.5 -131 32.5h-138v-213h164v-75h-164v-203h138q75 0 130 32.5q55 32.5 84 88.5t29 124z" />
<glyph unicode="&#222;" horiz-adv-x="597" d="M74 667h100v-116h181q66 0 114.5 -28q48.5 -28 73.5 -75q25 -47 25 -103q0 -56 -25.5 -102.5q-25.5 -46.5 -73.5 -73.5q-48 -27 -114 -27h-181v-142h-100zM342 462h-168v-232h168q54 0 88.5 32q34.5 32 34.5 84q0 51 -34.5 83.5t-88.5 32.5z" />
<glyph unicode="&#225;" horiz-adv-x="532" d="M370 53q-29 -32 -69 -48.5q-40 -16.5 -89 -16.5q-42 0 -80.5 18.5q-38.5 18.5 -63 55q-24.5 36.5 -24.5 86.5q0 52 24 87.5q24 35.5 62.5 53q38.5 17.5 81.5 17.5q50 0 90.5 -16q40.5 -16 67.5 -48l0 80q0 44 -32.5 70q-32.5 26 -85.5 26q-81 0 -145 -64l-39 62q80 79 198 79q86 0 140 -41q54 -41 54 -128v-326h-90zM370 188q-20 27 -53 41q-33 14 -71 14q-49 0 -80 -26.5q-31 -26.5 -31 -69.5q0 -43 31 -69.5q31 -26.5 80 -26.5q38 0 71 14q33 14 53 41zM231 556l144 144h89l-167 -144z" />
<glyph unicode="&#259;" horiz-adv-x="532" d="M370 53q-29 -32 -69 -48.5q-40 -16.5 -89 -16.5q-42 0 -80.5 18.5q-38.5 18.5 -63 55q-24.5 36.5 -24.5 86.5q0 52 24 87.5q24 35.5 62.5 53q38.5 17.5 81.5 17.5q50 0 90.5 -16q40.5 -16 67.5 -48l0 80q0 44 -32.5 70q-32.5 26 -85.5 26q-81 0 -145 -64l-39 62q80 79 198 79q86 0 140 -41q54 -41 54 -128v-326h-90zM370 188q-20 27 -53 41q-33 14 -71 14q-49 0 -80 -26.5q-31 -26.5 -31 -69.5q0 -43 31 -69.5q31 -26.5 80 -26.5q38 0 71 14q33 14 53 41zM91 640l43 36q23 -32 57 -50.5q34 -18.5 76 -18.5q41 0 75 18q34 18 58 51l42 -36q-31 -41 -76.5 -64.5q-45.5 -23.5 -98.5 -23.5q-53 0 -99 23.5t-77 64.5z" />
<glyph unicode="&#226;" horiz-adv-x="532" d="M370 53q-29 -32 -69 -48.5q-40 -16.5 -89 -16.5q-42 0 -80.5 18.5q-38.5 18.5 -63 55q-24.5 36.5 -24.5 86.5q0 52 24 87.5q24 35.5 62.5 53q38.5 17.5 81.5 17.5q50 0 90.5 -16q40.5 -16 67.5 -48l0 80q0 44 -32.5 70q-32.5 26 -85.5 26q-81 0 -145 -64l-39 62q80 79 198 79q86 0 140 -41q54 -41 54 -128v-326h-90zM370 188q-20 27 -53 41q-33 14 -71 14q-49 0 -80 -26.5q-31 -26.5 -31 -69.5q0 -43 31 -69.5q31 -26.5 80 -26.5q38 0 71 14q33 14 53 41zM267 657l-78 -101h-58l94 144h84l97 -144l-59 0z" />
<glyph unicode="&#228;" horiz-adv-x="532" d="M370 53q-29 -32 -69 -48.5q-40 -16.5 -89 -16.5q-42 0 -80.5 18.5q-38.5 18.5 -63 55q-24.5 36.5 -24.5 86.5q0 52 24 87.5q24 35.5 62.5 53q38.5 17.5 81.5 17.5q50 0 90.5 -16q40.5 -16 67.5 -48l0 80q0 44 -32.5 70q-32.5 26 -85.5 26q-81 0 -145 -64l-39 62q80 79 198 79q86 0 140 -41q54 -41 54 -128v-326h-90zM370 188q-20 27 -53 41q-33 14 -71 14q-49 0 -80 -26.5q-31 -26.5 -31 -69.5q0 -43 31 -69.5q31 -26.5 80 -26.5q38 0 71 14q33 14 53 41zM110 618q0 22 15.5 37q15.5 15 37.5 15q22 0 37 -15q15 -15 15 -37q0 -22 -15 -37.5q-15 -15.5 -37 -15.5q-22 0 -37.5 15.5q-15.5 15.5 -15.5 37.5zt0 0zM318 618q0 22 15.5 37q15.5 15 37.5 15q21 0 37 -15.5q16 -15.5 16 -36.5q0 -22 -16 -37.5q-16 -15.5 -37 -15.5q-22 0 -37.5 15.5t-15.5 37.5z" />
<glyph unicode="&#224;" horiz-adv-x="532" d="M370 53q-29 -32 -69 -48.5q-40 -16.5 -89 -16.5q-42 0 -80.5 18.5q-38.5 18.5 -63 55q-24.5 36.5 -24.5 86.5q0 52 24 87.5q24 35.5 62.5 53q38.5 17.5 81.5 17.5q50 0 90.5 -16q40.5 -16 67.5 -48l0 80q0 44 -32.5 70q-32.5 26 -85.5 26q-81 0 -145 -64l-39 62q80 79 198 79q86 0 140 -41q54 -41 54 -128v-326h-90zM370 188q-20 27 -53 41q-33 14 -71 14q-49 0 -80 -26.5q-31 -26.5 -31 -69.5q0 -43 31 -69.5q31 -26.5 80 -26.5q38 0 71 14q33 14 53 41zM67 700h89l144 -144l-66 0z" />
<glyph unicode="&#257;" horiz-adv-x="532" d="M370 53q-29 -32 -69 -48.5q-40 -16.5 -89 -16.5q-42 0 -80.5 18.5q-38.5 18.5 -63 55q-24.5 36.5 -24.5 86.5q0 52 24 87.5q24 35.5 62.5 53q38.5 17.5 81.5 17.5q50 0 90.5 -16q40.5 -16 67.5 -48l0 80q0 44 -32.5 70q-32.5 26 -85.5 26q-81 0 -145 -64l-39 62q80 79 198 79q86 0 140 -41q54 -41 54 -128v-326h-90zM370 188q-20 27 -53 41q-33 14 -71 14q-49 0 -80 -26.5q-31 -26.5 -31 -69.5q0 -43 31 -69.5q31 -26.5 80 -26.5q38 0 71 14q33 14 53 41zM109 624h315v-55l-315 0z" />
<glyph unicode="&#261;" horiz-adv-x="532" d="M368 -89q0 -16 11.5 -25.5q11.5 -9.5 27.5 -9.5q18 0 31 8l22 -53q-28 -17 -74 -17q-43 0 -72.5 20q-29.5 20 -29.5 56q0 33 29 61q29 28 76 49l-19 0v53q-29 -32 -69 -48.5q-40 -16.5 -89 -16.5q-42 0 -80.5 18.5q-38.5 18.5 -63 55q-24.5 36.5 -24.5 86.5q0 52 24 87.5q24 35.5 62.5 53q38.5 17.5 81.5 17.5q50 0 90.5 -16q40.5 -16 67.5 -48l0 80q0 44 -32.5 70q-32.5 26 -85.5 26q-81 0 -145 -64l-39 62q80 79 198 79q86 0 140 -41q54 -41 54 -128v-326q-92 -37 -92 -89zt0 0zM370 188q-20 27 -53 41q-33 14 -71 14q-49 0 -80 -26.5q-31 -26.5 -31 -69.5q0 -43 31 -69.5q31 -26.5 80 -26.5q38 0 71 14q33 14 53 41z" />
<glyph unicode="&#229;" horiz-adv-x="532" d="M370 53q-29 -32 -69 -48.5q-40 -16.5 -89 -16.5q-42 0 -80.5 18.5q-38.5 18.5 -63 55q-24.5 36.5 -24.5 86.5q0 52 24 87.5q24 35.5 62.5 53q38.5 17.5 81.5 17.5q50 0 90.5 -16q40.5 -16 67.5 -48l0 80q0 44 -32.5 70q-32.5 26 -85.5 26q-81 0 -145 -64l-39 62q80 79 198 79q86 0 140 -41q54 -41 54 -128v-326h-90zM370 188q-20 27 -53 41q-33 14 -71 14q-49 0 -80 -26.5q-31 -26.5 -31 -69.5q0 -43 31 -69.5q31 -26.5 80 -26.5q38 0 71 14q33 14 53 41zM268 741q41 0 70 -30q29 -30 29 -71q0 -41 -29 -71q-29 -30 -70 -30q-41 0 -70.5 30q-29.5 30 -29.5 71q0 41 29.5 71q29.5 30 70.5 30zt0 0zM268 695q-23 0 -39 -16q-16 -16 -16 -39q0 -23 16.5 -39.5q16.5 -16.5 38.5 -16.5q23 0 39 16.5q16 16.5 16 39.5q0 23 -16 39t-39 16z" />
<glyph unicode="&#507;" horiz-adv-x="532" d="M370 53q-29 -32 -69 -48.5q-40 -16.5 -89 -16.5q-42 0 -80.5 18.5q-38.5 18.5 -63 55q-24.5 36.5 -24.5 86.5q0 52 24 87.5q24 35.5 62.5 53q38.5 17.5 81.5 17.5q50 0 90.5 -16q40.5 -16 67.5 -48l0 80q0 44 -32.5 70q-32.5 26 -85.5 26q-81 0 -145 -64l-39 62q80 79 198 79q86 0 140 -41q54 -41 54 -128v-326h-90zM370 188q-20 27 -53 41q-33 14 -71 14q-49 0 -80 -26.5q-31 -26.5 -31 -69.5q0 -43 31 -69.5q31 -26.5 80 -26.5q38 0 71 14q33 14 53 41zM268 741q41 0 70 -30q29 -30 29 -71q0 -41 -29 -71q-29 -30 -70 -30q-41 0 -70.5 30q-29.5 30 -29.5 71q0 41 29.5 71q29.5 30 70.5 30zt0 0zM268 695q-23 0 -39 -16q-16 -16 -16 -39q0 -23 16.5 -39.5q16.5 -16.5 38.5 -16.5q23 0 39 16.5q16 16.5 16 39.5q0 23 -16 39q-16 16 -39 16zt0 0zM231 768l144 144h89l-167 -144z" />
<glyph unicode="&#227;" horiz-adv-x="532" d="M370 53q-29 -32 -69 -48.5q-40 -16.5 -89 -16.5q-42 0 -80.5 18.5q-38.5 18.5 -63 55q-24.5 36.5 -24.5 86.5q0 52 24 87.5q24 35.5 62.5 53q38.5 17.5 81.5 17.5q50 0 90.5 -16q40.5 -16 67.5 -48l0 80q0 44 -32.5 70q-32.5 26 -85.5 26q-81 0 -145 -64l-39 62q80 79 198 79q86 0 140 -41q54 -41 54 -128v-326h-90zM370 188q-20 27 -53 41q-33 14 -71 14q-49 0 -80 -26.5q-31 -26.5 -31 -69.5q0 -43 31 -69.5q31 -26.5 80 -26.5q38 0 71 14q33 14 53 41zM205 639q-20 0 -32.5 -20q-12.5 -20 -12.5 -59l-51 0q0 61 26 97.5q26 36.5 74 36.5q26 0 41.5 -12.5q15.5 -12.5 33.5 -36.5q14 -19 23.5 -27.5q9.5 -8.5 22.5 -8.5q20 0 32 20q12 20 12 59l52 0q0 -61 -26 -97.5q-26 -36.5 -74 -36.5q-27 0 -42.5 12.5q-15.5 12.5 -33.5 36.5q-12 18 -22 27t-23 9z" />
<glyph unicode="&#7841;" horiz-adv-x="532" d="M370 53q-29 -32 -69 -48.5q-40 -16.5 -89 -16.5q-42 0 -80.5 18.5q-38.5 18.5 -63 55q-24.5 36.5 -24.5 86.5q0 52 24 87.5q24 35.5 62.5 53q38.5 17.5 81.5 17.5q50 0 90.5 -16q40.5 -16 67.5 -48l0 80q0 44 -32.5 70q-32.5 26 -85.5 26q-81 0 -145 -64l-39 62q80 79 198 79q86 0 140 -41q54 -41 54 -128v-326h-90zM370 188q-20 27 -53 41q-33 14 -71 14q-49 0 -80 -26.5q-31 -26.5 -31 -69.5q0 -43 31 -69.5q31 -26.5 80 -26.5q38 0 71 14q33 14 53 41zM267 -65q22 0 37 -15.5q15 -15.5 15 -37.5q0 -22 -15 -37.5q-15 -15.5 -37 -15.5q-22 0 -37.5 15.5q-15.5 15.5 -15.5 37.5q0 22 15.5 37.5t37.5 15.5z" />
<glyph unicode="&#7843;" horiz-adv-x="532" d="M370 53q-29 -32 -69 -48.5q-40 -16.5 -89 -16.5q-42 0 -80.5 18.5q-38.5 18.5 -63 55q-24.5 36.5 -24.5 86.5q0 52 24 87.5q24 35.5 62.5 53q38.5 17.5 81.5 17.5q50 0 90.5 -16q40.5 -16 67.5 -48l0 80q0 44 -32.5 70q-32.5 26 -85.5 26q-81 0 -145 -64l-39 62q80 79 198 79q86 0 140 -41q54 -41 54 -128v-326h-90zM370 188q-20 27 -53 41q-33 14 -71 14q-49 0 -80 -26.5q-31 -26.5 -31 -69.5q0 -43 31 -69.5q31 -26.5 80 -26.5q38 0 71 14q33 14 53 41zM260 716q41 0 68.5 -23q27.5 -23 27.5 -68q0 -19 -5.5 -34q-5.5 -15 -18.5 -34l-56 0q28 31 28 67q0 23 -12 35q-12 12 -32 12q-35 0 -50 -41l-47 15q11 33 36 52t61 19z" />
<glyph unicode="&#7845;" horiz-adv-x="532" d="M370 53q-29 -32 -69 -48.5q-40 -16.5 -89 -16.5q-42 0 -80.5 18.5q-38.5 18.5 -63 55q-24.5 36.5 -24.5 86.5q0 52 24 87.5q24 35.5 62.5 53q38.5 17.5 81.5 17.5q50 0 90.5 -16q40.5 -16 67.5 -48l0 80q0 44 -32.5 70q-32.5 26 -85.5 26q-81 0 -145 -64l-39 62q80 79 198 79q86 0 140 -41q54 -41 54 -128v-326h-90zM370 188q-20 27 -53 41q-33 14 -71 14q-49 0 -80 -26.5q-31 -26.5 -31 -69.5q0 -43 31 -69.5q31 -26.5 80 -26.5q38 0 71 14q33 14 53 41zM267 657l-78 -101h-58l94 144h84l97 -144h-59zM374 656l144 144h89l-167 -144z" />
<glyph unicode="&#7853;" horiz-adv-x="532" d="M370 53q-29 -32 -69 -48.5q-40 -16.5 -89 -16.5q-42 0 -80.5 18.5q-38.5 18.5 -63 55q-24.5 36.5 -24.5 86.5q0 52 24 87.5q24 35.5 62.5 53q38.5 17.5 81.5 17.5q50 0 90.5 -16q40.5 -16 67.5 -48l0 80q0 44 -32.5 70q-32.5 26 -85.5 26q-81 0 -145 -64l-39 62q80 79 198 79q86 0 140 -41q54 -41 54 -128v-326h-90zM370 188q-20 27 -53 41q-33 14 -71 14q-49 0 -80 -26.5q-31 -26.5 -31 -69.5q0 -43 31 -69.5q31 -26.5 80 -26.5q38 0 71 14q33 14 53 41zM267 657l-78 -101h-58l94 144h84l97 -144h-59zM267 -65q22 0 37 -15.5q15 -15.5 15 -37.5q0 -22 -15 -37.5q-15 -15.5 -37 -15.5q-22 0 -37.5 15.5q-15.5 15.5 -15.5 37.5q0 22 15.5 37.5t37.5 15.5z" />
<glyph unicode="&#7847;" horiz-adv-x="532" d="M370 53q-29 -32 -69 -48.5q-40 -16.5 -89 -16.5q-42 0 -80.5 18.5q-38.5 18.5 -63 55q-24.5 36.5 -24.5 86.5q0 52 24 87.5q24 35.5 62.5 53q38.5 17.5 81.5 17.5q50 0 90.5 -16q40.5 -16 67.5 -48l0 80q0 44 -32.5 70q-32.5 26 -85.5 26q-81 0 -145 -64l-39 62q80 79 198 79q86 0 140 -41q54 -41 54 -128v-326h-90zM370 188q-20 27 -53 41q-33 14 -71 14q-49 0 -80 -26.5q-31 -26.5 -31 -69.5q0 -43 31 -69.5q31 -26.5 80 -26.5q38 0 71 14q33 14 53 41zM267 657l-78 -101h-58l94 144h84l97 -144h-59zM-69 800h89l144 -144l-66 0z" />
<glyph unicode="&#7849;" horiz-adv-x="532" d="M370 53q-29 -32 -69 -48.5q-40 -16.5 -89 -16.5q-42 0 -80.5 18.5q-38.5 18.5 -63 55q-24.5 36.5 -24.5 86.5q0 52 24 87.5q24 35.5 62.5 53q38.5 17.5 81.5 17.5q50 0 90.5 -16q40.5 -16 67.5 -48l0 80q0 44 -32.5 70q-32.5 26 -85.5 26q-81 0 -145 -64l-39 62q80 79 198 79q86 0 140 -41q54 -41 54 -128v-326h-90zM370 188q-20 27 -53 41q-33 14 -71 14q-49 0 -80 -26.5q-31 -26.5 -31 -69.5q0 -43 31 -69.5q31 -26.5 80 -26.5q38 0 71 14q33 14 53 41zM267 657l-78 -101h-58l94 144h84l97 -144h-59zM359 815q41 0 68.5 -23q27.5 -23 27.5 -68q0 -19 -5.5 -34q-5.5 -15 -18.5 -34l-56 0q28 31 28 67q0 23 -12 35q-12 12 -32 12q-35 0 -50 -41l-47 15q11 33 36 52t61 19z" />
<glyph unicode="&#7855;" horiz-adv-x="532" d="M370 53q-29 -32 -69 -48.5q-40 -16.5 -89 -16.5q-42 0 -80.5 18.5q-38.5 18.5 -63 55q-24.5 36.5 -24.5 86.5q0 52 24 87.5q24 35.5 62.5 53q38.5 17.5 81.5 17.5q50 0 90.5 -16q40.5 -16 67.5 -48l0 80q0 44 -32.5 70q-32.5 26 -85.5 26q-81 0 -145 -64l-39 62q80 79 198 79q86 0 140 -41q54 -41 54 -128v-326h-90zM370 188q-20 27 -53 41q-33 14 -71 14q-49 0 -80 -26.5q-31 -26.5 -31 -69.5q0 -43 31 -69.5q31 -26.5 80 -26.5q38 0 71 14q33 14 53 41zM91 640l43 36q23 -32 57 -50.5q34 -18.5 76 -18.5q41 0 75 18q34 18 58 51l42 -36q-31 -41 -76.5 -64.5q-45.5 -23.5 -98.5 -23.5q-53 0 -99 23.5q-46 23.5 -77 64.5zt0 0zM231 682l144 144h89l-167 -144z" />
<glyph unicode="&#7851;" horiz-adv-x="532" d="M370 53q-29 -32 -69 -48.5q-40 -16.5 -89 -16.5q-42 0 -80.5 18.5q-38.5 18.5 -63 55q-24.5 36.5 -24.5 86.5q0 52 24 87.5q24 35.5 62.5 53q38.5 17.5 81.5 17.5q50 0 90.5 -16q40.5 -16 67.5 -48l0 80q0 44 -32.5 70q-32.5 26 -85.5 26q-81 0 -145 -64l-39 62q80 79 198 79q86 0 140 -41q54 -41 54 -128v-326h-90zM370 188q-20 27 -53 41q-33 14 -71 14q-49 0 -80 -26.5q-31 -26.5 -31 -69.5q0 -43 31 -69.5q31 -26.5 80 -26.5q38 0 71 14q33 14 53 41zM267 657l-78 -101h-58l94 144h84l97 -144h-59zM205 801q-20 0 -32.5 -20q-12.5 -20 -12.5 -59l-51 0q0 61 26 97.5q26 36.5 74 36.5q26 0 41.5 -12.5q15.5 -12.5 33.5 -36.5q14 -19 23.5 -27.5q9.5 -8.5 22.5 -8.5q20 0 32 20q12 20 12 59l52 0q0 -61 -26 -97.5q-26 -36.5 -74 -36.5q-27 0 -42.5 12.5q-15.5 12.5 -33.5 36.5q-12 18 -22 27t-23 9z" />
<glyph unicode="&#7857;" horiz-adv-x="532" d="M370 53q-29 -32 -69 -48.5q-40 -16.5 -89 -16.5q-42 0 -80.5 18.5q-38.5 18.5 -63 55q-24.5 36.5 -24.5 86.5q0 52 24 87.5q24 35.5 62.5 53q38.5 17.5 81.5 17.5q50 0 90.5 -16q40.5 -16 67.5 -48l0 80q0 44 -32.5 70q-32.5 26 -85.5 26q-81 0 -145 -64l-39 62q80 79 198 79q86 0 140 -41q54 -41 54 -128v-326h-90zM370 188q-20 27 -53 41q-33 14 -71 14q-49 0 -80 -26.5q-31 -26.5 -31 -69.5q0 -43 31 -69.5q31 -26.5 80 -26.5q38 0 71 14q33 14 53 41zM91 640l43 36q23 -32 57 -50.5q34 -18.5 76 -18.5q41 0 75 18q34 18 58 51l42 -36q-31 -41 -76.5 -64.5q-45.5 -23.5 -98.5 -23.5q-53 0 -99 23.5q-46 23.5 -77 64.5zt0 0zM67 826h89l144 -144l-66 0z" />
<glyph unicode="&#7859;" horiz-adv-x="532" d="M370 53q-29 -32 -69 -48.5q-40 -16.5 -89 -16.5q-42 0 -80.5 18.5q-38.5 18.5 -63 55q-24.5 36.5 -24.5 86.5q0 52 24 87.5q24 35.5 62.5 53q38.5 17.5 81.5 17.5q50 0 90.5 -16q40.5 -16 67.5 -48l0 80q0 44 -32.5 70q-32.5 26 -85.5 26q-81 0 -145 -64l-39 62q80 79 198 79q86 0 140 -41q54 -41 54 -128v-326h-90zM370 188q-20 27 -53 41q-33 14 -71 14q-49 0 -80 -26.5q-31 -26.5 -31 -69.5q0 -43 31 -69.5q31 -26.5 80 -26.5q38 0 71 14q33 14 53 41zM91 640l43 36q23 -32 57 -50.5q34 -18.5 76 -18.5q41 0 75 18q34 18 58 51l42 -36q-31 -41 -76.5 -64.5q-45.5 -23.5 -98.5 -23.5q-53 0 -99 23.5q-46 23.5 -77 64.5zt0 0zM260 842q41 0 68.5 -23q27.5 -23 27.5 -68q0 -19 -5.5 -34q-5.5 -15 -18.5 -34l-56 0q28 31 28 67q0 23 -12 35q-12 12 -32 12q-35 0 -50 -41l-47 15q11 33 36 52t61 19z" />
<glyph unicode="&#7861;" horiz-adv-x="532" d="M370 53q-29 -32 -69 -48.5q-40 -16.5 -89 -16.5q-42 0 -80.5 18.5q-38.5 18.5 -63 55q-24.5 36.5 -24.5 86.5q0 52 24 87.5q24 35.5 62.5 53q38.5 17.5 81.5 17.5q50 0 90.5 -16q40.5 -16 67.5 -48l0 80q0 44 -32.5 70q-32.5 26 -85.5 26q-81 0 -145 -64l-39 62q80 79 198 79q86 0 140 -41q54 -41 54 -128v-326h-90zM370 188q-20 27 -53 41q-33 14 -71 14q-49 0 -80 -26.5q-31 -26.5 -31 -69.5q0 -43 31 -69.5q31 -26.5 80 -26.5q38 0 71 14q33 14 53 41zM91 640l43 36q23 -32 57 -50.5q34 -18.5 76 -18.5q41 0 75 18q34 18 58 51l42 -36q-31 -41 -76.5 -64.5q-45.5 -23.5 -98.5 -23.5q-53 0 -99 23.5q-46 23.5 -77 64.5zt0 0zM205 765q-20 0 -32.5 -20q-12.5 -20 -12.5 -59l-51 0q0 61 26 97.5q26 36.5 74 36.5q26 0 41.5 -12.5q15.5 -12.5 33.5 -36.5q14 -19 23.5 -27.5q9.5 -8.5 22.5 -8.5q20 0 32 20q12 20 12 59l52 0q0 -61 -26 -97.5q-26 -36.5 -74 -36.5q-27 0 -42.5 12.5q-15.5 12.5 -33.5 36.5q-12 18 -22 27t-23 9z" />
<glyph unicode="&#7863;" horiz-adv-x="532" d="M370 53q-29 -32 -69 -48.5q-40 -16.5 -89 -16.5q-42 0 -80.5 18.5q-38.5 18.5 -63 55q-24.5 36.5 -24.5 86.5q0 52 24 87.5q24 35.5 62.5 53q38.5 17.5 81.5 17.5q50 0 90.5 -16q40.5 -16 67.5 -48l0 80q0 44 -32.5 70q-32.5 26 -85.5 26q-81 0 -145 -64l-39 62q80 79 198 79q86 0 140 -41q54 -41 54 -128v-326h-90zM370 188q-20 27 -53 41q-33 14 -71 14q-49 0 -80 -26.5q-31 -26.5 -31 -69.5q0 -43 31 -69.5q31 -26.5 80 -26.5q38 0 71 14q33 14 53 41zM91 640l43 36q23 -32 57 -50.5q34 -18.5 76 -18.5q41 0 75 18q34 18 58 51l42 -36q-31 -41 -76.5 -64.5q-45.5 -23.5 -98.5 -23.5q-53 0 -99 23.5q-46 23.5 -77 64.5zt0 0zM267 -65q22 0 37 -15.5q15 -15.5 15 -37.5q0 -22 -15 -37.5q-15 -15.5 -37 -15.5q-22 0 -37.5 15.5q-15.5 15.5 -15.5 37.5q0 22 15.5 37.5t37.5 15.5z" />
<glyph unicode="&#230;" horiz-adv-x="883" d="M635 64q37 0 73 15q36 15 60 42l42 -61q-35 -35 -82.5 -53.5q-47.5 -18.5 -96.5 -18.5q-134 0 -192 107q-28 -48 -81.5 -77.5q-53.5 -29.5 -118.5 -29.5q-82 0 -138.5 42q-56.5 42 -56.5 118q0 75 51 116.5q51 41.5 126 41.5q53 0 97.5 -15.5q44.5 -15.5 75.5 -46.5l0 78q0 44 -35.5 70q-35.5 26 -92.5 26q-91 0 -159 -64l-39 62q82 79 206 79q65 0 111.5 -25q46.5 -25 61.5 -74q62 99 178 99q66 0 115.5 -34q49.5 -34 76 -93.5q26.5 -59.5 26.5 -133.5v-22h-359q5 -64 45.5 -106q40.5 -42 105.5 -42zt0 0zM619 421q-42 0 -72 -21.5q-30 -21.5 -46 -54.5q-16 -33 -18 -68l272 0q-1 35 -16 68q-15 33 -45 54.5q-30 21.5 -75 21.5zt0 0zM257 243q-54 0 -88 -24q-34 -24 -34 -66q0 -42 33.5 -65.5q33.5 -23.5 88.5 -23.5q37 0 68.5 16.5q31.5 16.5 50 43q18.5 26.5 18.5 54.5v9q-23 27 -59.5 41.5t-77.5 14.5z" />
<glyph unicode="&#509;" horiz-adv-x="883" d="M635 64q37 0 73 15q36 15 60 42l42 -61q-35 -35 -82.5 -53.5q-47.5 -18.5 -96.5 -18.5q-134 0 -192 107q-28 -48 -81.5 -77.5q-53.5 -29.5 -118.5 -29.5q-82 0 -138.5 42q-56.5 42 -56.5 118q0 75 51 116.5q51 41.5 126 41.5q53 0 97.5 -15.5q44.5 -15.5 75.5 -46.5l0 78q0 44 -35.5 70q-35.5 26 -92.5 26q-91 0 -159 -64l-39 62q82 79 206 79q65 0 111.5 -25q46.5 -25 61.5 -74q62 99 178 99q66 0 115.5 -34q49.5 -34 76 -93.5q26.5 -59.5 26.5 -133.5v-22h-359q5 -64 45.5 -106q40.5 -42 105.5 -42zt0 0zM619 421q-42 0 -72 -21.5q-30 -21.5 -46 -54.5q-16 -33 -18 -68l272 0q-1 35 -16 68q-15 33 -45 54.5q-30 21.5 -75 21.5zt0 0zM257 243q-54 0 -88 -24q-34 -24 -34 -66q0 -42 33.5 -65.5q33.5 -23.5 88.5 -23.5q37 0 68.5 16.5q31.5 16.5 50 43q18.5 26.5 18.5 54.5v9q-23 27 -59.5 41.5q-36.5 14.5 -77.5 14.5zt0 0zM405 556l144 144h89l-167 -144z" />
<glyph unicode="&#7683;" horiz-adv-x="578" d="M72 667h90v-254q29 39 70 60.5q41 21.5 88 21.5q63 0 111.5 -31.5q48.5 -31.5 76 -89q27.5 -57.5 27.5 -133.5q0 -77 -27.5 -134.5q-27.5 -57.5 -76 -88q-48.5 -30.5 -111.5 -30.5q-47 0 -88.5 22q-41.5 22 -69.5 59l0 -69h-90zM296 68q67 0 106.5 48q39.5 48 39.5 125q0 77 -39.5 125.5q-39.5 48.5 -106.5 48.5q-40 0 -77.5 -21q-37.5 -21 -56.5 -51l0 -205q18 -30 56 -50q38 -20 78 -20zt0 0zM296 837q21 0 36.5 -16q15.5 -16 15.5 -37q0 -22 -15 -37.5q-15 -15.5 -37 -15.5q-22 0 -37.5 15.5q-15.5 15.5 -15.5 37.5q0 21 15.5 37t37.5 16z" />
<glyph unicode="&#263;" horiz-adv-x="496" d="M288 495q118 0 181 -85l-60 -55q-42 60 -117 60q-70 0 -113 -48.5q-43 -48.5 -43 -124.5q0 -76 43 -125q43 -49 113 -49q74 0 117 60l60 -55q-63 -85 -181 -85q-72 0 -128 33q-56 33 -87 91q-31 58 -31 130q0 72 31 129.5q31 57.5 87 90.5q56 33 128 33zt0 0zM250 556l144 144h89l-167 -144z" />
<glyph unicode="&#231;" horiz-adv-x="496" d="M409 128l60 -55q-58 -78 -160 -84l-17 -43q16 11 37 11q29 0 47.5 -18.5q18.5 -18.5 18.5 -47.5q0 -38 -30.5 -61q-30.5 -23 -75.5 -23q-31 0 -59 9q-28 9 -44 22l20 42q36 -29 81 -29q25 0 42 10.5q17 10.5 17 30.5q0 14 -9 22q-9 8 -27 8q-10 0 -19.5 -4q-9.5 -4 -15.5 -11l-38 21l23 61q-65 6 -114.5 40.5q-49.5 34.5 -76.5 90q-27 55.5 -27 122.5q0 72 31 129.5q31 57.5 87 90.5q56 33 128 33q118 0 181 -85l-60 -55q-42 60 -117 60q-70 0 -113 -48.5q-43 -48.5 -43 -124.5q0 -76 43 -125q43 -49 113 -49q74 0 117 60z" />
<glyph unicode="&#265;" horiz-adv-x="496" d="M288 495q118 0 181 -85l-60 -55q-42 60 -117 60q-70 0 -113 -48.5q-43 -48.5 -43 -124.5q0 -76 43 -125q43 -49 113 -49q74 0 117 60l60 -55q-63 -85 -181 -85q-72 0 -128 33q-56 33 -87 91q-31 58 -31 130q0 72 31 129.5q31 57.5 87 90.5q56 33 128 33zt0 0zM286 657l-78 -101h-58l94 144h84l97 -144l-59 0z" />
<glyph unicode="&#267;" horiz-adv-x="496" d="M288 495q118 0 181 -85l-60 -55q-42 60 -117 60q-70 0 -113 -48.5q-43 -48.5 -43 -124.5q0 -76 43 -125q43 -49 113 -49q74 0 117 60l60 -55q-63 -85 -181 -85q-72 0 -128 33q-56 33 -87 91q-31 58 -31 130q0 72 31 129.5q31 57.5 87 90.5q56 33 128 33zt0 0zM286 670q21 0 36.5 -16q15.5 -16 15.5 -37q0 -22 -15 -37.5q-15 -15.5 -37 -15.5q-22 0 -37.5 15.5q-15.5 15.5 -15.5 37.5q0 21 15.5 37t37.5 16z" />
<glyph unicode="&#269;" horiz-adv-x="496" d="M288 495q118 0 181 -85l-60 -55q-42 60 -117 60q-70 0 -113 -48.5q-43 -48.5 -43 -124.5q0 -76 43 -125q43 -49 113 -49q74 0 117 60l60 -55q-63 -85 -181 -85q-72 0 -128 33q-56 33 -87 91q-31 58 -31 130q0 72 31 129.5q31 57.5 87 90.5q56 33 128 33zt0 0zM147 700h58l81 -102l77 102h59l-94 -144l-84 0z" />
<glyph unicode="&#271;" horiz-adv-x="657" d="M416 69q-28 -37 -69.5 -59q-41.5 -22 -88.5 -22q-63 0 -112 30.5q-49 30.5 -76.5 87.5q-27.5 57 -27.5 135q0 76 27.5 133.5q27.5 57.5 76.5 89q49 31.5 112 31.5q46 0 87.5 -21.5q41.5 -21.5 70.5 -60.5l0 254h90v-667h-90zM416 344q-19 30 -56.5 50.5q-37.5 20.5 -77.5 20.5q-67 0 -106.5 -48.5q-39.5 -48.5 -39.5 -125.5q0 -76 39.5 -124.5q39.5 -48.5 106.5 -48.5q40 0 77.5 20q37.5 20 56.5 50zM551 498q22 14 39.5 38q17.5 24 20.5 46q-6 -2 -13 -2q-20 0 -32.5 13.5q-12.5 13.5 -12.5 34.5q0 21 14.5 36q14.5 15 35.5 15q24 0 41.5 -19.5q17.5 -19.5 17.5 -51.5q0 -40 -21 -77q-21 -37 -54 -61z" />
<glyph unicode="&#273;" horiz-adv-x="581" d="M572 533h-66v-533h-90v69q-28 -37 -69.5 -59q-41.5 -22 -88.5 -22q-63 0 -112 30.5q-49 30.5 -76.5 87.5q-27.5 57 -27.5 135q0 76 27.5 133.5q27.5 57.5 76.5 89q49 31.5 112 31.5q46 0 87.5 -21.5q41.5 -21.5 70.5 -60.5l0 120h-153v55h153v79h90v-79h66zM416 344q-19 30 -56.5 50.5q-37.5 20.5 -77.5 20.5q-67 0 -106.5 -48.5q-39.5 -48.5 -39.5 -125.5q0 -76 39.5 -124.5q39.5 -48.5 106.5 -48.5q40 0 77.5 20q37.5 20 56.5 50z" />
<glyph unicode="&#7691;" horiz-adv-x="578" d="M416 69q-28 -37 -69.5 -59q-41.5 -22 -88.5 -22q-63 0 -112 30.5q-49 30.5 -76.5 87.5q-27.5 57 -27.5 135q0 76 27.5 133.5q27.5 57.5 76.5 89q49 31.5 112 31.5q46 0 87.5 -21.5q41.5 -21.5 70.5 -60.5l0 254h90v-667h-90zM416 344q-19 30 -56.5 50.5q-37.5 20.5 -77.5 20.5q-67 0 -106.5 -48.5q-39.5 -48.5 -39.5 -125.5q0 -76 39.5 -124.5q39.5 -48.5 106.5 -48.5q40 0 77.5 20q37.5 20 56.5 50zM291 837q21 0 36.5 -16q15.5 -16 15.5 -37q0 -22 -15 -37.5q-15 -15.5 -37 -15.5q-22 0 -37.5 15.5q-15.5 15.5 -15.5 37.5q0 21 15.5 37t37.5 16z" />
<glyph unicode="&#233;" horiz-adv-x="560" d="M284 495q71 0 124.5 -34q53.5 -34 82 -93.5q28.5 -59.5 28.5 -133.5v-22h-382q5 -64 49.5 -107q44.5 -43 114.5 -43q39 0 78 15q39 15 65 42l42 -59q-36 -35 -85.5 -53.5q-49.5 -18.5 -108.5 -18.5q-72 0 -128.5 32q-56.5 32 -89 89.5q-32.5 57.5 -32.5 132.5q0 69 31 127q31 58 86.5 92q55.5 34 124.5 34zt0 0zM136 277h295q-1 35 -17 68q-16 33 -49 54.5q-33 21.5 -81 21.5q-46 0 -78.5 -21.5q-32.5 -21.5 -49.5 -54.5q-17 -33 -20 -68zt0 0zM248 556l144 144h89l-167 -144z" />
<glyph unicode="&#277;" horiz-adv-x="560" d="M284 495q71 0 124.5 -34q53.5 -34 82 -93.5q28.5 -59.5 28.5 -133.5v-22h-382q5 -64 49.5 -107q44.5 -43 114.5 -43q39 0 78 15q39 15 65 42l42 -59q-36 -35 -85.5 -53.5q-49.5 -18.5 -108.5 -18.5q-72 0 -128.5 32q-56.5 32 -89 89.5q-32.5 57.5 -32.5 132.5q0 69 31 127q31 58 86.5 92q55.5 34 124.5 34zt0 0zM136 277h295q-1 35 -17 68q-16 33 -49 54.5q-33 21.5 -81 21.5q-46 0 -78.5 -21.5q-32.5 -21.5 -49.5 -54.5q-17 -33 -20 -68zt0 0zM108 640l43 36q23 -32 57 -50.5q34 -18.5 76 -18.5q41 0 75 18q34 18 58 51l42 -36q-31 -41 -76.5 -64.5q-45.5 -23.5 -98.5 -23.5q-53 0 -99 23.5t-77 64.5z" />
<glyph unicode="&#234;" horiz-adv-x="560" d="M284 495q71 0 124.5 -34q53.5 -34 82 -93.5q28.5 -59.5 28.5 -133.5v-22h-382q5 -64 49.5 -107q44.5 -43 114.5 -43q39 0 78 15q39 15 65 42l42 -59q-36 -35 -85.5 -53.5q-49.5 -18.5 -108.5 -18.5q-72 0 -128.5 32q-56.5 32 -89 89.5q-32.5 57.5 -32.5 132.5q0 69 31 127q31 58 86.5 92q55.5 34 124.5 34zt0 0zM136 277h295q-1 35 -17 68q-16 33 -49 54.5q-33 21.5 -81 21.5q-46 0 -78.5 -21.5q-32.5 -21.5 -49.5 -54.5q-17 -33 -20 -68zt0 0zM284 657l-78 -101h-58l94 144h84l97 -144l-59 0z" />
</font>
</defs>
</svg>
